<?xml version="1.0" encoding="UTF-8" standalone="no"?>
<svg
   xmlns:dc="http://purl.org/dc/elements/1.1/"
   xmlns:cc="http://creativecommons.org/ns#"
   xmlns:rdf="http://www.w3.org/1999/02/22-rdf-syntax-ns#"
   xmlns:svg="http://www.w3.org/2000/svg"
   xmlns="http://www.w3.org/2000/svg"
   xmlns:sodipodi="http://sodipodi.sourceforge.net/DTD/sodipodi-0.dtd"
   xmlns:inkscape="http://www.inkscape.org/namespaces/inkscape"
   version="1.1"
   viewBox="0 0 400 400"
   stroke-miterlimit="10"
   id="svg2"
   inkscape:version="0.91 r13725"
   sodipodi:docname="brackets.svg"
   width="400"
   height="400"
   style="fill:none;stroke:none;stroke-linecap:square;stroke-miterlimit:10">
  <metadata
     id="metadata21">
    <rdf:RDF>
      <cc:Work
         rdf:about="">
        <dc:format>image/svg+xml</dc:format>
        <dc:type
           rdf:resource="http://purl.org/dc/dcmitype/StillImage" />
        <dc:title></dc:title>
      </cc:Work>
    </rdf:RDF>
  </metadata>
  <defs
     id="defs19" />
  <sodipodi:namedview
     pagecolor="#ffffff"
     bordercolor="#666666"
     borderopacity="1"
     objecttolerance="10"
     gridtolerance="10"
     guidetolerance="10"
     inkscape:pageopacity="0"
     inkscape:pageshadow="2"
     inkscape:window-width="1301"
     inkscape:window-height="744"
     id="namedview17"
     showgrid="false"
     inkscape:zoom="0.31041667"
     inkscape:cx="480"
     inkscape:cy="270"
     inkscape:window-x="65"
     inkscape:window-y="24"
     inkscape:window-maximized="1"
     inkscape:current-layer="g7" />
  <clipPath
     id="p.0">
    <path
       d="M 0,0 960,0 960,540 0,540 0,0 Z"
       id="path5"
       inkscape:connector-curvature="0"
       style="clip-rule:nonzero" />
  </clipPath>
  <g
     clip-path="url(#p.0)"
     id="g7"
     transform="translate(0,-140)">
    <path
       d="m 320.58005,132.50755 0,0 c 0,-27.5423 22.32745,-49.86976 49.86978,-49.86976 l 209.45734,0 0,0 c 13.22626,0 25.91083,5.25412 35.26324,14.606514 9.35236,9.352396 14.60651,22.036966 14.60651,35.263246 l 0,199.47307 c 0,27.54233 -22.32745,49.86978 -49.86975,49.86978 l -209.45734,0 0,0 c -27.54233,0 -49.86978,-22.32745 -49.86978,-49.86978 z"
       id="path11"
       inkscape:connector-curvature="0"
       style="fill:#000000;fill-opacity:0;fill-rule:evenodd" />
    <path
       d="m 370.44983,381.8504 0,0 c -27.54233,0 -49.86978,-22.32745 -49.86978,-49.86978 l 0,-199.47307 0,0 c 0,-27.54231 22.32745,-49.86976 49.86978,-49.86976 m 209.45734,0 0,0 c 13.22626,0 25.91083,5.25412 35.26324,14.606514 9.35236,9.352396 14.60651,22.036966 14.60651,35.263246 l 0,199.47307 c 0,27.54233 -22.32745,49.86978 -49.86975,49.86978"
       id="path13"
       inkscape:connector-curvature="0"
       style="fill:#000000;fill-opacity:0;fill-rule:evenodd" />
    <path
       d="m 75.678596,518.08038 0,0 c -33.050796,0 -59.843736,-26.79294 -59.843736,-59.84374 l 0,-239.36768 0,0 c 0,-33.05077 26.79294,-59.84371 59.843736,-59.84371 m 251.348814,0 0,0 c 15.87151,0 31.09299,6.30494 42.31589,17.52782 11.22283,11.22287 17.52781,26.44435 17.52781,42.31589 l 0,239.36768 c 0,33.0508 -26.79294,59.84374 -59.8437,59.84374"
       id="path15"
       inkscape:connector-curvature="0"
       style="fill-rule:evenodd;stroke:#000000;stroke-width:9.60000038;stroke-linecap:butt;stroke-linejoin:round" />
  </g>
</svg>
