<?xml version="1.0" encoding="utf-8" standalone="no"?>
<!DOCTYPE svg PUBLIC "-//W3C//DTD SVG 1.1//EN"
  "http://www.w3.org/Graphics/SVG/1.1/DTD/svg11.dtd">
<!-- Created with matplotlib (http://matplotlib.org/) -->
<svg height="345.6pt" version="1.1" viewBox="0 0 460.8 345.6" width="460.8pt" xmlns="http://www.w3.org/2000/svg" xmlns:xlink="http://www.w3.org/1999/xlink">
 <defs>
  <style type="text/css">
*{stroke-linecap:butt;stroke-linejoin:round;}
  </style>
 </defs>
 <g id="figure_1">
  <g id="patch_1">
   <path d="M 0 345.6 
L 460.8 345.6 
L 460.8 0 
L 0 0 
z
" style="fill:#ffffff;"/>
  </g>
  <g id="axes_1">
   <g id="patch_2">
    <path d="M 57.6 307.584 
L 414.72 307.584 
L 414.72 41.472 
L 57.6 41.472 
z
" style="fill:#ffffff;"/>
   </g>
   <g id="matplotlib.axis_1">
    <g id="xtick_1">
     <g id="line2d_1">
      <path clip-path="url(#pe6fe7c2082)" d="M 73.816494 307.584 
L 73.816494 41.472 
" style="fill:none;stroke:#cccccc;stroke-linecap:round;stroke-width:0.8;"/>
     </g>
     <g id="line2d_2"/>
     <g id="text_1">
      <!-- 0 -->
      <defs>
       <path d="M 4.15625 35.296875 
Q 4.15625 48 6.765625 55.734375 
Q 9.375 63.484375 14.515625 67.671875 
Q 19.671875 71.875 27.484375 71.875 
Q 33.25 71.875 37.59375 69.546875 
Q 41.9375 67.234375 44.765625 62.859375 
Q 47.609375 58.5 49.21875 52.21875 
Q 50.828125 45.953125 50.828125 35.296875 
Q 50.828125 22.703125 48.234375 14.96875 
Q 45.65625 7.234375 40.5 3 
Q 35.359375 -1.21875 27.484375 -1.21875 
Q 17.140625 -1.21875 11.234375 6.203125 
Q 4.15625 15.140625 4.15625 35.296875 
z
M 13.1875 35.296875 
Q 13.1875 17.671875 17.3125 11.828125 
Q 21.4375 6 27.484375 6 
Q 33.546875 6 37.671875 11.859375 
Q 41.796875 17.71875 41.796875 35.296875 
Q 41.796875 52.984375 37.671875 58.78125 
Q 33.546875 64.59375 27.390625 64.59375 
Q 21.34375 64.59375 17.71875 59.46875 
Q 13.1875 52.9375 13.1875 35.296875 
z
" id="ArialMT-30"/>
      </defs>
      <g style="fill:#262626;" transform="translate(71.036025 318.241812)scale(0.1 -0.1)">
       <use xlink:href="#ArialMT-30"/>
      </g>
     </g>
    </g>
    <g id="xtick_2">
     <g id="line2d_3">
      <path clip-path="url(#pe6fe7c2082)" d="M 114.400341 307.584 
L 114.400341 41.472 
" style="fill:none;stroke:#cccccc;stroke-linecap:round;stroke-width:0.8;"/>
     </g>
     <g id="line2d_4"/>
     <g id="text_2">
      <!-- 2500 -->
      <defs>
       <path d="M 50.34375 8.453125 
L 50.34375 0 
L 3.03125 0 
Q 2.9375 3.171875 4.046875 6.109375 
Q 5.859375 10.9375 9.828125 15.625 
Q 13.8125 20.3125 21.34375 26.46875 
Q 33.015625 36.03125 37.109375 41.625 
Q 41.21875 47.21875 41.21875 52.203125 
Q 41.21875 57.421875 37.46875 61 
Q 33.734375 64.59375 27.734375 64.59375 
Q 21.390625 64.59375 17.578125 60.78125 
Q 13.765625 56.984375 13.71875 50.25 
L 4.6875 51.171875 
Q 5.609375 61.28125 11.65625 66.578125 
Q 17.71875 71.875 27.9375 71.875 
Q 38.234375 71.875 44.234375 66.15625 
Q 50.25 60.453125 50.25 52 
Q 50.25 47.703125 48.484375 43.546875 
Q 46.734375 39.40625 42.65625 34.8125 
Q 38.578125 30.21875 29.109375 22.21875 
Q 21.1875 15.578125 18.9375 13.203125 
Q 16.703125 10.84375 15.234375 8.453125 
z
" id="ArialMT-32"/>
       <path d="M 4.15625 18.75 
L 13.375 19.53125 
Q 14.40625 12.796875 18.140625 9.390625 
Q 21.875 6 27.15625 6 
Q 33.5 6 37.890625 10.78125 
Q 42.28125 15.578125 42.28125 23.484375 
Q 42.28125 31 38.0625 35.34375 
Q 33.84375 39.703125 27 39.703125 
Q 22.75 39.703125 19.328125 37.765625 
Q 15.921875 35.84375 13.96875 32.765625 
L 5.71875 33.84375 
L 12.640625 70.609375 
L 48.25 70.609375 
L 48.25 62.203125 
L 19.671875 62.203125 
L 15.828125 42.96875 
Q 22.265625 47.46875 29.34375 47.46875 
Q 38.71875 47.46875 45.15625 40.96875 
Q 51.609375 34.46875 51.609375 24.265625 
Q 51.609375 14.546875 45.953125 7.46875 
Q 39.0625 -1.21875 27.15625 -1.21875 
Q 17.390625 -1.21875 11.203125 4.25 
Q 5.03125 9.71875 4.15625 18.75 
z
" id="ArialMT-35"/>
      </defs>
      <g style="fill:#262626;" transform="translate(103.278466 318.241812)scale(0.1 -0.1)">
       <use xlink:href="#ArialMT-32"/>
       <use x="55.615234" xlink:href="#ArialMT-35"/>
       <use x="111.230469" xlink:href="#ArialMT-30"/>
       <use x="166.845703" xlink:href="#ArialMT-30"/>
      </g>
     </g>
    </g>
    <g id="xtick_3">
     <g id="line2d_5">
      <path clip-path="url(#pe6fe7c2082)" d="M 154.984188 307.584 
L 154.984188 41.472 
" style="fill:none;stroke:#cccccc;stroke-linecap:round;stroke-width:0.8;"/>
     </g>
     <g id="line2d_6"/>
     <g id="text_3">
      <!-- 5000 -->
      <g style="fill:#262626;" transform="translate(143.862313 318.241812)scale(0.1 -0.1)">
       <use xlink:href="#ArialMT-35"/>
       <use x="55.615234" xlink:href="#ArialMT-30"/>
       <use x="111.230469" xlink:href="#ArialMT-30"/>
       <use x="166.845703" xlink:href="#ArialMT-30"/>
      </g>
     </g>
    </g>
    <g id="xtick_4">
     <g id="line2d_7">
      <path clip-path="url(#pe6fe7c2082)" d="M 195.568036 307.584 
L 195.568036 41.472 
" style="fill:none;stroke:#cccccc;stroke-linecap:round;stroke-width:0.8;"/>
     </g>
     <g id="line2d_8"/>
     <g id="text_4">
      <!-- 7500 -->
      <defs>
       <path d="M 4.734375 62.203125 
L 4.734375 70.65625 
L 51.078125 70.65625 
L 51.078125 63.8125 
Q 44.234375 56.546875 37.515625 44.484375 
Q 30.8125 32.421875 27.15625 19.671875 
Q 24.515625 10.6875 23.78125 0 
L 14.75 0 
Q 14.890625 8.453125 18.0625 20.40625 
Q 21.234375 32.375 27.171875 43.484375 
Q 33.109375 54.59375 39.796875 62.203125 
z
" id="ArialMT-37"/>
      </defs>
      <g style="fill:#262626;" transform="translate(184.446161 318.241812)scale(0.1 -0.1)">
       <use xlink:href="#ArialMT-37"/>
       <use x="55.615234" xlink:href="#ArialMT-35"/>
       <use x="111.230469" xlink:href="#ArialMT-30"/>
       <use x="166.845703" xlink:href="#ArialMT-30"/>
      </g>
     </g>
    </g>
    <g id="xtick_5">
     <g id="line2d_9">
      <path clip-path="url(#pe6fe7c2082)" d="M 236.151883 307.584 
L 236.151883 41.472 
" style="fill:none;stroke:#cccccc;stroke-linecap:round;stroke-width:0.8;"/>
     </g>
     <g id="line2d_10"/>
     <g id="text_5">
      <!-- 10000 -->
      <defs>
       <path d="M 37.25 0 
L 28.46875 0 
L 28.46875 56 
Q 25.296875 52.984375 20.140625 49.953125 
Q 14.984375 46.921875 10.890625 45.40625 
L 10.890625 53.90625 
Q 18.265625 57.375 23.78125 62.296875 
Q 29.296875 67.234375 31.59375 71.875 
L 37.25 71.875 
z
" id="ArialMT-31"/>
      </defs>
      <g style="fill:#262626;" transform="translate(222.249539 318.241812)scale(0.1 -0.1)">
       <use xlink:href="#ArialMT-31"/>
       <use x="55.615234" xlink:href="#ArialMT-30"/>
       <use x="111.230469" xlink:href="#ArialMT-30"/>
       <use x="166.845703" xlink:href="#ArialMT-30"/>
       <use x="222.460938" xlink:href="#ArialMT-30"/>
      </g>
     </g>
    </g>
    <g id="xtick_6">
     <g id="line2d_11">
      <path clip-path="url(#pe6fe7c2082)" d="M 276.735731 307.584 
L 276.735731 41.472 
" style="fill:none;stroke:#cccccc;stroke-linecap:round;stroke-width:0.8;"/>
     </g>
     <g id="line2d_12"/>
     <g id="text_6">
      <!-- 12500 -->
      <g style="fill:#262626;" transform="translate(262.833387 318.241812)scale(0.1 -0.1)">
       <use xlink:href="#ArialMT-31"/>
       <use x="55.615234" xlink:href="#ArialMT-32"/>
       <use x="111.230469" xlink:href="#ArialMT-35"/>
       <use x="166.845703" xlink:href="#ArialMT-30"/>
       <use x="222.460938" xlink:href="#ArialMT-30"/>
      </g>
     </g>
    </g>
    <g id="xtick_7">
     <g id="line2d_13">
      <path clip-path="url(#pe6fe7c2082)" d="M 317.319578 307.584 
L 317.319578 41.472 
" style="fill:none;stroke:#cccccc;stroke-linecap:round;stroke-width:0.8;"/>
     </g>
     <g id="line2d_14"/>
     <g id="text_7">
      <!-- 15000 -->
      <g style="fill:#262626;" transform="translate(303.417234 318.241812)scale(0.1 -0.1)">
       <use xlink:href="#ArialMT-31"/>
       <use x="55.615234" xlink:href="#ArialMT-35"/>
       <use x="111.230469" xlink:href="#ArialMT-30"/>
       <use x="166.845703" xlink:href="#ArialMT-30"/>
       <use x="222.460938" xlink:href="#ArialMT-30"/>
      </g>
     </g>
    </g>
    <g id="xtick_8">
     <g id="line2d_15">
      <path clip-path="url(#pe6fe7c2082)" d="M 357.903425 307.584 
L 357.903425 41.472 
" style="fill:none;stroke:#cccccc;stroke-linecap:round;stroke-width:0.8;"/>
     </g>
     <g id="line2d_16"/>
     <g id="text_8">
      <!-- 17500 -->
      <g style="fill:#262626;" transform="translate(344.001082 318.241812)scale(0.1 -0.1)">
       <use xlink:href="#ArialMT-31"/>
       <use x="55.615234" xlink:href="#ArialMT-37"/>
       <use x="111.230469" xlink:href="#ArialMT-35"/>
       <use x="166.845703" xlink:href="#ArialMT-30"/>
       <use x="222.460938" xlink:href="#ArialMT-30"/>
      </g>
     </g>
    </g>
    <g id="xtick_9">
     <g id="line2d_17">
      <path clip-path="url(#pe6fe7c2082)" d="M 398.487273 307.584 
L 398.487273 41.472 
" style="fill:none;stroke:#cccccc;stroke-linecap:round;stroke-width:0.8;"/>
     </g>
     <g id="line2d_18"/>
     <g id="text_9">
      <!-- 20000 -->
      <g style="fill:#262626;" transform="translate(384.584929 318.241812)scale(0.1 -0.1)">
       <use xlink:href="#ArialMT-32"/>
       <use x="55.615234" xlink:href="#ArialMT-30"/>
       <use x="111.230469" xlink:href="#ArialMT-30"/>
       <use x="166.845703" xlink:href="#ArialMT-30"/>
       <use x="222.460938" xlink:href="#ArialMT-30"/>
      </g>
     </g>
    </g>
    <g id="text_10">
     <!-- 20000 iterations -->
     <defs>
      <path id="ArialMT-20"/>
      <path d="M 6.640625 61.46875 
L 6.640625 71.578125 
L 15.4375 71.578125 
L 15.4375 61.46875 
z
M 6.640625 0 
L 6.640625 51.859375 
L 15.4375 51.859375 
L 15.4375 0 
z
" id="ArialMT-69"/>
      <path d="M 25.78125 7.859375 
L 27.046875 0.09375 
Q 23.34375 -0.6875 20.40625 -0.6875 
Q 15.625 -0.6875 12.984375 0.828125 
Q 10.359375 2.34375 9.28125 4.8125 
Q 8.203125 7.28125 8.203125 15.1875 
L 8.203125 45.015625 
L 1.765625 45.015625 
L 1.765625 51.859375 
L 8.203125 51.859375 
L 8.203125 64.703125 
L 16.9375 69.96875 
L 16.9375 51.859375 
L 25.78125 51.859375 
L 25.78125 45.015625 
L 16.9375 45.015625 
L 16.9375 14.703125 
Q 16.9375 10.9375 17.40625 9.859375 
Q 17.875 8.796875 18.921875 8.15625 
Q 19.96875 7.515625 21.921875 7.515625 
Q 23.390625 7.515625 25.78125 7.859375 
z
" id="ArialMT-74"/>
      <path d="M 42.09375 16.703125 
L 51.171875 15.578125 
Q 49.03125 7.625 43.21875 3.21875 
Q 37.40625 -1.171875 28.375 -1.171875 
Q 17 -1.171875 10.328125 5.828125 
Q 3.65625 12.84375 3.65625 25.484375 
Q 3.65625 38.578125 10.390625 45.796875 
Q 17.140625 53.03125 27.875 53.03125 
Q 38.28125 53.03125 44.875 45.953125 
Q 51.46875 38.875 51.46875 26.03125 
Q 51.46875 25.25 51.421875 23.6875 
L 12.75 23.6875 
Q 13.234375 15.140625 17.578125 10.59375 
Q 21.921875 6.0625 28.421875 6.0625 
Q 33.25 6.0625 36.671875 8.59375 
Q 40.09375 11.140625 42.09375 16.703125 
z
M 13.234375 30.90625 
L 42.1875 30.90625 
Q 41.609375 37.453125 38.875 40.71875 
Q 34.671875 45.796875 27.984375 45.796875 
Q 21.921875 45.796875 17.796875 41.75 
Q 13.671875 37.703125 13.234375 30.90625 
z
" id="ArialMT-65"/>
      <path d="M 6.5 0 
L 6.5 51.859375 
L 14.40625 51.859375 
L 14.40625 44 
Q 17.4375 49.515625 20 51.265625 
Q 22.5625 53.03125 25.640625 53.03125 
Q 30.078125 53.03125 34.671875 50.203125 
L 31.640625 42.046875 
Q 28.421875 43.953125 25.203125 43.953125 
Q 22.3125 43.953125 20.015625 42.21875 
Q 17.71875 40.484375 16.75 37.40625 
Q 15.28125 32.71875 15.28125 27.15625 
L 15.28125 0 
z
" id="ArialMT-72"/>
      <path d="M 40.4375 6.390625 
Q 35.546875 2.25 31.03125 0.53125 
Q 26.515625 -1.171875 21.34375 -1.171875 
Q 12.796875 -1.171875 8.203125 3 
Q 3.609375 7.171875 3.609375 13.671875 
Q 3.609375 17.484375 5.34375 20.625 
Q 7.078125 23.78125 9.890625 25.6875 
Q 12.703125 27.59375 16.21875 28.5625 
Q 18.796875 29.25 24.03125 29.890625 
Q 34.671875 31.15625 39.703125 32.90625 
Q 39.75 34.71875 39.75 35.203125 
Q 39.75 40.578125 37.25 42.78125 
Q 33.890625 45.75 27.25 45.75 
Q 21.046875 45.75 18.09375 43.578125 
Q 15.140625 41.40625 13.71875 35.890625 
L 5.125 37.0625 
Q 6.296875 42.578125 8.984375 45.96875 
Q 11.671875 49.359375 16.75 51.1875 
Q 21.828125 53.03125 28.515625 53.03125 
Q 35.15625 53.03125 39.296875 51.46875 
Q 43.453125 49.90625 45.40625 47.53125 
Q 47.359375 45.171875 48.140625 41.546875 
Q 48.578125 39.3125 48.578125 33.453125 
L 48.578125 21.734375 
Q 48.578125 9.46875 49.140625 6.21875 
Q 49.703125 2.984375 51.375 0 
L 42.1875 0 
Q 40.828125 2.734375 40.4375 6.390625 
z
M 39.703125 26.03125 
Q 34.90625 24.078125 25.34375 22.703125 
Q 19.921875 21.921875 17.671875 20.9375 
Q 15.4375 19.96875 14.203125 18.09375 
Q 12.984375 16.21875 12.984375 13.921875 
Q 12.984375 10.40625 15.640625 8.0625 
Q 18.3125 5.71875 23.4375 5.71875 
Q 28.515625 5.71875 32.46875 7.9375 
Q 36.421875 10.15625 38.28125 14.015625 
Q 39.703125 17 39.703125 22.796875 
z
" id="ArialMT-61"/>
      <path d="M 3.328125 25.921875 
Q 3.328125 40.328125 11.328125 47.265625 
Q 18.015625 53.03125 27.640625 53.03125 
Q 38.328125 53.03125 45.109375 46.015625 
Q 51.90625 39.015625 51.90625 26.65625 
Q 51.90625 16.65625 48.90625 10.90625 
Q 45.90625 5.171875 40.15625 2 
Q 34.421875 -1.171875 27.640625 -1.171875 
Q 16.75 -1.171875 10.03125 5.8125 
Q 3.328125 12.796875 3.328125 25.921875 
z
M 12.359375 25.921875 
Q 12.359375 15.96875 16.703125 11.015625 
Q 21.046875 6.0625 27.640625 6.0625 
Q 34.1875 6.0625 38.53125 11.03125 
Q 42.875 16.015625 42.875 26.21875 
Q 42.875 35.84375 38.5 40.796875 
Q 34.125 45.75 27.640625 45.75 
Q 21.046875 45.75 16.703125 40.8125 
Q 12.359375 35.890625 12.359375 25.921875 
z
" id="ArialMT-6f"/>
      <path d="M 6.59375 0 
L 6.59375 51.859375 
L 14.5 51.859375 
L 14.5 44.484375 
Q 20.21875 53.03125 31 53.03125 
Q 35.6875 53.03125 39.625 51.34375 
Q 43.5625 49.65625 45.515625 46.921875 
Q 47.46875 44.1875 48.25 40.4375 
Q 48.734375 37.984375 48.734375 31.890625 
L 48.734375 0 
L 39.9375 0 
L 39.9375 31.546875 
Q 39.9375 36.921875 38.90625 39.578125 
Q 37.890625 42.234375 35.28125 43.8125 
Q 32.671875 45.40625 29.15625 45.40625 
Q 23.53125 45.40625 19.453125 41.84375 
Q 15.375 38.28125 15.375 28.328125 
L 15.375 0 
z
" id="ArialMT-6e"/>
      <path d="M 3.078125 15.484375 
L 11.765625 16.84375 
Q 12.5 11.625 15.84375 8.84375 
Q 19.1875 6.0625 25.203125 6.0625 
Q 31.25 6.0625 34.171875 8.515625 
Q 37.109375 10.984375 37.109375 14.3125 
Q 37.109375 17.28125 34.515625 19 
Q 32.71875 20.171875 25.53125 21.96875 
Q 15.875 24.421875 12.140625 26.203125 
Q 8.40625 27.984375 6.46875 31.125 
Q 4.546875 34.28125 4.546875 38.09375 
Q 4.546875 41.546875 6.125 44.5 
Q 7.71875 47.46875 10.453125 49.421875 
Q 12.5 50.921875 16.03125 51.96875 
Q 19.578125 53.03125 23.640625 53.03125 
Q 29.734375 53.03125 34.34375 51.265625 
Q 38.96875 49.515625 41.15625 46.5 
Q 43.359375 43.5 44.1875 38.484375 
L 35.59375 37.3125 
Q 35.015625 41.3125 32.203125 43.546875 
Q 29.390625 45.796875 24.265625 45.796875 
Q 18.21875 45.796875 15.625 43.796875 
Q 13.03125 41.796875 13.03125 39.109375 
Q 13.03125 37.40625 14.109375 36.03125 
Q 15.1875 34.625 17.484375 33.6875 
Q 18.796875 33.203125 25.25 31.453125 
Q 34.578125 28.953125 38.25 27.359375 
Q 41.9375 25.78125 44.03125 22.75 
Q 46.140625 19.734375 46.140625 15.234375 
Q 46.140625 10.84375 43.578125 6.953125 
Q 41.015625 3.078125 36.171875 0.953125 
Q 31.34375 -1.171875 25.25 -1.171875 
Q 15.140625 -1.171875 9.84375 3.03125 
Q 4.546875 7.234375 3.078125 15.484375 
z
" id="ArialMT-73"/>
     </defs>
     <g style="fill:#262626;" transform="translate(200.581875 331.387125)scale(0.1 -0.1)">
      <use xlink:href="#ArialMT-32"/>
      <use x="55.615234" xlink:href="#ArialMT-30"/>
      <use x="111.230469" xlink:href="#ArialMT-30"/>
      <use x="166.845703" xlink:href="#ArialMT-30"/>
      <use x="222.460938" xlink:href="#ArialMT-30"/>
      <use x="278.076172" xlink:href="#ArialMT-20"/>
      <use x="305.859375" xlink:href="#ArialMT-69"/>
      <use x="328.076172" xlink:href="#ArialMT-74"/>
      <use x="355.859375" xlink:href="#ArialMT-65"/>
      <use x="411.474609" xlink:href="#ArialMT-72"/>
      <use x="444.775391" xlink:href="#ArialMT-61"/>
      <use x="500.390625" xlink:href="#ArialMT-74"/>
      <use x="528.173828" xlink:href="#ArialMT-69"/>
      <use x="550.390625" xlink:href="#ArialMT-6f"/>
      <use x="606.005859" xlink:href="#ArialMT-6e"/>
      <use x="661.621094" xlink:href="#ArialMT-73"/>
     </g>
     <!-- Uptime: 0:12:42.323606 -->
     <defs>
      <path d="M 54.6875 71.578125 
L 64.15625 71.578125 
L 64.15625 30.21875 
Q 64.15625 19.4375 61.71875 13.078125 
Q 59.28125 6.734375 52.90625 2.75 
Q 46.53125 -1.21875 36.1875 -1.21875 
Q 26.125 -1.21875 19.71875 2.25 
Q 13.328125 5.71875 10.59375 12.28125 
Q 7.859375 18.84375 7.859375 30.21875 
L 7.859375 71.578125 
L 17.328125 71.578125 
L 17.328125 30.28125 
Q 17.328125 20.953125 19.0625 16.53125 
Q 20.796875 12.109375 25.015625 9.71875 
Q 29.25 7.328125 35.359375 7.328125 
Q 45.796875 7.328125 50.234375 12.0625 
Q 54.6875 16.796875 54.6875 30.28125 
z
" id="ArialMT-55"/>
      <path d="M 6.59375 -19.875 
L 6.59375 51.859375 
L 14.59375 51.859375 
L 14.59375 45.125 
Q 17.4375 49.078125 21 51.046875 
Q 24.5625 53.03125 29.640625 53.03125 
Q 36.28125 53.03125 41.359375 49.609375 
Q 46.4375 46.1875 49.015625 39.953125 
Q 51.609375 33.734375 51.609375 26.3125 
Q 51.609375 18.359375 48.75 11.984375 
Q 45.90625 5.609375 40.453125 2.21875 
Q 35.015625 -1.171875 29 -1.171875 
Q 24.609375 -1.171875 21.109375 0.6875 
Q 17.625 2.546875 15.375 5.375 
L 15.375 -19.875 
z
M 14.546875 25.640625 
Q 14.546875 15.625 18.59375 10.84375 
Q 22.65625 6.0625 28.421875 6.0625 
Q 34.28125 6.0625 38.453125 11.015625 
Q 42.625 15.96875 42.625 26.375 
Q 42.625 36.28125 38.546875 41.203125 
Q 34.46875 46.140625 28.8125 46.140625 
Q 23.1875 46.140625 18.859375 40.890625 
Q 14.546875 35.640625 14.546875 25.640625 
z
" id="ArialMT-70"/>
      <path d="M 6.59375 0 
L 6.59375 51.859375 
L 14.453125 51.859375 
L 14.453125 44.578125 
Q 16.890625 48.390625 20.9375 50.703125 
Q 25 53.03125 30.171875 53.03125 
Q 35.9375 53.03125 39.625 50.640625 
Q 43.3125 48.25 44.828125 43.953125 
Q 50.984375 53.03125 60.84375 53.03125 
Q 68.5625 53.03125 72.703125 48.75 
Q 76.859375 44.484375 76.859375 35.59375 
L 76.859375 0 
L 68.109375 0 
L 68.109375 32.671875 
Q 68.109375 37.9375 67.25 40.25 
Q 66.40625 42.578125 64.15625 43.984375 
Q 61.921875 45.40625 58.890625 45.40625 
Q 53.421875 45.40625 49.796875 41.765625 
Q 46.1875 38.140625 46.1875 30.125 
L 46.1875 0 
L 37.40625 0 
L 37.40625 33.6875 
Q 37.40625 39.546875 35.25 42.46875 
Q 33.109375 45.40625 28.21875 45.40625 
Q 24.515625 45.40625 21.359375 43.453125 
Q 18.21875 41.5 16.796875 37.734375 
Q 15.375 33.984375 15.375 26.90625 
L 15.375 0 
z
" id="ArialMT-6d"/>
      <path d="M 9.03125 41.84375 
L 9.03125 51.859375 
L 19.046875 51.859375 
L 19.046875 41.84375 
z
M 9.03125 0 
L 9.03125 10.015625 
L 19.046875 10.015625 
L 19.046875 0 
z
" id="ArialMT-3a"/>
      <path d="M 32.328125 0 
L 32.328125 17.140625 
L 1.265625 17.140625 
L 1.265625 25.203125 
L 33.9375 71.578125 
L 41.109375 71.578125 
L 41.109375 25.203125 
L 50.78125 25.203125 
L 50.78125 17.140625 
L 41.109375 17.140625 
L 41.109375 0 
z
M 32.328125 25.203125 
L 32.328125 57.46875 
L 9.90625 25.203125 
z
" id="ArialMT-34"/>
      <path d="M 9.078125 0 
L 9.078125 10.015625 
L 19.09375 10.015625 
L 19.09375 0 
z
" id="ArialMT-2e"/>
      <path d="M 4.203125 18.890625 
L 12.984375 20.0625 
Q 14.5 12.59375 18.140625 9.296875 
Q 21.78125 6 27 6 
Q 33.203125 6 37.46875 10.296875 
Q 41.75 14.59375 41.75 20.953125 
Q 41.75 27 37.796875 30.921875 
Q 33.84375 34.859375 27.734375 34.859375 
Q 25.25 34.859375 21.53125 33.890625 
L 22.515625 41.609375 
Q 23.390625 41.5 23.921875 41.5 
Q 29.546875 41.5 34.03125 44.421875 
Q 38.53125 47.359375 38.53125 53.46875 
Q 38.53125 58.296875 35.25 61.46875 
Q 31.984375 64.65625 26.8125 64.65625 
Q 21.6875 64.65625 18.265625 61.421875 
Q 14.84375 58.203125 13.875 51.765625 
L 5.078125 53.328125 
Q 6.6875 62.15625 12.390625 67.015625 
Q 18.109375 71.875 26.609375 71.875 
Q 32.46875 71.875 37.390625 69.359375 
Q 42.328125 66.84375 44.9375 62.5 
Q 47.5625 58.15625 47.5625 53.265625 
Q 47.5625 48.640625 45.0625 44.828125 
Q 42.578125 41.015625 37.703125 38.765625 
Q 44.046875 37.3125 47.5625 32.6875 
Q 51.078125 28.078125 51.078125 21.140625 
Q 51.078125 11.765625 44.234375 5.25 
Q 37.40625 -1.265625 26.953125 -1.265625 
Q 17.53125 -1.265625 11.296875 4.34375 
Q 5.078125 9.96875 4.203125 18.890625 
z
" id="ArialMT-33"/>
      <path d="M 49.75 54.046875 
L 41.015625 53.375 
Q 39.84375 58.546875 37.703125 60.890625 
Q 34.125 64.65625 28.90625 64.65625 
Q 24.703125 64.65625 21.53125 62.3125 
Q 17.390625 59.28125 14.984375 53.46875 
Q 12.59375 47.65625 12.5 36.921875 
Q 15.671875 41.75 20.265625 44.09375 
Q 24.859375 46.4375 29.890625 46.4375 
Q 38.671875 46.4375 44.84375 39.96875 
Q 51.03125 33.5 51.03125 23.25 
Q 51.03125 16.5 48.125 10.71875 
Q 45.21875 4.9375 40.140625 1.859375 
Q 35.0625 -1.21875 28.609375 -1.21875 
Q 17.625 -1.21875 10.6875 6.859375 
Q 3.765625 14.9375 3.765625 33.5 
Q 3.765625 54.25 11.421875 63.671875 
Q 18.109375 71.875 29.4375 71.875 
Q 37.890625 71.875 43.28125 67.140625 
Q 48.6875 62.40625 49.75 54.046875 
z
M 13.875 23.1875 
Q 13.875 18.65625 15.796875 14.5 
Q 17.71875 10.359375 21.1875 8.171875 
Q 24.65625 6 28.46875 6 
Q 34.03125 6 38.03125 10.484375 
Q 42.046875 14.984375 42.046875 22.703125 
Q 42.046875 30.125 38.078125 34.390625 
Q 34.125 38.671875 28.125 38.671875 
Q 22.171875 38.671875 18.015625 34.390625 
Q 13.875 30.125 13.875 23.1875 
z
" id="ArialMT-36"/>
     </defs>
     <g style="fill:#262626;" transform="translate(182.792812 341.999625)scale(0.1 -0.1)">
      <use xlink:href="#ArialMT-55"/>
      <use x="72.216797" xlink:href="#ArialMT-70"/>
      <use x="127.832031" xlink:href="#ArialMT-74"/>
      <use x="155.615234" xlink:href="#ArialMT-69"/>
      <use x="177.832031" xlink:href="#ArialMT-6d"/>
      <use x="261.132812" xlink:href="#ArialMT-65"/>
      <use x="316.748047" xlink:href="#ArialMT-3a"/>
      <use x="344.53125" xlink:href="#ArialMT-20"/>
      <use x="372.314453" xlink:href="#ArialMT-30"/>
      <use x="427.929688" xlink:href="#ArialMT-3a"/>
      <use x="455.712891" xlink:href="#ArialMT-31"/>
      <use x="511.328125" xlink:href="#ArialMT-32"/>
      <use x="566.943359" xlink:href="#ArialMT-3a"/>
      <use x="594.726562" xlink:href="#ArialMT-34"/>
      <use x="650.341797" xlink:href="#ArialMT-32"/>
      <use x="705.957031" xlink:href="#ArialMT-2e"/>
      <use x="733.740234" xlink:href="#ArialMT-33"/>
      <use x="789.355469" xlink:href="#ArialMT-32"/>
      <use x="844.970703" xlink:href="#ArialMT-33"/>
      <use x="900.585938" xlink:href="#ArialMT-36"/>
      <use x="956.201172" xlink:href="#ArialMT-30"/>
      <use x="1011.816406" xlink:href="#ArialMT-36"/>
     </g>
    </g>
   </g>
   <g id="matplotlib.axis_2">
    <g id="ytick_1">
     <g id="line2d_19">
      <path clip-path="url(#pe6fe7c2082)" d="M 57.6 295.488006 
L 414.72 295.488006 
" style="fill:none;stroke:#cccccc;stroke-linecap:round;stroke-width:0.8;"/>
     </g>
     <g id="line2d_20"/>
     <g id="text_11">
      <!-- 0.0 -->
      <g style="fill:#262626;" transform="translate(40.2 299.066913)scale(0.1 -0.1)">
       <use xlink:href="#ArialMT-30"/>
       <use x="55.615234" xlink:href="#ArialMT-2e"/>
       <use x="83.398438" xlink:href="#ArialMT-30"/>
      </g>
     </g>
    </g>
    <g id="ytick_2">
     <g id="line2d_21">
      <path clip-path="url(#pe6fe7c2082)" d="M 57.6 247.409176 
L 414.72 247.409176 
" style="fill:none;stroke:#cccccc;stroke-linecap:round;stroke-width:0.8;"/>
     </g>
     <g id="line2d_22"/>
     <g id="text_12">
      <!-- 0.2 -->
      <g style="fill:#262626;" transform="translate(40.2 250.988082)scale(0.1 -0.1)">
       <use xlink:href="#ArialMT-30"/>
       <use x="55.615234" xlink:href="#ArialMT-2e"/>
       <use x="83.398438" xlink:href="#ArialMT-32"/>
      </g>
     </g>
    </g>
    <g id="ytick_3">
     <g id="line2d_23">
      <path clip-path="url(#pe6fe7c2082)" d="M 57.6 199.330345 
L 414.72 199.330345 
" style="fill:none;stroke:#cccccc;stroke-linecap:round;stroke-width:0.8;"/>
     </g>
     <g id="line2d_24"/>
     <g id="text_13">
      <!-- 0.4 -->
      <g style="fill:#262626;" transform="translate(40.2 202.909251)scale(0.1 -0.1)">
       <use xlink:href="#ArialMT-30"/>
       <use x="55.615234" xlink:href="#ArialMT-2e"/>
       <use x="83.398438" xlink:href="#ArialMT-34"/>
      </g>
     </g>
    </g>
    <g id="ytick_4">
     <g id="line2d_25">
      <path clip-path="url(#pe6fe7c2082)" d="M 57.6 151.251515 
L 414.72 151.251515 
" style="fill:none;stroke:#cccccc;stroke-linecap:round;stroke-width:0.8;"/>
     </g>
     <g id="line2d_26"/>
     <g id="text_14">
      <!-- 0.6 -->
      <g style="fill:#262626;" transform="translate(40.2 154.830421)scale(0.1 -0.1)">
       <use xlink:href="#ArialMT-30"/>
       <use x="55.615234" xlink:href="#ArialMT-2e"/>
       <use x="83.398438" xlink:href="#ArialMT-36"/>
      </g>
     </g>
    </g>
    <g id="ytick_5">
     <g id="line2d_27">
      <path clip-path="url(#pe6fe7c2082)" d="M 57.6 103.172684 
L 414.72 103.172684 
" style="fill:none;stroke:#cccccc;stroke-linecap:round;stroke-width:0.8;"/>
     </g>
     <g id="line2d_28"/>
     <g id="text_15">
      <!-- 0.8 -->
      <defs>
       <path d="M 17.671875 38.8125 
Q 12.203125 40.828125 9.5625 44.53125 
Q 6.9375 48.25 6.9375 53.421875 
Q 6.9375 61.234375 12.546875 66.546875 
Q 18.171875 71.875 27.484375 71.875 
Q 36.859375 71.875 42.578125 66.421875 
Q 48.296875 60.984375 48.296875 53.171875 
Q 48.296875 48.1875 45.671875 44.5 
Q 43.0625 40.828125 37.75 38.8125 
Q 44.34375 36.671875 47.78125 31.875 
Q 51.21875 27.09375 51.21875 20.453125 
Q 51.21875 11.28125 44.71875 5.03125 
Q 38.234375 -1.21875 27.640625 -1.21875 
Q 17.046875 -1.21875 10.546875 5.046875 
Q 4.046875 11.328125 4.046875 20.703125 
Q 4.046875 27.6875 7.59375 32.390625 
Q 11.140625 37.109375 17.671875 38.8125 
z
M 15.921875 53.71875 
Q 15.921875 48.640625 19.1875 45.40625 
Q 22.46875 42.1875 27.6875 42.1875 
Q 32.765625 42.1875 36.015625 45.375 
Q 39.265625 48.578125 39.265625 53.21875 
Q 39.265625 58.0625 35.90625 61.359375 
Q 32.5625 64.65625 27.59375 64.65625 
Q 22.5625 64.65625 19.234375 61.421875 
Q 15.921875 58.203125 15.921875 53.71875 
z
M 13.09375 20.65625 
Q 13.09375 16.890625 14.875 13.375 
Q 16.65625 9.859375 20.171875 7.921875 
Q 23.6875 6 27.734375 6 
Q 34.03125 6 38.125 10.046875 
Q 42.234375 14.109375 42.234375 20.359375 
Q 42.234375 26.703125 38.015625 30.859375 
Q 33.796875 35.015625 27.4375 35.015625 
Q 21.234375 35.015625 17.15625 30.90625 
Q 13.09375 26.8125 13.09375 20.65625 
z
" id="ArialMT-38"/>
      </defs>
      <g style="fill:#262626;" transform="translate(40.2 106.75159)scale(0.1 -0.1)">
       <use xlink:href="#ArialMT-30"/>
       <use x="55.615234" xlink:href="#ArialMT-2e"/>
       <use x="83.398438" xlink:href="#ArialMT-38"/>
      </g>
     </g>
    </g>
    <g id="ytick_6">
     <g id="line2d_29">
      <path clip-path="url(#pe6fe7c2082)" d="M 57.6 55.093853 
L 414.72 55.093853 
" style="fill:none;stroke:#cccccc;stroke-linecap:round;stroke-width:0.8;"/>
     </g>
     <g id="line2d_30"/>
     <g id="text_16">
      <!-- 1.0 -->
      <g style="fill:#262626;" transform="translate(40.2 58.67276)scale(0.1 -0.1)">
       <use xlink:href="#ArialMT-31"/>
       <use x="55.615234" xlink:href="#ArialMT-2e"/>
       <use x="83.398438" xlink:href="#ArialMT-30"/>
      </g>
     </g>
    </g>
    <g id="text_17">
     <!-- decryption errors -->
     <defs>
      <path d="M 40.234375 0 
L 40.234375 6.546875 
Q 35.296875 -1.171875 25.734375 -1.171875 
Q 19.53125 -1.171875 14.328125 2.25 
Q 9.125 5.671875 6.265625 11.796875 
Q 3.421875 17.921875 3.421875 25.875 
Q 3.421875 33.640625 6 39.96875 
Q 8.59375 46.296875 13.765625 49.65625 
Q 18.953125 53.03125 25.34375 53.03125 
Q 30.03125 53.03125 33.6875 51.046875 
Q 37.359375 49.078125 39.65625 45.90625 
L 39.65625 71.578125 
L 48.390625 71.578125 
L 48.390625 0 
z
M 12.453125 25.875 
Q 12.453125 15.921875 16.640625 10.984375 
Q 20.84375 6.0625 26.5625 6.0625 
Q 32.328125 6.0625 36.34375 10.765625 
Q 40.375 15.484375 40.375 25.140625 
Q 40.375 35.796875 36.265625 40.765625 
Q 32.171875 45.75 26.171875 45.75 
Q 20.3125 45.75 16.375 40.96875 
Q 12.453125 36.1875 12.453125 25.875 
z
" id="ArialMT-64"/>
      <path d="M 40.4375 19 
L 49.078125 17.875 
Q 47.65625 8.9375 41.8125 3.875 
Q 35.984375 -1.171875 27.484375 -1.171875 
Q 16.84375 -1.171875 10.375 5.78125 
Q 3.90625 12.75 3.90625 25.734375 
Q 3.90625 34.125 6.6875 40.421875 
Q 9.46875 46.734375 15.15625 49.875 
Q 20.84375 53.03125 27.546875 53.03125 
Q 35.984375 53.03125 41.359375 48.75 
Q 46.734375 44.484375 48.25 36.625 
L 39.703125 35.296875 
Q 38.484375 40.53125 35.375 43.15625 
Q 32.28125 45.796875 27.875 45.796875 
Q 21.234375 45.796875 17.078125 41.03125 
Q 12.9375 36.28125 12.9375 25.984375 
Q 12.9375 15.53125 16.9375 10.796875 
Q 20.953125 6.0625 27.390625 6.0625 
Q 32.5625 6.0625 36.03125 9.234375 
Q 39.5 12.40625 40.4375 19 
z
" id="ArialMT-63"/>
      <path d="M 6.203125 -19.96875 
L 5.21875 -11.71875 
Q 8.109375 -12.5 10.25 -12.5 
Q 13.1875 -12.5 14.9375 -11.515625 
Q 16.703125 -10.546875 17.828125 -8.796875 
Q 18.65625 -7.46875 20.515625 -2.25 
Q 20.75 -1.515625 21.296875 -0.09375 
L 1.609375 51.859375 
L 11.078125 51.859375 
L 21.875 21.828125 
Q 23.96875 16.109375 25.640625 9.8125 
Q 27.15625 15.875 29.25 21.625 
L 40.328125 51.859375 
L 49.125 51.859375 
L 29.390625 -0.875 
Q 26.21875 -9.421875 24.46875 -12.640625 
Q 22.125 -17 19.09375 -19.015625 
Q 16.0625 -21.046875 11.859375 -21.046875 
Q 9.328125 -21.046875 6.203125 -19.96875 
z
" id="ArialMT-79"/>
     </defs>
     <g style="fill:#262626;" transform="translate(34.095312 212.039719)rotate(-90)scale(0.1 -0.1)">
      <use xlink:href="#ArialMT-64"/>
      <use x="55.615234" xlink:href="#ArialMT-65"/>
      <use x="111.230469" xlink:href="#ArialMT-63"/>
      <use x="161.230469" xlink:href="#ArialMT-72"/>
      <use x="194.53125" xlink:href="#ArialMT-79"/>
      <use x="244.53125" xlink:href="#ArialMT-70"/>
      <use x="300.146484" xlink:href="#ArialMT-74"/>
      <use x="327.929688" xlink:href="#ArialMT-69"/>
      <use x="350.146484" xlink:href="#ArialMT-6f"/>
      <use x="405.761719" xlink:href="#ArialMT-6e"/>
      <use x="461.376953" xlink:href="#ArialMT-20"/>
      <use x="489.160156" xlink:href="#ArialMT-65"/>
      <use x="544.775391" xlink:href="#ArialMT-72"/>
      <use x="578.076172" xlink:href="#ArialMT-72"/>
      <use x="611.376953" xlink:href="#ArialMT-6f"/>
      <use x="666.992188" xlink:href="#ArialMT-72"/>
      <use x="700.292969" xlink:href="#ArialMT-73"/>
     </g>
    </g>
   </g>
   <g id="line2d_31">
    <path clip-path="url(#pe6fe7c2082)" d="M 73.832727 55.095587 
L 74.254799 55.397964 
L 74.920374 56.355731 
L 75.261279 57.44247 
L 76.348926 61.458564 
L 76.884633 62.430201 
L 77.420339 62.970533 
L 79.433298 64.309527 
L 80.001472 64.677844 
L 80.602113 65.046849 
L 81.348856 65.232863 
L 82.939743 65.346273 
L 87.890972 65.405565 
L 106.283572 65.421599 
L 106.397206 56.620051 
L 108.832237 56.71333 
L 109.205609 57.766769 
L 109.286776 58.097631 
L 109.481579 58.840985 
L 110.455591 59.025323 
L 110.682861 59.776801 
L 111.527005 59.78547 
L 138.75065 59.788808 
L 138.864284 54.860039 
L 141.41295 54.952115 
L 141.477884 55.294812 
L 141.737621 57.938569 
L 141.91619 58.376194 
L 145.000562 58.379862 
L 148.718042 58.473743 
L 148.831677 59.207138 
L 148.961546 59.643846 
L 158.441932 59.671185 
L 171.217727 59.6715 
L 171.331362 58.908731 
L 196.006341 58.969513 
L 196.087509 59.363793 
L 196.477114 60.720641 
L 197.093989 61.009505 
L 201.41211 61.020524 
L 203.684805 61.02094 
L 203.79844 56.093131 
L 204.886087 56.185636 
L 204.999722 56.637632 
L 205.226992 57.967628 
L 211.671706 58.000698 
L 211.720407 58.107719 
L 211.785341 59.244135 
L 211.91521 60.197159 
L 212.223647 60.535157 
L 214.950881 60.551807 
L 227.288371 60.656276 
L 227.450706 60.948996 
L 227.74291 61.574712 
L 228.52212 61.763735 
L 230.113007 61.825032 
L 236.151883 61.840393 
L 236.265518 55.210976 
L 254.382147 55.321463 
L 254.917854 55.37468 
L 255.112657 56.032363 
L 256.768478 56.11021 
L 256.800945 56.506511 
L 256.930813 58.302315 
L 257.060681 58.371952 
L 258.830137 58.38012 
L 268.618961 58.380378 
L 268.732596 57.440478 
L 277.401306 57.549519 
L 277.596108 58.495981 
L 298.878278 58.497643 
L 301.086039 58.497672 
L 301.199674 54.683081 
L 307.23855 54.734521 
L 307.579455 55.622092 
L 311.783941 55.737967 
L 311.832642 56.157094 
L 311.897576 57.048046 
L 311.96251 56.971302 
L 311.978744 56.940754 
L 312.043678 57.049221 
L 312.384582 57.433916 
L 312.693019 59.377706 
L 333.553117 59.378165 
L 333.666752 53.568 
L 341.361449 53.66489 
L 341.41015 54.773867 
L 341.653653 58.495193 
L 342.822468 58.497184 
L 366.020195 58.497786 
L 366.13383 59.847598 
L 398.487273 59.847713 
L 398.487273 59.847713 
" style="fill:none;stroke:#1f77b4;stroke-linecap:round;stroke-width:1.5;"/>
   </g>
   <g id="line2d_32">
    <path clip-path="url(#pe6fe7c2082)" d="M 73.832727 55.140737 
L 74.498302 55.384122 
L 74.790506 55.736248 
L 75.001542 56.346403 
L 75.245045 57.802577 
L 75.537249 61.137775 
L 75.86192 67.829751 
L 76.608662 90.188283 
L 77.355405 108.06229 
L 78.621621 136.864211 
L 79.352131 158.79949 
L 81.68976 237.538595 
L 82.566371 255.061297 
L 83.572851 269.914237 
L 84.30336 277.370599 
L 84.904001 281.956584 
L 85.845546 287.15834 
L 86.348786 288.674359 
L 87.160463 290.310952 
L 88.491613 291.839683 
L 88.702649 292.099427 
L 89.546793 293.57592 
L 89.725362 293.968697 
L 90.244835 294.328165 
L 91.933123 294.845273 
L 94.481789 295.017897 
L 96.900586 295.23746 
L 97.209023 295.261969 
L 106.283572 295.426434 
L 106.299805 292.025351 
L 106.397206 294.624701 
L 106.851745 295.330969 
L 107.663422 295.393415 
L 114.043203 295.445712 
L 138.75065 295.478258 
L 138.766883 294.936478 
L 138.864284 295.377883 
L 139.221422 295.45894 
L 141.13698 295.476575 
L 171.217727 295.485471 
L 171.233961 295.323835 
L 171.331362 295.456836 
L 171.493698 295.476892 
L 178.279317 295.485919 
L 236.168117 295.459661 
L 236.18435 295.33465 
L 236.200584 295.413215 
L 236.265518 282.649346 
L 236.233051 295.486212 
L 236.297985 295.481478 
L 236.330452 295.413875 
L 236.362919 293.424331 
L 236.427853 295.464975 
L 237.142129 295.484659 
L 265.323553 295.487745 
L 268.618961 295.48778 
L 268.635195 295.286707 
L 268.716362 295.479732 
L 269.30077 295.487365 
L 333.553117 295.487987 
L 333.56935 295.40673 
L 333.650518 295.484997 
L 334.689465 295.487921 
L 398.487273 295.488 
L 398.487273 295.488 
" style="fill:none;stroke:#ff7f0e;stroke-linecap:round;stroke-width:1.5;"/>
   </g>
   <g id="line2d_33">
    <path clip-path="url(#pe6fe7c2082)" d="M 73.832727 55.094942 
L 75.050243 55.231809 
L 75.732051 55.653386 
L 76.154123 56.125513 
L 76.770998 57.237442 
L 77.809944 59.270356 
L 78.378118 59.807134 
L 79.660568 60.885405 
L 80.115107 61.579698 
L 80.520945 61.848388 
L 81.933263 62.409611 
L 84.676731 62.835343 
L 89.725362 63.161032 
L 105.520595 63.189388 
L 106.283572 63.189603 
L 106.332272 56.402227 
L 106.397206 56.402514 
L 107.955626 56.520983 
L 108.101728 56.743191 
L 108.328998 57.894423 
L 108.621201 58.813317 
L 110.277022 58.844653 
L 111.754274 58.945097 
L 112.127646 59.186706 
L 120.731421 59.319016 
L 128.945592 59.42148 
L 129.059227 59.733056 
L 129.448832 60.937203 
L 130.163107 60.960272 
L 131.41309 61.059584 
L 131.656593 61.530493 
L 132.630605 61.546828 
L 134.708498 61.654235 
L 134.870834 62.082661 
L 135.033169 63.320108 
L 135.227972 68.48388 
L 135.520175 76.463654 
L 135.714978 77.168464 
L 136.088349 77.23621 
L 138.75065 77.387706 
L 138.766883 69.000169 
L 138.864284 69.001544 
L 139.140254 69.112176 
L 139.464925 69.290294 
L 139.692195 69.425299 
L 139.951931 70.821836 
L 140.227902 73.208882 
L 140.877243 73.226707 
L 148.377138 73.325517 
L 148.442072 73.779046 
L 148.604408 74.705849 
L 148.636875 74.760155 
L 148.685575 76.113377 
L 148.75051 76.742374 
L 148.815444 76.719592 
L 149.058947 76.748421 
L 155.877033 76.934191 
L 156.169237 77.518197 
L 156.380273 77.656224 
L 156.753644 78.503303 
L 157.484153 78.635513 
L 157.808824 79.615117 
L 159.35101 79.624903 
L 171.217727 79.626021 
L 171.233961 64.83937 
L 171.331362 64.8398 
L 171.899536 64.948282 
L 172.337842 65.868981 
L 172.532644 66.402077 
L 182.045498 66.647841 
L 182.1916 66.714441 
L 182.629905 66.807419 
L 182.776007 66.948656 
L 203.684805 66.949086 
L 203.79844 72.876817 
L 216.022295 72.970683 
L 216.265798 73.463545 
L 232.515571 73.557469 
L 232.645439 73.816587 
L 232.888942 73.923221 
L 232.953876 74.386035 
L 233.148679 76.01312 
L 233.716852 76.161005 
L 235.794745 76.258755 
L 236.005781 77.550121 
L 236.13565 80.568113 
L 236.151883 80.434728 
L 236.168117 74.684715 
L 236.265518 76.84319 
L 236.492788 82.333111 
L 236.638889 83.109148 
L 236.720057 83.090463 
L 237.547968 84.073635 
L 237.888872 84.28653 
L 237.905105 84.232482 
L 237.937573 84.112724 
L 237.953806 84.326277 
L 237.986273 84.221249 
L 238.099908 84.429372 
L 238.132375 84.353946 
L 238.197309 84.466855 
L 238.213543 84.415831 
L 238.375878 84.528597 
L 240.258969 84.886726 
L 242.921269 84.982728 
L 254.690585 85.079547 
L 268.618961 85.082928 
L 268.683895 77.439776 
L 268.732596 77.76025 
L 268.927398 79.640708 
L 268.943632 79.152016 
L 268.976099 79.8005 
L 269.0248 79.652629 
L 269.041033 79.58709 
L 269.0735 79.803395 
L 269.089734 79.788436 
L 269.105967 79.815087 
L 269.170901 80.202332 
L 269.235836 80.195196 
L 269.495572 80.603175 
L 269.511806 80.517762 
L 269.528039 80.049302 
L 269.544273 80.52719 
L 269.609207 80.363099 
L 269.690375 80.704492 
L 269.739075 80.66976 
L 269.917644 80.805953 
L 269.982578 80.607201 
L 270.031279 80.655317 
L 270.096213 80.865087 
L 270.144914 80.835112 
L 270.209848 80.75576 
L 270.258549 80.802557 
L 270.388417 80.887984 
L 270.518285 80.887153 
L 270.680621 80.929638 
L 270.875423 82.333383 
L 270.90789 82.236421 
L 270.940357 82.396586 
L 270.989058 82.331692 
L 271.118926 82.431348 
L 271.329962 82.500655 
L 271.605932 82.538397 
L 272.303974 82.625959 
L 274.982508 82.661608 
L 298.862044 82.676997 
L 301.086039 82.67714 
L 301.102273 77.844631 
L 301.199674 78.538236 
L 301.313309 79.231196 
L 301.362009 79.146027 
L 301.378243 79.247015 
L 301.394476 78.779673 
L 301.41071 78.67933 
L 301.540578 79.888879 
L 301.621746 79.312339 
L 301.637979 79.763117 
L 301.670446 79.555582 
L 301.800315 80.328596 
L 301.849015 80.279506 
L 301.930183 80.478903 
L 301.978884 80.344443 
L 301.995117 80.362354 
L 302.027584 80.60551 
L 302.060051 80.014398 
L 302.076285 80.357196 
L 302.092518 80.063015 
L 302.124986 80.424411 
L 302.173686 80.126906 
L 302.287321 80.568628 
L 302.352255 80.01841 
L 302.384722 80.623708 
L 302.400956 80.282028 
L 302.51459 80.697156 
L 302.530824 80.665633 
L 302.547058 80.739827 
L 302.579525 80.529655 
L 302.628225 80.631846 
L 302.644459 80.543267 
L 302.693159 80.674689 
L 302.725626 80.638853 
L 302.887962 80.860015 
L 302.904195 80.692743 
L 302.952896 80.88648 
L 302.985363 80.856347 
L 303.147698 80.931314 
L 303.310034 80.966878 
L 333.553117 80.975733 
L 333.56935 78.230257 
L 333.666752 79.257675 
L 333.79662 77.097122 
L 333.812854 77.356613 
L 333.926488 79.412596 
L 333.942722 79.074527 
L 333.975189 79.533043 
L 333.991422 78.99102 
L 334.056357 79.478107 
L 334.218692 79.993822 
L 334.234926 79.750694 
L 334.283626 78.872608 
L 334.332327 80.147281 
L 334.34856 79.813511 
L 334.381027 80.235646 
L 334.429728 80.194852 
L 334.494662 80.561579 
L 334.705698 81.154368 
L 334.721932 80.880046 
L 334.803099 81.313515 
L 334.884267 80.990864 
L 334.916734 81.122701 
L 335.014135 81.475343 
L 334.965435 80.837877 
L 335.062836 81.451185 
L 335.111537 81.448118 
L 335.208938 81.72787 
L 335.241405 81.612697 
L 335.322573 81.470528 
L 335.452441 81.779496 
L 335.517375 81.925204 
L 335.533609 81.679038 
L 335.549842 81.920461 
L 335.647243 81.468852 
L 335.663477 81.77845 
L 335.679711 81.66471 
L 335.744645 81.941309 
L 335.760878 81.878535 
L 335.825812 81.728271 
L 335.874513 82.045707 
L 335.890747 81.850781 
L 335.955681 82.087232 
L 335.971914 82.086745 
L 336.118016 82.202462 
L 336.13425 82.242468 
L 336.150483 82.193005 
L 336.215417 82.26035 
L 336.247884 81.87064 
L 336.312819 82.274206 
L 336.345286 81.973634 
L 336.393986 81.851268 
L 336.41022 82.232997 
L 336.442687 82.021034 
L 336.507621 82.24029 
L 336.523855 82.010531 
L 336.540088 82.210873 
L 336.556322 81.881072 
L 336.572555 82.213323 
L 336.637489 82.164936 
L 336.799825 82.331893 
L 336.945927 82.347754 
L 337.4654 82.371669 
L 353.130765 82.441292 
L 366.020195 82.44261 
L 366.036428 78.608847 
L 366.13383 79.427985 
L 366.150063 79.104159 
L 366.214997 79.734718 
L 366.231231 79.897104 
L 366.263698 79.2372 
L 366.279931 78.782095 
L 366.328632 80.177414 
L 366.344866 80.277815 
L 366.377333 79.883721 
L 366.393566 80.155649 
L 366.442267 78.068372 
L 366.507201 79.656412 
L 366.669536 81.64081 
L 366.68577 81.687234 
L 366.734471 80.874702 
L 366.783171 81.756155 
L 367.010441 82.645216 
L 367.059141 82.527034 
L 367.075375 82.28819 
L 367.140309 82.96473 
L 367.18901 82.861148 
L 367.318878 83.338864 
L 367.351345 83.420222 
L 367.481213 83.692953 
L 367.51368 83.386034 
L 367.594848 83.569784 
L 367.74095 83.840537 
L 367.757183 83.760885 
L 367.773417 83.864466 
L 367.822118 83.872548 
L 367.951986 84.112666 
L 367.96822 84.049019 
L 368.033154 83.775242 
L 368.049387 84.064465 
L 368.065621 83.889455 
L 368.179256 84.211548 
L 368.195489 84.168218 
L 368.309124 84.237454 
L 368.552627 84.318368 
L 368.633795 84.372387 
L 368.650028 84.294582 
L 368.666262 83.868048 
L 368.763663 84.11685 
L 368.79613 84.051899 
L 368.877298 84.286329 
L 368.893531 84.09563 
L 368.909765 84.386371 
L 368.974699 84.378921 
L 369.104567 84.52202 
L 369.137034 84.508666 
L 372.286341 84.845045 
L 372.302574 84.013255 
L 372.399976 84.589995 
L 372.448676 84.410845 
L 372.546077 84.91557 
L 372.594778 84.536277 
L 372.659712 84.769576 
L 372.675946 84.752338 
L 372.692179 84.826403 
L 372.708413 84.810699 
L 372.870748 85.103834 
L 372.886982 84.852066 
L 372.968149 85.09323 
L 373.130485 85.191668 
L 373.24412 85.211929 
L 373.552557 85.264801 
L 374.721372 85.395879 
L 374.786306 84.625014 
L 374.85124 84.991196 
L 374.867474 84.945703 
L 374.899941 85.016486 
L 374.916174 84.969173 
L 375.062276 85.48357 
L 375.07851 85.452363 
L 375.257078 85.514291 
L 375.40318 85.558351 
L 375.549282 85.579515 
L 375.776552 85.707197 
L 375.873953 85.465602 
L 375.890187 85.561719 
L 376.003821 85.728933 
L 376.020055 85.717757 
L 376.13369 85.734636 
L 376.425893 85.763924 
L 376.555762 84.94182 
L 376.669396 85.748936 
L 376.68563 85.745612 
L 376.701863 85.704446 
L 376.783031 85.798699 
L 376.896666 85.832314 
L 377.042768 85.891506 
L 377.919379 85.965098 
L 380.273242 86.066 
L 386.45822 86.102251 
L 386.474454 85.963149 
L 386.555622 84.524327 
L 386.588089 84.829097 
L 386.636789 84.514297 
L 386.653023 84.445176 
L 386.766658 85.320855 
L 386.782891 85.188286 
L 386.847825 85.635597 
L 386.912759 85.469657 
L 386.945227 85.230627 
L 387.010161 85.53607 
L 387.026394 85.471448 
L 387.058861 85.590347 
L 387.123795 85.880974 
L 387.172496 85.749624 
L 387.415999 86.028659 
L 387.432233 85.680402 
L 387.5134 85.781319 
L 387.627035 86.12307 
L 387.643269 86.053161 
L 387.708203 85.618231 
L 387.756903 85.79218 
L 387.773137 85.880057 
L 387.789371 85.521899 
L 387.838071 85.734908 
L 387.903005 85.216227 
L 387.967939 85.596021 
L 388.097808 86.12681 
L 388.178975 85.952632 
L 388.146508 86.137571 
L 388.227676 86.024633 
L 388.357544 86.249922 
L 388.471179 86.292162 
L 388.503646 86.328084 
L 388.51988 86.115491 
L 388.584814 86.389654 
L 388.601048 86.317567 
L 388.649748 86.213957 
L 388.665982 86.3953 
L 388.698449 86.494626 
L 388.779616 85.546716 
L 388.877018 86.372832 
L 388.893251 86.247887 
L 388.909485 86.238473 
L 388.925718 86.299642 
L 388.990652 86.601087 
L 388.974419 86.271945 
L 389.02312 86.426192 
L 389.07182 86.165512 
L 389.120521 86.422897 
L 389.136754 86.46359 
L 389.152988 86.378836 
L 389.201688 86.393709 
L 389.217922 86.355137 
L 389.266623 86.456282 
L 389.315323 86.547068 
L 389.331557 86.394311 
L 389.461425 85.912526 
L 389.591293 86.500586 
L 389.656228 85.887093 
L 389.721162 86.230807 
L 389.834796 86.64532 
L 389.85103 86.566355 
L 389.915964 86.52536 
L 389.948431 86.322997 
L 390.013365 86.675123 
L 390.029599 86.668303 
L 390.045832 86.722422 
L 390.0783 86.665809 
L 390.175701 86.835833 
L 390.305569 86.842209 
L 390.987378 86.900741 
L 392.318528 87.026403 
L 393.357474 87.28651 
L 393.438642 86.358346 
L 393.503576 86.585598 
L 393.51981 86.969361 
L 393.56851 86.222712 
L 393.617211 86.800169 
L 393.649678 87.149171 
L 393.682145 86.368133 
L 393.763313 86.893075 
L 393.79578 86.461856 
L 393.876948 86.804582 
L 393.893181 86.705285 
L 393.941882 86.986613 
L 393.974349 86.937824 
L 394.185385 87.429281 
L 394.201618 87.288316 
L 394.250319 87.499362 
L 394.29902 87.351906 
L 394.380187 87.591323 
L 394.363954 87.213649 
L 394.412654 87.531702 
L 395.500302 88.068423 
L 395.516535 88.036986 
L 395.565236 87.624966 
L 395.63017 87.957333 
L 395.792505 87.902569 
L 395.873673 88.115549 
L 395.824972 87.849797 
L 395.889906 87.980517 
L 395.90614 87.193661 
L 395.954841 88.041012 
L 395.987308 87.752692 
L 396.003541 87.96795 
L 396.052242 87.304908 
L 396.068475 87.099981 
L 396.084709 87.917542 
L 396.149643 87.369444 
L 396.279511 87.965314 
L 396.295745 87.887123 
L 396.376913 88.038676 
L 396.393146 87.865802 
L 396.40938 87.963623 
L 396.441847 87.892782 
L 396.474314 88.045611 
L 396.490547 87.958694 
L 396.571715 88.177435 
L 396.620416 88.135738 
L 396.68535 88.009618 
L 396.669116 88.168522 
L 396.717817 88.160527 
L 396.847685 88.140467 
L 396.993787 88.188912 
L 397.18859 88.188912 
L 398.097668 88.193067 
L 398.487273 88.193239 
L 398.487273 88.193239 
" style="fill:none;stroke:#2ca02c;stroke-linecap:round;stroke-width:1.5;"/>
   </g>
   <g id="patch_3">
    <path d="M 57.6 307.584 
L 57.6 41.472 
" style="fill:none;stroke:#cccccc;stroke-linecap:square;stroke-linejoin:miter;"/>
   </g>
   <g id="patch_4">
    <path d="M 414.72 307.584 
L 414.72 41.472 
" style="fill:none;stroke:#cccccc;stroke-linecap:square;stroke-linejoin:miter;"/>
   </g>
   <g id="patch_5">
    <path d="M 57.6 307.584 
L 414.72 307.584 
" style="fill:none;stroke:#cccccc;stroke-linecap:square;stroke-linejoin:miter;"/>
   </g>
   <g id="patch_6">
    <path d="M 57.6 41.472 
L 414.72 41.472 
" style="fill:none;stroke:#cccccc;stroke-linecap:square;stroke-linejoin:miter;"/>
   </g>
   <g id="legend_1">
    <g id="line2d_34">
     <path d="M 358.815313 159.467844 
L 378.815313 159.467844 
" style="fill:none;stroke:#1f77b4;stroke-linecap:round;stroke-width:1.5;"/>
    </g>
    <g id="line2d_35"/>
    <g id="text_18">
     <!-- eve -->
     <defs>
      <path d="M 21 0 
L 1.265625 51.859375 
L 10.546875 51.859375 
L 21.6875 20.796875 
Q 23.484375 15.765625 25 10.359375 
Q 26.171875 14.453125 28.265625 20.21875 
L 39.796875 51.859375 
L 48.828125 51.859375 
L 29.203125 0 
z
" id="ArialMT-76"/>
     </defs>
     <g style="fill:#262626;" transform="translate(386.815313 162.967844)scale(0.1 -0.1)">
      <use xlink:href="#ArialMT-65"/>
      <use x="55.615234" xlink:href="#ArialMT-76"/>
      <use x="105.615234" xlink:href="#ArialMT-65"/>
     </g>
    </g>
    <g id="line2d_36">
     <path d="M 358.815313 173.613156 
L 378.815313 173.613156 
" style="fill:none;stroke:#ff7f0e;stroke-linecap:round;stroke-width:1.5;"/>
    </g>
    <g id="line2d_37"/>
    <g id="text_19">
     <!-- bob -->
     <defs>
      <path d="M 14.703125 0 
L 6.546875 0 
L 6.546875 71.578125 
L 15.328125 71.578125 
L 15.328125 46.046875 
Q 20.90625 53.03125 29.546875 53.03125 
Q 34.328125 53.03125 38.59375 51.09375 
Q 42.875 49.171875 45.625 45.671875 
Q 48.390625 42.1875 49.953125 37.25 
Q 51.515625 32.328125 51.515625 26.703125 
Q 51.515625 13.375 44.921875 6.09375 
Q 38.328125 -1.171875 29.109375 -1.171875 
Q 19.921875 -1.171875 14.703125 6.5 
z
M 14.59375 26.3125 
Q 14.59375 17 17.140625 12.84375 
Q 21.296875 6.0625 28.375 6.0625 
Q 34.125 6.0625 38.328125 11.0625 
Q 42.53125 16.0625 42.53125 25.984375 
Q 42.53125 36.140625 38.5 40.96875 
Q 34.46875 45.796875 28.765625 45.796875 
Q 23 45.796875 18.796875 40.796875 
Q 14.59375 35.796875 14.59375 26.3125 
z
" id="ArialMT-62"/>
     </defs>
     <g style="fill:#262626;" transform="translate(386.815313 177.113156)scale(0.1 -0.1)">
      <use xlink:href="#ArialMT-62"/>
      <use x="55.615234" xlink:href="#ArialMT-6f"/>
      <use x="111.230469" xlink:href="#ArialMT-62"/>
     </g>
    </g>
    <g id="line2d_38">
     <path d="M 358.815313 187.758469 
L 378.815313 187.758469 
" style="fill:none;stroke:#2ca02c;stroke-linecap:round;stroke-width:1.5;"/>
    </g>
    <g id="line2d_39"/>
    <g id="text_20">
     <!-- alan -->
     <defs>
      <path d="M 6.390625 0 
L 6.390625 71.578125 
L 15.1875 71.578125 
L 15.1875 0 
z
" id="ArialMT-6c"/>
     </defs>
     <g style="fill:#262626;" transform="translate(386.815313 191.258469)scale(0.1 -0.1)">
      <use xlink:href="#ArialMT-61"/>
      <use x="55.615234" xlink:href="#ArialMT-6c"/>
      <use x="77.832031" xlink:href="#ArialMT-61"/>
      <use x="133.447266" xlink:href="#ArialMT-6e"/>
     </g>
    </g>
   </g>
  </g>
 </g>
 <defs>
  <clipPath id="pe6fe7c2082">
   <rect height="266.112" width="357.12" x="57.6" y="41.472"/>
  </clipPath>
 </defs>
</svg>
