<?xml version="1.0" encoding="utf-8" standalone="no"?>
<!DOCTYPE svg PUBLIC "-//W3C//DTD SVG 1.1//EN"
  "http://www.w3.org/Graphics/SVG/1.1/DTD/svg11.dtd">
<!-- Created with matplotlib (http://matplotlib.org/) -->
<svg height="345.6pt" version="1.1" viewBox="0 0 460.8 345.6" width="460.8pt" xmlns="http://www.w3.org/2000/svg" xmlns:xlink="http://www.w3.org/1999/xlink">
 <defs>
  <style type="text/css">
*{stroke-linecap:butt;stroke-linejoin:round;}
  </style>
 </defs>
 <g id="figure_1">
  <g id="patch_1">
   <path d="M 0 345.6 
L 460.8 345.6 
L 460.8 0 
L 0 0 
z
" style="fill:#ffffff;"/>
  </g>
  <g id="axes_1">
   <g id="patch_2">
    <path d="M 57.6 307.584 
L 414.72 307.584 
L 414.72 41.472 
L 57.6 41.472 
z
" style="fill:#ffffff;"/>
   </g>
   <g id="matplotlib.axis_1">
    <g id="xtick_1">
     <g id="line2d_1">
      <path clip-path="url(#p8196457485)" d="M 73.816494 307.584 
L 73.816494 41.472 
" style="fill:none;stroke:#cccccc;stroke-linecap:round;stroke-width:0.8;"/>
     </g>
     <g id="line2d_2"/>
     <g id="text_1">
      <!-- 0 -->
      <defs>
       <path d="M 4.15625 35.296875 
Q 4.15625 48 6.765625 55.734375 
Q 9.375 63.484375 14.515625 67.671875 
Q 19.671875 71.875 27.484375 71.875 
Q 33.25 71.875 37.59375 69.546875 
Q 41.9375 67.234375 44.765625 62.859375 
Q 47.609375 58.5 49.21875 52.21875 
Q 50.828125 45.953125 50.828125 35.296875 
Q 50.828125 22.703125 48.234375 14.96875 
Q 45.65625 7.234375 40.5 3 
Q 35.359375 -1.21875 27.484375 -1.21875 
Q 17.140625 -1.21875 11.234375 6.203125 
Q 4.15625 15.140625 4.15625 35.296875 
z
M 13.1875 35.296875 
Q 13.1875 17.671875 17.3125 11.828125 
Q 21.4375 6 27.484375 6 
Q 33.546875 6 37.671875 11.859375 
Q 41.796875 17.71875 41.796875 35.296875 
Q 41.796875 52.984375 37.671875 58.78125 
Q 33.546875 64.59375 27.390625 64.59375 
Q 21.34375 64.59375 17.71875 59.46875 
Q 13.1875 52.9375 13.1875 35.296875 
z
" id="ArialMT-30"/>
      </defs>
      <g style="fill:#262626;" transform="translate(71.036025 318.241812)scale(0.1 -0.1)">
       <use xlink:href="#ArialMT-30"/>
      </g>
     </g>
    </g>
    <g id="xtick_2">
     <g id="line2d_3">
      <path clip-path="url(#p8196457485)" d="M 114.400341 307.584 
L 114.400341 41.472 
" style="fill:none;stroke:#cccccc;stroke-linecap:round;stroke-width:0.8;"/>
     </g>
     <g id="line2d_4"/>
     <g id="text_2">
      <!-- 2500 -->
      <defs>
       <path d="M 50.34375 8.453125 
L 50.34375 0 
L 3.03125 0 
Q 2.9375 3.171875 4.046875 6.109375 
Q 5.859375 10.9375 9.828125 15.625 
Q 13.8125 20.3125 21.34375 26.46875 
Q 33.015625 36.03125 37.109375 41.625 
Q 41.21875 47.21875 41.21875 52.203125 
Q 41.21875 57.421875 37.46875 61 
Q 33.734375 64.59375 27.734375 64.59375 
Q 21.390625 64.59375 17.578125 60.78125 
Q 13.765625 56.984375 13.71875 50.25 
L 4.6875 51.171875 
Q 5.609375 61.28125 11.65625 66.578125 
Q 17.71875 71.875 27.9375 71.875 
Q 38.234375 71.875 44.234375 66.15625 
Q 50.25 60.453125 50.25 52 
Q 50.25 47.703125 48.484375 43.546875 
Q 46.734375 39.40625 42.65625 34.8125 
Q 38.578125 30.21875 29.109375 22.21875 
Q 21.1875 15.578125 18.9375 13.203125 
Q 16.703125 10.84375 15.234375 8.453125 
z
" id="ArialMT-32"/>
       <path d="M 4.15625 18.75 
L 13.375 19.53125 
Q 14.40625 12.796875 18.140625 9.390625 
Q 21.875 6 27.15625 6 
Q 33.5 6 37.890625 10.78125 
Q 42.28125 15.578125 42.28125 23.484375 
Q 42.28125 31 38.0625 35.34375 
Q 33.84375 39.703125 27 39.703125 
Q 22.75 39.703125 19.328125 37.765625 
Q 15.921875 35.84375 13.96875 32.765625 
L 5.71875 33.84375 
L 12.640625 70.609375 
L 48.25 70.609375 
L 48.25 62.203125 
L 19.671875 62.203125 
L 15.828125 42.96875 
Q 22.265625 47.46875 29.34375 47.46875 
Q 38.71875 47.46875 45.15625 40.96875 
Q 51.609375 34.46875 51.609375 24.265625 
Q 51.609375 14.546875 45.953125 7.46875 
Q 39.0625 -1.21875 27.15625 -1.21875 
Q 17.390625 -1.21875 11.203125 4.25 
Q 5.03125 9.71875 4.15625 18.75 
z
" id="ArialMT-35"/>
      </defs>
      <g style="fill:#262626;" transform="translate(103.278466 318.241812)scale(0.1 -0.1)">
       <use xlink:href="#ArialMT-32"/>
       <use x="55.615234" xlink:href="#ArialMT-35"/>
       <use x="111.230469" xlink:href="#ArialMT-30"/>
       <use x="166.845703" xlink:href="#ArialMT-30"/>
      </g>
     </g>
    </g>
    <g id="xtick_3">
     <g id="line2d_5">
      <path clip-path="url(#p8196457485)" d="M 154.984188 307.584 
L 154.984188 41.472 
" style="fill:none;stroke:#cccccc;stroke-linecap:round;stroke-width:0.8;"/>
     </g>
     <g id="line2d_6"/>
     <g id="text_3">
      <!-- 5000 -->
      <g style="fill:#262626;" transform="translate(143.862313 318.241812)scale(0.1 -0.1)">
       <use xlink:href="#ArialMT-35"/>
       <use x="55.615234" xlink:href="#ArialMT-30"/>
       <use x="111.230469" xlink:href="#ArialMT-30"/>
       <use x="166.845703" xlink:href="#ArialMT-30"/>
      </g>
     </g>
    </g>
    <g id="xtick_4">
     <g id="line2d_7">
      <path clip-path="url(#p8196457485)" d="M 195.568036 307.584 
L 195.568036 41.472 
" style="fill:none;stroke:#cccccc;stroke-linecap:round;stroke-width:0.8;"/>
     </g>
     <g id="line2d_8"/>
     <g id="text_4">
      <!-- 7500 -->
      <defs>
       <path d="M 4.734375 62.203125 
L 4.734375 70.65625 
L 51.078125 70.65625 
L 51.078125 63.8125 
Q 44.234375 56.546875 37.515625 44.484375 
Q 30.8125 32.421875 27.15625 19.671875 
Q 24.515625 10.6875 23.78125 0 
L 14.75 0 
Q 14.890625 8.453125 18.0625 20.40625 
Q 21.234375 32.375 27.171875 43.484375 
Q 33.109375 54.59375 39.796875 62.203125 
z
" id="ArialMT-37"/>
      </defs>
      <g style="fill:#262626;" transform="translate(184.446161 318.241812)scale(0.1 -0.1)">
       <use xlink:href="#ArialMT-37"/>
       <use x="55.615234" xlink:href="#ArialMT-35"/>
       <use x="111.230469" xlink:href="#ArialMT-30"/>
       <use x="166.845703" xlink:href="#ArialMT-30"/>
      </g>
     </g>
    </g>
    <g id="xtick_5">
     <g id="line2d_9">
      <path clip-path="url(#p8196457485)" d="M 236.151883 307.584 
L 236.151883 41.472 
" style="fill:none;stroke:#cccccc;stroke-linecap:round;stroke-width:0.8;"/>
     </g>
     <g id="line2d_10"/>
     <g id="text_5">
      <!-- 10000 -->
      <defs>
       <path d="M 37.25 0 
L 28.46875 0 
L 28.46875 56 
Q 25.296875 52.984375 20.140625 49.953125 
Q 14.984375 46.921875 10.890625 45.40625 
L 10.890625 53.90625 
Q 18.265625 57.375 23.78125 62.296875 
Q 29.296875 67.234375 31.59375 71.875 
L 37.25 71.875 
z
" id="ArialMT-31"/>
      </defs>
      <g style="fill:#262626;" transform="translate(222.249539 318.241812)scale(0.1 -0.1)">
       <use xlink:href="#ArialMT-31"/>
       <use x="55.615234" xlink:href="#ArialMT-30"/>
       <use x="111.230469" xlink:href="#ArialMT-30"/>
       <use x="166.845703" xlink:href="#ArialMT-30"/>
       <use x="222.460938" xlink:href="#ArialMT-30"/>
      </g>
     </g>
    </g>
    <g id="xtick_6">
     <g id="line2d_11">
      <path clip-path="url(#p8196457485)" d="M 276.735731 307.584 
L 276.735731 41.472 
" style="fill:none;stroke:#cccccc;stroke-linecap:round;stroke-width:0.8;"/>
     </g>
     <g id="line2d_12"/>
     <g id="text_6">
      <!-- 12500 -->
      <g style="fill:#262626;" transform="translate(262.833387 318.241812)scale(0.1 -0.1)">
       <use xlink:href="#ArialMT-31"/>
       <use x="55.615234" xlink:href="#ArialMT-32"/>
       <use x="111.230469" xlink:href="#ArialMT-35"/>
       <use x="166.845703" xlink:href="#ArialMT-30"/>
       <use x="222.460938" xlink:href="#ArialMT-30"/>
      </g>
     </g>
    </g>
    <g id="xtick_7">
     <g id="line2d_13">
      <path clip-path="url(#p8196457485)" d="M 317.319578 307.584 
L 317.319578 41.472 
" style="fill:none;stroke:#cccccc;stroke-linecap:round;stroke-width:0.8;"/>
     </g>
     <g id="line2d_14"/>
     <g id="text_7">
      <!-- 15000 -->
      <g style="fill:#262626;" transform="translate(303.417234 318.241812)scale(0.1 -0.1)">
       <use xlink:href="#ArialMT-31"/>
       <use x="55.615234" xlink:href="#ArialMT-35"/>
       <use x="111.230469" xlink:href="#ArialMT-30"/>
       <use x="166.845703" xlink:href="#ArialMT-30"/>
       <use x="222.460938" xlink:href="#ArialMT-30"/>
      </g>
     </g>
    </g>
    <g id="xtick_8">
     <g id="line2d_15">
      <path clip-path="url(#p8196457485)" d="M 357.903425 307.584 
L 357.903425 41.472 
" style="fill:none;stroke:#cccccc;stroke-linecap:round;stroke-width:0.8;"/>
     </g>
     <g id="line2d_16"/>
     <g id="text_8">
      <!-- 17500 -->
      <g style="fill:#262626;" transform="translate(344.001082 318.241812)scale(0.1 -0.1)">
       <use xlink:href="#ArialMT-31"/>
       <use x="55.615234" xlink:href="#ArialMT-37"/>
       <use x="111.230469" xlink:href="#ArialMT-35"/>
       <use x="166.845703" xlink:href="#ArialMT-30"/>
       <use x="222.460938" xlink:href="#ArialMT-30"/>
      </g>
     </g>
    </g>
    <g id="xtick_9">
     <g id="line2d_17">
      <path clip-path="url(#p8196457485)" d="M 398.487273 307.584 
L 398.487273 41.472 
" style="fill:none;stroke:#cccccc;stroke-linecap:round;stroke-width:0.8;"/>
     </g>
     <g id="line2d_18"/>
     <g id="text_9">
      <!-- 20000 -->
      <g style="fill:#262626;" transform="translate(384.584929 318.241812)scale(0.1 -0.1)">
       <use xlink:href="#ArialMT-32"/>
       <use x="55.615234" xlink:href="#ArialMT-30"/>
       <use x="111.230469" xlink:href="#ArialMT-30"/>
       <use x="166.845703" xlink:href="#ArialMT-30"/>
       <use x="222.460938" xlink:href="#ArialMT-30"/>
      </g>
     </g>
    </g>
    <g id="text_10">
     <!-- 20000 iterations -->
     <defs>
      <path id="ArialMT-20"/>
      <path d="M 6.640625 61.46875 
L 6.640625 71.578125 
L 15.4375 71.578125 
L 15.4375 61.46875 
z
M 6.640625 0 
L 6.640625 51.859375 
L 15.4375 51.859375 
L 15.4375 0 
z
" id="ArialMT-69"/>
      <path d="M 25.78125 7.859375 
L 27.046875 0.09375 
Q 23.34375 -0.6875 20.40625 -0.6875 
Q 15.625 -0.6875 12.984375 0.828125 
Q 10.359375 2.34375 9.28125 4.8125 
Q 8.203125 7.28125 8.203125 15.1875 
L 8.203125 45.015625 
L 1.765625 45.015625 
L 1.765625 51.859375 
L 8.203125 51.859375 
L 8.203125 64.703125 
L 16.9375 69.96875 
L 16.9375 51.859375 
L 25.78125 51.859375 
L 25.78125 45.015625 
L 16.9375 45.015625 
L 16.9375 14.703125 
Q 16.9375 10.9375 17.40625 9.859375 
Q 17.875 8.796875 18.921875 8.15625 
Q 19.96875 7.515625 21.921875 7.515625 
Q 23.390625 7.515625 25.78125 7.859375 
z
" id="ArialMT-74"/>
      <path d="M 42.09375 16.703125 
L 51.171875 15.578125 
Q 49.03125 7.625 43.21875 3.21875 
Q 37.40625 -1.171875 28.375 -1.171875 
Q 17 -1.171875 10.328125 5.828125 
Q 3.65625 12.84375 3.65625 25.484375 
Q 3.65625 38.578125 10.390625 45.796875 
Q 17.140625 53.03125 27.875 53.03125 
Q 38.28125 53.03125 44.875 45.953125 
Q 51.46875 38.875 51.46875 26.03125 
Q 51.46875 25.25 51.421875 23.6875 
L 12.75 23.6875 
Q 13.234375 15.140625 17.578125 10.59375 
Q 21.921875 6.0625 28.421875 6.0625 
Q 33.25 6.0625 36.671875 8.59375 
Q 40.09375 11.140625 42.09375 16.703125 
z
M 13.234375 30.90625 
L 42.1875 30.90625 
Q 41.609375 37.453125 38.875 40.71875 
Q 34.671875 45.796875 27.984375 45.796875 
Q 21.921875 45.796875 17.796875 41.75 
Q 13.671875 37.703125 13.234375 30.90625 
z
" id="ArialMT-65"/>
      <path d="M 6.5 0 
L 6.5 51.859375 
L 14.40625 51.859375 
L 14.40625 44 
Q 17.4375 49.515625 20 51.265625 
Q 22.5625 53.03125 25.640625 53.03125 
Q 30.078125 53.03125 34.671875 50.203125 
L 31.640625 42.046875 
Q 28.421875 43.953125 25.203125 43.953125 
Q 22.3125 43.953125 20.015625 42.21875 
Q 17.71875 40.484375 16.75 37.40625 
Q 15.28125 32.71875 15.28125 27.15625 
L 15.28125 0 
z
" id="ArialMT-72"/>
      <path d="M 40.4375 6.390625 
Q 35.546875 2.25 31.03125 0.53125 
Q 26.515625 -1.171875 21.34375 -1.171875 
Q 12.796875 -1.171875 8.203125 3 
Q 3.609375 7.171875 3.609375 13.671875 
Q 3.609375 17.484375 5.34375 20.625 
Q 7.078125 23.78125 9.890625 25.6875 
Q 12.703125 27.59375 16.21875 28.5625 
Q 18.796875 29.25 24.03125 29.890625 
Q 34.671875 31.15625 39.703125 32.90625 
Q 39.75 34.71875 39.75 35.203125 
Q 39.75 40.578125 37.25 42.78125 
Q 33.890625 45.75 27.25 45.75 
Q 21.046875 45.75 18.09375 43.578125 
Q 15.140625 41.40625 13.71875 35.890625 
L 5.125 37.0625 
Q 6.296875 42.578125 8.984375 45.96875 
Q 11.671875 49.359375 16.75 51.1875 
Q 21.828125 53.03125 28.515625 53.03125 
Q 35.15625 53.03125 39.296875 51.46875 
Q 43.453125 49.90625 45.40625 47.53125 
Q 47.359375 45.171875 48.140625 41.546875 
Q 48.578125 39.3125 48.578125 33.453125 
L 48.578125 21.734375 
Q 48.578125 9.46875 49.140625 6.21875 
Q 49.703125 2.984375 51.375 0 
L 42.1875 0 
Q 40.828125 2.734375 40.4375 6.390625 
z
M 39.703125 26.03125 
Q 34.90625 24.078125 25.34375 22.703125 
Q 19.921875 21.921875 17.671875 20.9375 
Q 15.4375 19.96875 14.203125 18.09375 
Q 12.984375 16.21875 12.984375 13.921875 
Q 12.984375 10.40625 15.640625 8.0625 
Q 18.3125 5.71875 23.4375 5.71875 
Q 28.515625 5.71875 32.46875 7.9375 
Q 36.421875 10.15625 38.28125 14.015625 
Q 39.703125 17 39.703125 22.796875 
z
" id="ArialMT-61"/>
      <path d="M 3.328125 25.921875 
Q 3.328125 40.328125 11.328125 47.265625 
Q 18.015625 53.03125 27.640625 53.03125 
Q 38.328125 53.03125 45.109375 46.015625 
Q 51.90625 39.015625 51.90625 26.65625 
Q 51.90625 16.65625 48.90625 10.90625 
Q 45.90625 5.171875 40.15625 2 
Q 34.421875 -1.171875 27.640625 -1.171875 
Q 16.75 -1.171875 10.03125 5.8125 
Q 3.328125 12.796875 3.328125 25.921875 
z
M 12.359375 25.921875 
Q 12.359375 15.96875 16.703125 11.015625 
Q 21.046875 6.0625 27.640625 6.0625 
Q 34.1875 6.0625 38.53125 11.03125 
Q 42.875 16.015625 42.875 26.21875 
Q 42.875 35.84375 38.5 40.796875 
Q 34.125 45.75 27.640625 45.75 
Q 21.046875 45.75 16.703125 40.8125 
Q 12.359375 35.890625 12.359375 25.921875 
z
" id="ArialMT-6f"/>
      <path d="M 6.59375 0 
L 6.59375 51.859375 
L 14.5 51.859375 
L 14.5 44.484375 
Q 20.21875 53.03125 31 53.03125 
Q 35.6875 53.03125 39.625 51.34375 
Q 43.5625 49.65625 45.515625 46.921875 
Q 47.46875 44.1875 48.25 40.4375 
Q 48.734375 37.984375 48.734375 31.890625 
L 48.734375 0 
L 39.9375 0 
L 39.9375 31.546875 
Q 39.9375 36.921875 38.90625 39.578125 
Q 37.890625 42.234375 35.28125 43.8125 
Q 32.671875 45.40625 29.15625 45.40625 
Q 23.53125 45.40625 19.453125 41.84375 
Q 15.375 38.28125 15.375 28.328125 
L 15.375 0 
z
" id="ArialMT-6e"/>
      <path d="M 3.078125 15.484375 
L 11.765625 16.84375 
Q 12.5 11.625 15.84375 8.84375 
Q 19.1875 6.0625 25.203125 6.0625 
Q 31.25 6.0625 34.171875 8.515625 
Q 37.109375 10.984375 37.109375 14.3125 
Q 37.109375 17.28125 34.515625 19 
Q 32.71875 20.171875 25.53125 21.96875 
Q 15.875 24.421875 12.140625 26.203125 
Q 8.40625 27.984375 6.46875 31.125 
Q 4.546875 34.28125 4.546875 38.09375 
Q 4.546875 41.546875 6.125 44.5 
Q 7.71875 47.46875 10.453125 49.421875 
Q 12.5 50.921875 16.03125 51.96875 
Q 19.578125 53.03125 23.640625 53.03125 
Q 29.734375 53.03125 34.34375 51.265625 
Q 38.96875 49.515625 41.15625 46.5 
Q 43.359375 43.5 44.1875 38.484375 
L 35.59375 37.3125 
Q 35.015625 41.3125 32.203125 43.546875 
Q 29.390625 45.796875 24.265625 45.796875 
Q 18.21875 45.796875 15.625 43.796875 
Q 13.03125 41.796875 13.03125 39.109375 
Q 13.03125 37.40625 14.109375 36.03125 
Q 15.1875 34.625 17.484375 33.6875 
Q 18.796875 33.203125 25.25 31.453125 
Q 34.578125 28.953125 38.25 27.359375 
Q 41.9375 25.78125 44.03125 22.75 
Q 46.140625 19.734375 46.140625 15.234375 
Q 46.140625 10.84375 43.578125 6.953125 
Q 41.015625 3.078125 36.171875 0.953125 
Q 31.34375 -1.171875 25.25 -1.171875 
Q 15.140625 -1.171875 9.84375 3.03125 
Q 4.546875 7.234375 3.078125 15.484375 
z
" id="ArialMT-73"/>
     </defs>
     <g style="fill:#262626;" transform="translate(200.581875 331.387125)scale(0.1 -0.1)">
      <use xlink:href="#ArialMT-32"/>
      <use x="55.615234" xlink:href="#ArialMT-30"/>
      <use x="111.230469" xlink:href="#ArialMT-30"/>
      <use x="166.845703" xlink:href="#ArialMT-30"/>
      <use x="222.460938" xlink:href="#ArialMT-30"/>
      <use x="278.076172" xlink:href="#ArialMT-20"/>
      <use x="305.859375" xlink:href="#ArialMT-69"/>
      <use x="328.076172" xlink:href="#ArialMT-74"/>
      <use x="355.859375" xlink:href="#ArialMT-65"/>
      <use x="411.474609" xlink:href="#ArialMT-72"/>
      <use x="444.775391" xlink:href="#ArialMT-61"/>
      <use x="500.390625" xlink:href="#ArialMT-74"/>
      <use x="528.173828" xlink:href="#ArialMT-69"/>
      <use x="550.390625" xlink:href="#ArialMT-6f"/>
      <use x="606.005859" xlink:href="#ArialMT-6e"/>
      <use x="661.621094" xlink:href="#ArialMT-73"/>
     </g>
     <!-- Uptime: 0:09:15.746414 -->
     <defs>
      <path d="M 54.6875 71.578125 
L 64.15625 71.578125 
L 64.15625 30.21875 
Q 64.15625 19.4375 61.71875 13.078125 
Q 59.28125 6.734375 52.90625 2.75 
Q 46.53125 -1.21875 36.1875 -1.21875 
Q 26.125 -1.21875 19.71875 2.25 
Q 13.328125 5.71875 10.59375 12.28125 
Q 7.859375 18.84375 7.859375 30.21875 
L 7.859375 71.578125 
L 17.328125 71.578125 
L 17.328125 30.28125 
Q 17.328125 20.953125 19.0625 16.53125 
Q 20.796875 12.109375 25.015625 9.71875 
Q 29.25 7.328125 35.359375 7.328125 
Q 45.796875 7.328125 50.234375 12.0625 
Q 54.6875 16.796875 54.6875 30.28125 
z
" id="ArialMT-55"/>
      <path d="M 6.59375 -19.875 
L 6.59375 51.859375 
L 14.59375 51.859375 
L 14.59375 45.125 
Q 17.4375 49.078125 21 51.046875 
Q 24.5625 53.03125 29.640625 53.03125 
Q 36.28125 53.03125 41.359375 49.609375 
Q 46.4375 46.1875 49.015625 39.953125 
Q 51.609375 33.734375 51.609375 26.3125 
Q 51.609375 18.359375 48.75 11.984375 
Q 45.90625 5.609375 40.453125 2.21875 
Q 35.015625 -1.171875 29 -1.171875 
Q 24.609375 -1.171875 21.109375 0.6875 
Q 17.625 2.546875 15.375 5.375 
L 15.375 -19.875 
z
M 14.546875 25.640625 
Q 14.546875 15.625 18.59375 10.84375 
Q 22.65625 6.0625 28.421875 6.0625 
Q 34.28125 6.0625 38.453125 11.015625 
Q 42.625 15.96875 42.625 26.375 
Q 42.625 36.28125 38.546875 41.203125 
Q 34.46875 46.140625 28.8125 46.140625 
Q 23.1875 46.140625 18.859375 40.890625 
Q 14.546875 35.640625 14.546875 25.640625 
z
" id="ArialMT-70"/>
      <path d="M 6.59375 0 
L 6.59375 51.859375 
L 14.453125 51.859375 
L 14.453125 44.578125 
Q 16.890625 48.390625 20.9375 50.703125 
Q 25 53.03125 30.171875 53.03125 
Q 35.9375 53.03125 39.625 50.640625 
Q 43.3125 48.25 44.828125 43.953125 
Q 50.984375 53.03125 60.84375 53.03125 
Q 68.5625 53.03125 72.703125 48.75 
Q 76.859375 44.484375 76.859375 35.59375 
L 76.859375 0 
L 68.109375 0 
L 68.109375 32.671875 
Q 68.109375 37.9375 67.25 40.25 
Q 66.40625 42.578125 64.15625 43.984375 
Q 61.921875 45.40625 58.890625 45.40625 
Q 53.421875 45.40625 49.796875 41.765625 
Q 46.1875 38.140625 46.1875 30.125 
L 46.1875 0 
L 37.40625 0 
L 37.40625 33.6875 
Q 37.40625 39.546875 35.25 42.46875 
Q 33.109375 45.40625 28.21875 45.40625 
Q 24.515625 45.40625 21.359375 43.453125 
Q 18.21875 41.5 16.796875 37.734375 
Q 15.375 33.984375 15.375 26.90625 
L 15.375 0 
z
" id="ArialMT-6d"/>
      <path d="M 9.03125 41.84375 
L 9.03125 51.859375 
L 19.046875 51.859375 
L 19.046875 41.84375 
z
M 9.03125 0 
L 9.03125 10.015625 
L 19.046875 10.015625 
L 19.046875 0 
z
" id="ArialMT-3a"/>
      <path d="M 5.46875 16.546875 
L 13.921875 17.328125 
Q 14.984375 11.375 18.015625 8.6875 
Q 21.046875 6 25.78125 6 
Q 29.828125 6 32.875 7.859375 
Q 35.9375 9.71875 37.890625 12.8125 
Q 39.84375 15.921875 41.15625 21.1875 
Q 42.484375 26.46875 42.484375 31.9375 
Q 42.484375 32.515625 42.4375 33.6875 
Q 39.796875 29.5 35.234375 26.875 
Q 30.671875 24.265625 25.34375 24.265625 
Q 16.453125 24.265625 10.296875 30.703125 
Q 4.15625 37.15625 4.15625 47.703125 
Q 4.15625 58.59375 10.578125 65.234375 
Q 17 71.875 26.65625 71.875 
Q 33.640625 71.875 39.421875 68.109375 
Q 45.21875 64.359375 48.21875 57.390625 
Q 51.21875 50.4375 51.21875 37.25 
Q 51.21875 23.53125 48.234375 15.40625 
Q 45.265625 7.28125 39.375 3.03125 
Q 33.5 -1.21875 25.59375 -1.21875 
Q 17.1875 -1.21875 11.859375 3.4375 
Q 6.546875 8.109375 5.46875 16.546875 
z
M 41.453125 48.140625 
Q 41.453125 55.71875 37.421875 60.15625 
Q 33.40625 64.59375 27.734375 64.59375 
Q 21.875 64.59375 17.53125 59.8125 
Q 13.1875 55.03125 13.1875 47.40625 
Q 13.1875 40.578125 17.3125 36.296875 
Q 21.4375 32.03125 27.484375 32.03125 
Q 33.59375 32.03125 37.515625 36.296875 
Q 41.453125 40.578125 41.453125 48.140625 
z
" id="ArialMT-39"/>
      <path d="M 9.078125 0 
L 9.078125 10.015625 
L 19.09375 10.015625 
L 19.09375 0 
z
" id="ArialMT-2e"/>
      <path d="M 32.328125 0 
L 32.328125 17.140625 
L 1.265625 17.140625 
L 1.265625 25.203125 
L 33.9375 71.578125 
L 41.109375 71.578125 
L 41.109375 25.203125 
L 50.78125 25.203125 
L 50.78125 17.140625 
L 41.109375 17.140625 
L 41.109375 0 
z
M 32.328125 25.203125 
L 32.328125 57.46875 
L 9.90625 25.203125 
z
" id="ArialMT-34"/>
      <path d="M 49.75 54.046875 
L 41.015625 53.375 
Q 39.84375 58.546875 37.703125 60.890625 
Q 34.125 64.65625 28.90625 64.65625 
Q 24.703125 64.65625 21.53125 62.3125 
Q 17.390625 59.28125 14.984375 53.46875 
Q 12.59375 47.65625 12.5 36.921875 
Q 15.671875 41.75 20.265625 44.09375 
Q 24.859375 46.4375 29.890625 46.4375 
Q 38.671875 46.4375 44.84375 39.96875 
Q 51.03125 33.5 51.03125 23.25 
Q 51.03125 16.5 48.125 10.71875 
Q 45.21875 4.9375 40.140625 1.859375 
Q 35.0625 -1.21875 28.609375 -1.21875 
Q 17.625 -1.21875 10.6875 6.859375 
Q 3.765625 14.9375 3.765625 33.5 
Q 3.765625 54.25 11.421875 63.671875 
Q 18.109375 71.875 29.4375 71.875 
Q 37.890625 71.875 43.28125 67.140625 
Q 48.6875 62.40625 49.75 54.046875 
z
M 13.875 23.1875 
Q 13.875 18.65625 15.796875 14.5 
Q 17.71875 10.359375 21.1875 8.171875 
Q 24.65625 6 28.46875 6 
Q 34.03125 6 38.03125 10.484375 
Q 42.046875 14.984375 42.046875 22.703125 
Q 42.046875 30.125 38.078125 34.390625 
Q 34.125 38.671875 28.125 38.671875 
Q 22.171875 38.671875 18.015625 34.390625 
Q 13.875 30.125 13.875 23.1875 
z
" id="ArialMT-36"/>
     </defs>
     <g style="fill:#262626;" transform="translate(182.792812 341.999625)scale(0.1 -0.1)">
      <use xlink:href="#ArialMT-55"/>
      <use x="72.216797" xlink:href="#ArialMT-70"/>
      <use x="127.832031" xlink:href="#ArialMT-74"/>
      <use x="155.615234" xlink:href="#ArialMT-69"/>
      <use x="177.832031" xlink:href="#ArialMT-6d"/>
      <use x="261.132812" xlink:href="#ArialMT-65"/>
      <use x="316.748047" xlink:href="#ArialMT-3a"/>
      <use x="344.53125" xlink:href="#ArialMT-20"/>
      <use x="372.314453" xlink:href="#ArialMT-30"/>
      <use x="427.929688" xlink:href="#ArialMT-3a"/>
      <use x="455.712891" xlink:href="#ArialMT-30"/>
      <use x="511.328125" xlink:href="#ArialMT-39"/>
      <use x="566.943359" xlink:href="#ArialMT-3a"/>
      <use x="594.726562" xlink:href="#ArialMT-31"/>
      <use x="650.341797" xlink:href="#ArialMT-35"/>
      <use x="705.957031" xlink:href="#ArialMT-2e"/>
      <use x="733.740234" xlink:href="#ArialMT-37"/>
      <use x="789.355469" xlink:href="#ArialMT-34"/>
      <use x="844.970703" xlink:href="#ArialMT-36"/>
      <use x="900.585938" xlink:href="#ArialMT-34"/>
      <use x="956.201172" xlink:href="#ArialMT-31"/>
      <use x="1011.816406" xlink:href="#ArialMT-34"/>
     </g>
    </g>
   </g>
   <g id="matplotlib.axis_2">
    <g id="ytick_1">
     <g id="line2d_19">
      <path clip-path="url(#p8196457485)" d="M 57.6 295.665335 
L 414.72 295.665335 
" style="fill:none;stroke:#cccccc;stroke-linecap:round;stroke-width:0.8;"/>
     </g>
     <g id="line2d_20"/>
     <g id="text_11">
      <!-- 0.0 -->
      <g style="fill:#262626;" transform="translate(40.2 299.244241)scale(0.1 -0.1)">
       <use xlink:href="#ArialMT-30"/>
       <use x="55.615234" xlink:href="#ArialMT-2e"/>
       <use x="83.398438" xlink:href="#ArialMT-30"/>
      </g>
     </g>
    </g>
    <g id="ytick_2">
     <g id="line2d_21">
      <path clip-path="url(#p8196457485)" d="M 57.6 247.293567 
L 414.72 247.293567 
" style="fill:none;stroke:#cccccc;stroke-linecap:round;stroke-width:0.8;"/>
     </g>
     <g id="line2d_22"/>
     <g id="text_12">
      <!-- 0.2 -->
      <g style="fill:#262626;" transform="translate(40.2 250.872473)scale(0.1 -0.1)">
       <use xlink:href="#ArialMT-30"/>
       <use x="55.615234" xlink:href="#ArialMT-2e"/>
       <use x="83.398438" xlink:href="#ArialMT-32"/>
      </g>
     </g>
    </g>
    <g id="ytick_3">
     <g id="line2d_23">
      <path clip-path="url(#p8196457485)" d="M 57.6 198.9218 
L 414.72 198.9218 
" style="fill:none;stroke:#cccccc;stroke-linecap:round;stroke-width:0.8;"/>
     </g>
     <g id="line2d_24"/>
     <g id="text_13">
      <!-- 0.4 -->
      <g style="fill:#262626;" transform="translate(40.2 202.500706)scale(0.1 -0.1)">
       <use xlink:href="#ArialMT-30"/>
       <use x="55.615234" xlink:href="#ArialMT-2e"/>
       <use x="83.398438" xlink:href="#ArialMT-34"/>
      </g>
     </g>
    </g>
    <g id="ytick_4">
     <g id="line2d_25">
      <path clip-path="url(#p8196457485)" d="M 57.6 150.550032 
L 414.72 150.550032 
" style="fill:none;stroke:#cccccc;stroke-linecap:round;stroke-width:0.8;"/>
     </g>
     <g id="line2d_26"/>
     <g id="text_14">
      <!-- 0.6 -->
      <g style="fill:#262626;" transform="translate(40.2 154.128938)scale(0.1 -0.1)">
       <use xlink:href="#ArialMT-30"/>
       <use x="55.615234" xlink:href="#ArialMT-2e"/>
       <use x="83.398438" xlink:href="#ArialMT-36"/>
      </g>
     </g>
    </g>
    <g id="ytick_5">
     <g id="line2d_27">
      <path clip-path="url(#p8196457485)" d="M 57.6 102.178264 
L 414.72 102.178264 
" style="fill:none;stroke:#cccccc;stroke-linecap:round;stroke-width:0.8;"/>
     </g>
     <g id="line2d_28"/>
     <g id="text_15">
      <!-- 0.8 -->
      <defs>
       <path d="M 17.671875 38.8125 
Q 12.203125 40.828125 9.5625 44.53125 
Q 6.9375 48.25 6.9375 53.421875 
Q 6.9375 61.234375 12.546875 66.546875 
Q 18.171875 71.875 27.484375 71.875 
Q 36.859375 71.875 42.578125 66.421875 
Q 48.296875 60.984375 48.296875 53.171875 
Q 48.296875 48.1875 45.671875 44.5 
Q 43.0625 40.828125 37.75 38.8125 
Q 44.34375 36.671875 47.78125 31.875 
Q 51.21875 27.09375 51.21875 20.453125 
Q 51.21875 11.28125 44.71875 5.03125 
Q 38.234375 -1.21875 27.640625 -1.21875 
Q 17.046875 -1.21875 10.546875 5.046875 
Q 4.046875 11.328125 4.046875 20.703125 
Q 4.046875 27.6875 7.59375 32.390625 
Q 11.140625 37.109375 17.671875 38.8125 
z
M 15.921875 53.71875 
Q 15.921875 48.640625 19.1875 45.40625 
Q 22.46875 42.1875 27.6875 42.1875 
Q 32.765625 42.1875 36.015625 45.375 
Q 39.265625 48.578125 39.265625 53.21875 
Q 39.265625 58.0625 35.90625 61.359375 
Q 32.5625 64.65625 27.59375 64.65625 
Q 22.5625 64.65625 19.234375 61.421875 
Q 15.921875 58.203125 15.921875 53.71875 
z
M 13.09375 20.65625 
Q 13.09375 16.890625 14.875 13.375 
Q 16.65625 9.859375 20.171875 7.921875 
Q 23.6875 6 27.734375 6 
Q 34.03125 6 38.125 10.046875 
Q 42.234375 14.109375 42.234375 20.359375 
Q 42.234375 26.703125 38.015625 30.859375 
Q 33.796875 35.015625 27.4375 35.015625 
Q 21.234375 35.015625 17.15625 30.90625 
Q 13.09375 26.8125 13.09375 20.65625 
z
" id="ArialMT-38"/>
      </defs>
      <g style="fill:#262626;" transform="translate(40.2 105.757171)scale(0.1 -0.1)">
       <use xlink:href="#ArialMT-30"/>
       <use x="55.615234" xlink:href="#ArialMT-2e"/>
       <use x="83.398438" xlink:href="#ArialMT-38"/>
      </g>
     </g>
    </g>
    <g id="ytick_6">
     <g id="line2d_29">
      <path clip-path="url(#p8196457485)" d="M 57.6 53.806497 
L 414.72 53.806497 
" style="fill:none;stroke:#cccccc;stroke-linecap:round;stroke-width:0.8;"/>
     </g>
     <g id="line2d_30"/>
     <g id="text_16">
      <!-- 1.0 -->
      <g style="fill:#262626;" transform="translate(40.2 57.385403)scale(0.1 -0.1)">
       <use xlink:href="#ArialMT-31"/>
       <use x="55.615234" xlink:href="#ArialMT-2e"/>
       <use x="83.398438" xlink:href="#ArialMT-30"/>
      </g>
     </g>
    </g>
    <g id="text_17">
     <!-- decryption errors -->
     <defs>
      <path d="M 40.234375 0 
L 40.234375 6.546875 
Q 35.296875 -1.171875 25.734375 -1.171875 
Q 19.53125 -1.171875 14.328125 2.25 
Q 9.125 5.671875 6.265625 11.796875 
Q 3.421875 17.921875 3.421875 25.875 
Q 3.421875 33.640625 6 39.96875 
Q 8.59375 46.296875 13.765625 49.65625 
Q 18.953125 53.03125 25.34375 53.03125 
Q 30.03125 53.03125 33.6875 51.046875 
Q 37.359375 49.078125 39.65625 45.90625 
L 39.65625 71.578125 
L 48.390625 71.578125 
L 48.390625 0 
z
M 12.453125 25.875 
Q 12.453125 15.921875 16.640625 10.984375 
Q 20.84375 6.0625 26.5625 6.0625 
Q 32.328125 6.0625 36.34375 10.765625 
Q 40.375 15.484375 40.375 25.140625 
Q 40.375 35.796875 36.265625 40.765625 
Q 32.171875 45.75 26.171875 45.75 
Q 20.3125 45.75 16.375 40.96875 
Q 12.453125 36.1875 12.453125 25.875 
z
" id="ArialMT-64"/>
      <path d="M 40.4375 19 
L 49.078125 17.875 
Q 47.65625 8.9375 41.8125 3.875 
Q 35.984375 -1.171875 27.484375 -1.171875 
Q 16.84375 -1.171875 10.375 5.78125 
Q 3.90625 12.75 3.90625 25.734375 
Q 3.90625 34.125 6.6875 40.421875 
Q 9.46875 46.734375 15.15625 49.875 
Q 20.84375 53.03125 27.546875 53.03125 
Q 35.984375 53.03125 41.359375 48.75 
Q 46.734375 44.484375 48.25 36.625 
L 39.703125 35.296875 
Q 38.484375 40.53125 35.375 43.15625 
Q 32.28125 45.796875 27.875 45.796875 
Q 21.234375 45.796875 17.078125 41.03125 
Q 12.9375 36.28125 12.9375 25.984375 
Q 12.9375 15.53125 16.9375 10.796875 
Q 20.953125 6.0625 27.390625 6.0625 
Q 32.5625 6.0625 36.03125 9.234375 
Q 39.5 12.40625 40.4375 19 
z
" id="ArialMT-63"/>
      <path d="M 6.203125 -19.96875 
L 5.21875 -11.71875 
Q 8.109375 -12.5 10.25 -12.5 
Q 13.1875 -12.5 14.9375 -11.515625 
Q 16.703125 -10.546875 17.828125 -8.796875 
Q 18.65625 -7.46875 20.515625 -2.25 
Q 20.75 -1.515625 21.296875 -0.09375 
L 1.609375 51.859375 
L 11.078125 51.859375 
L 21.875 21.828125 
Q 23.96875 16.109375 25.640625 9.8125 
Q 27.15625 15.875 29.25 21.625 
L 40.328125 51.859375 
L 49.125 51.859375 
L 29.390625 -0.875 
Q 26.21875 -9.421875 24.46875 -12.640625 
Q 22.125 -17 19.09375 -19.015625 
Q 16.0625 -21.046875 11.859375 -21.046875 
Q 9.328125 -21.046875 6.203125 -19.96875 
z
" id="ArialMT-79"/>
     </defs>
     <g style="fill:#262626;" transform="translate(34.095312 212.039719)rotate(-90)scale(0.1 -0.1)">
      <use xlink:href="#ArialMT-64"/>
      <use x="55.615234" xlink:href="#ArialMT-65"/>
      <use x="111.230469" xlink:href="#ArialMT-63"/>
      <use x="161.230469" xlink:href="#ArialMT-72"/>
      <use x="194.53125" xlink:href="#ArialMT-79"/>
      <use x="244.53125" xlink:href="#ArialMT-70"/>
      <use x="300.146484" xlink:href="#ArialMT-74"/>
      <use x="327.929688" xlink:href="#ArialMT-69"/>
      <use x="350.146484" xlink:href="#ArialMT-6f"/>
      <use x="405.761719" xlink:href="#ArialMT-6e"/>
      <use x="461.376953" xlink:href="#ArialMT-20"/>
      <use x="489.160156" xlink:href="#ArialMT-65"/>
      <use x="544.775391" xlink:href="#ArialMT-72"/>
      <use x="578.076172" xlink:href="#ArialMT-72"/>
      <use x="611.376953" xlink:href="#ArialMT-6f"/>
      <use x="666.992188" xlink:href="#ArialMT-72"/>
      <use x="700.292969" xlink:href="#ArialMT-73"/>
     </g>
    </g>
   </g>
   <g id="line2d_31">
    <path clip-path="url(#p8196457485)" d="M 73.832727 53.568 
L 74.871674 54.796365 
L 75.488548 56.241488 
L 76.13789 58.53271 
L 76.430094 60.470655 
L 76.673597 63.72052 
L 76.9658 71.307426 
L 78.085914 103.630938 
L 78.589154 114.225508 
L 79.30343 125.032063 
L 79.904071 133.233837 
L 80.407311 144.803095 
L 81.072886 159.745762 
L 81.592359 165.519248 
L 83.978689 185.719845 
L 84.660498 190.435642 
L 86.300085 202.63814 
L 87.209163 206.848019 
L 87.826038 209.846096 
L 88.686415 213.246542 
L 88.735116 213.491043 
L 89.611727 216.802363 
L 90.699374 219.403707 
L 91.851956 221.097093 
L 92.598698 221.914447 
L 93.686345 222.621057 
L 94.319453 222.961251 
L 95.504502 223.349442 
L 96.267478 223.479827 
L 99.741455 223.680093 
L 106.283572 223.928068 
L 106.299805 65.86356 
L 106.397206 106.900957 
L 106.41344 105.691001 
L 106.478374 108.141316 
L 106.851745 132.277543 
L 107.111482 140.958847 
L 107.19265 142.148102 
L 107.630955 147.568268 
L 107.955626 149.523325 
L 108.410165 150.83007 
L 109.416645 152.295332 
L 110.958831 153.751137 
L 111.656873 154.294098 
L 111.949077 154.514459 
L 113.815934 155.521699 
L 115.260719 155.893125 
L 117.143809 156.975269 
L 117.69575 157.547668 
L 118.312624 157.863708 
L 119.173002 158.273984 
L 119.757409 158.573922 
L 120.276882 158.909207 
L 121.6892 159.479313 
L 121.96517 159.831494 
L 122.598278 160.051913 
L 123.994363 160.259805 
L 124.789806 160.519306 
L 125.715118 161.659676 
L 125.974854 161.995884 
L 126.770298 162.356945 
L 127.663142 162.626407 
L 128.182616 162.81811 
L 129.010526 162.993638 
L 129.286496 163.066323 
L 129.676101 163.225979 
L 129.773502 163.335814 
L 129.789736 163.213755 
L 129.80597 163.166081 
L 129.838437 163.334199 
L 129.85467 163.290087 
L 129.968305 163.424847 
L 130.033239 163.217258 
L 130.098173 163.25471 
L 130.114407 163.431017 
L 130.13064 163.120786 
L 130.179341 163.313296 
L 130.195575 163.013878 
L 130.276742 163.171559 
L 130.292976 163.325636 
L 130.341676 162.948949 
L 130.35791 163.204427 
L 130.471545 162.509581 
L 130.520245 163.367241 
L 130.504012 162.23082 
L 130.601413 163.221582 
L 130.63388 163.184562 
L 130.747515 163.500026 
L 130.779982 163.447811 
L 130.812449 163.532937 
L 130.844916 163.510636 
L 131.088419 163.570692 
L 132.598138 163.759022 
L 134.8546 163.9021 
L 135.406541 163.943473 
L 138.75065 164.093154 
L 138.766883 75.743072 
L 138.864284 77.695851 
L 138.929218 94.037669 
L 139.042853 91.212353 
L 139.335057 100.001848 
L 139.35129 99.816157 
L 139.383758 100.68153 
L 140.000632 111.025551 
L 140.63374 113.677833 
L 143.02007 118.778269 
L 143.815514 119.228232 
L 144.919394 119.454245 
L 145.146664 119.624295 
L 145.568736 119.74216 
L 145.958341 119.874656 
L 146.396646 120.212493 
L 146.68885 120.368877 
L 148.052467 120.925475 
L 149.448552 121.100282 
L 149.886857 121.354867 
L 150.211528 121.609683 
L 150.503732 121.759464 
L 150.990738 122.046687 
L 151.380343 122.172422 
L 152.403056 122.431548 
L 153.036164 122.715369 
L 154.416015 123.025383 
L 155.503662 123.171013 
L 156.396506 123.773799 
L 159.562046 123.962489 
L 159.935418 124.177531 
L 159.984118 124.15265 
L 160.016586 124.245214 
L 160.162687 124.315852 
L 160.503592 124.239563 
L 160.536059 124.361464 
L 160.552292 123.844812 
L 160.568526 123.207658 
L 160.63346 124.018495 
L 160.665927 123.317276 
L 160.812029 124.224268 
L 160.828263 123.481099 
L 160.90943 124.365962 
L 161.266568 125.41358 
L 160.974364 124.302359 
L 161.282802 125.405954 
L 161.493838 125.546322 
L 161.704874 125.606552 
L 162.094479 125.784761 
L 162.224347 125.876245 
L 163.29576 125.9852 
L 164.107437 126.103165 
L 164.691845 126.221419 
L 167.175576 126.383685 
L 167.386612 126.612999 
L 167.597648 126.662589 
L 167.792451 126.783524 
L 168.506726 126.822937 
L 169.80541 126.945862 
L 170.535919 127.11509 
L 170.828122 127.21975 
L 171.217727 127.285832 
L 171.233961 70.699954 
L 171.331362 72.166528 
L 171.493698 85.318725 
L 171.509931 85.294103 
L 171.91577 96.811074 
L 171.996937 97.609326 
L 172.354075 100.919853 
L 172.613812 101.948861 
L 172.889782 102.526564 
L 173.003417 102.612685 
L 173.214453 102.759093 
L 174.415735 103.18713 
L 174.610537 103.293649 
L 175.259879 103.48541 
L 175.503382 103.588873 
L 175.681951 103.708035 
L 176.087789 103.830483 
L 176.396226 103.967348 
L 176.802065 104.288275 
L 177.532574 104.413232 
L 178.149449 104.612013 
L 178.360485 104.71167 
L 178.928658 104.876963 
L 179.172162 104.901413 
L 179.886437 105.02242 
L 181.720827 105.242003 
L 181.980564 105.322963 
L 182.272767 105.385124 
L 182.776007 105.515934 
L 183.068211 105.669233 
L 184.756499 105.864366 
L 190.292136 106.0089 
L 190.422004 106.041106 
L 190.746675 106.051744 
L 195.762838 106.127976 
L 195.90894 106.170157 
L 197.516061 106.175289 
L 203.684805 106.184126 
L 203.701039 68.513262 
L 203.79844 82.213725 
L 204.009476 94.734246 
L 204.02571 94.387096 
L 204.139344 92.496522 
L 204.155578 92.562258 
L 204.999722 109.486479 
L 205.015956 109.463616 
L 205.243225 111.355199 
L 205.275692 111.147798 
L 205.324393 111.502717 
L 205.470495 112.130242 
L 206.233471 114.040335 
L 206.541908 114.196013 
L 206.720477 114.2768 
L 207.045148 114.400546 
L 207.272417 114.419474 
L 207.515921 114.536459 
L 208.24643 115.201205 
L 208.262663 115.195381 
L 208.278897 115.058964 
L 208.327597 115.330141 
L 208.343831 115.32031 
L 208.376298 115.284587 
L 208.473699 115.399165 
L 208.603568 115.033116 
L 208.554867 115.438376 
L 208.619801 115.095321 
L 208.652268 114.837031 
L 208.733436 115.404124 
L 208.782137 114.502697 
L 208.765903 115.421423 
L 208.847071 114.797906 
L 208.960705 115.615259 
L 208.976939 115.336874 
L 209.058107 115.732677 
L 209.07434 115.449001 
L 209.204209 115.978122 
L 209.220442 115.938608 
L 209.269143 116.031403 
L 209.285376 115.997454 
L 209.496412 116.319505 
L 210.015886 116.651489 
L 210.145754 116.760978 
L 210.324323 116.89408 
L 210.584059 117.051992 
L 210.957431 117.193657 
L 211.168467 117.358993 
L 211.525605 117.48679 
L 211.704174 117.542436 
L 212.450916 117.695201 
L 212.759354 117.729727 
L 214.285306 117.864992 
L 214.528809 117.959027 
L 218.311224 118.096987 
L 227.450706 118.203895 
L 227.580575 118.268608 
L 227.596808 118.2392 
L 227.661742 118.336406 
L 227.807844 118.376324 
L 228.132515 118.523626 
L 228.148749 118.430715 
L 228.262383 117.080925 
L 228.197449 118.480133 
L 228.29485 117.691323 
L 228.327317 117.404908 
L 228.343551 118.003889 
L 228.359785 117.227736 
L 228.440952 118.322279 
L 228.538353 117.096206 
L 228.505886 118.419889 
L 228.554587 117.933857 
L 228.603288 116.969057 
L 228.668222 118.339866 
L 228.684455 118.251237 
L 228.700689 118.707933 
L 228.733156 118.452195 
L 228.830557 118.909424 
L 228.765623 118.211593 
L 228.863024 118.799085 
L 228.879258 118.173478 
L 228.944192 118.970173 
L 228.960425 118.376252 
L 229.090294 119.255594 
L 229.268863 119.905016 
L 229.5773 120.258595 
L 229.80457 120.329694 
L 230.85975 120.343303 
L 232.824008 120.457246 
L 234.512296 120.579176 
L 236.151883 120.638887 
L 236.200584 71.522987 
L 236.265518 71.523131 
L 236.41162 71.60265 
L 236.46032 77.63392 
L 236.509021 85.186444 
L 236.590189 84.60691 
L 236.68759 88.080366 
L 236.833692 92.613175 
L 237.320698 99.497609 
L 237.840171 101.468667 
L 238.181076 101.76663 
L 238.457046 102.153596 
L 238.684315 102.231629 
L 238.944052 102.496103 
L 239.02522 102.620196 
L 239.171321 102.750703 
L 239.382357 102.833883 
L 239.723262 103.266028 
L 239.934298 103.779451 
L 240.145334 103.952601 
L 240.194034 103.799388 
L 240.210268 104.049951 
L 240.226502 103.829777 
L 240.340136 104.152924 
L 240.35637 104.129527 
L 240.567406 104.401426 
L 240.940777 104.543465 
L 242.693999 104.681253 
L 245.437468 104.818189 
L 245.616036 104.882758 
L 246.216677 104.977644 
L 249.593253 105.050848 
L 249.609487 104.983453 
L 249.690655 105.096489 
L 249.706888 105.049522 
L 249.836757 105.102471 
L 249.999092 105.146584 
L 250.210128 105.156834 
L 250.258829 104.904498 
L 250.242595 105.206914 
L 250.307529 104.999282 
L 250.388697 104.834638 
L 250.40493 105.198496 
L 250.453631 104.704347 
L 250.502332 105.156502 
L 250.518565 105.176886 
L 250.6322 103.609833 
L 250.551032 105.243963 
L 250.648434 104.154438 
L 250.664667 104.817123 
L 250.697134 103.497908 
L 250.745835 103.851459 
L 250.762068 103.606547 
L 250.794535 104.490069 
L 250.810769 103.759413 
L 250.956871 105.391092 
L 251.102973 106.099663 
L 251.330242 106.413656 
L 251.492578 106.460493 
L 251.849715 106.665632 
L 252.125686 106.743939 
L 252.255554 106.857738 
L 253.197099 107.107825 
L 267.547548 107.23901 
L 268.618961 107.239327 
L 268.635195 67.795336 
L 268.732596 72.389744 
L 268.813764 82.918793 
L 268.878698 81.496462 
L 268.976099 83.965792 
L 269.154668 88.369852 
L 269.170901 88.238494 
L 269.528039 95.016192 
L 269.544273 94.775274 
L 269.592973 95.368229 
L 269.787776 97.344607 
L 269.804009 97.166729 
L 269.85271 97.609326 
L 269.868944 97.560081 
L 269.933878 97.721093 
L 269.966345 97.491346 
L 269.982578 97.520841 
L 269.998812 98.212228 
L 270.015045 97.137955 
L 270.096213 97.80175 
L 270.112447 97.781986 
L 270.274782 99.229703 
L 270.307249 99.188805 
L 270.323483 99.348793 
L 270.794255 100.636047 
L 270.810489 100.609277 
L 270.826722 100.691059 
L 270.842956 100.671857 
L 271.005291 100.970424 
L 271.540998 101.578358 
L 271.573465 101.437817 
L 271.605932 101.637521 
L 271.638399 101.611269 
L 271.784501 101.498912 
L 271.670866 101.649169 
L 271.800735 101.574682 
L 271.833202 101.660024 
L 271.849435 101.493765 
L 271.865669 101.394584 
L 271.930603 101.650077 
L 271.96307 101.409692 
L 271.979304 101.774674 
L 272.060471 100.790687 
L 272.044238 101.799671 
L 272.092938 101.211977 
L 272.19034 102.02515 
L 272.222807 102.010143 
L 272.271507 101.903206 
L 272.433843 102.429661 
L 272.450076 102.396735 
L 272.46631 102.524373 
L 272.482543 102.469175 
L 272.612412 102.829443 
L 272.774747 102.981992 
L 272.790981 102.930743 
L 272.855915 103.042985 
L 273.748759 103.093326 
L 276.833132 103.215313 
L 276.979234 103.371841 
L 276.995467 103.355767 
L 277.46624 103.444555 
L 278.505186 103.559897 
L 279.609067 103.570723 
L 280.680481 103.678453 
L 281.281122 103.828364 
L 281.329822 103.77899 
L 281.313589 103.856576 
L 281.362289 103.835745 
L 281.492158 103.914024 
L 282.076565 104.046592 
L 282.222667 104.095073 
L 283.229146 104.10404 
L 286.086249 104.220203 
L 287.222597 104.367793 
L 287.417399 104.398816 
L 288.050507 104.63825 
L 288.115441 104.406875 
L 288.082974 104.68379 
L 288.147908 104.551466 
L 288.212843 104.178411 
L 288.229076 104.680388 
L 288.326477 102.666211 
L 288.358944 102.991939 
L 288.456346 103.946647 
L 288.391412 102.737945 
L 288.505046 103.928036 
L 288.52128 103.664095 
L 288.553747 104.20867 
L 288.586214 103.898757 
L 288.699849 104.579217 
L 288.716082 104.568218 
L 288.862184 104.870764 
L 288.878418 104.859318 
L 290.225801 105.500091 
L 291.18358 105.543555 
L 291.199814 105.449044 
L 291.232281 105.671064 
L 291.280982 105.544131 
L 291.394616 105.674322 
L 291.41085 105.63289 
L 291.508251 105.67879 
L 291.946557 105.694893 
L 301.086039 105.703139 
L 301.150973 70.399872 
L 301.199674 70.399901 
L 301.41071 70.4235 
L 301.443177 72.01506 
L 301.605512 91.925839 
L 301.637979 91.428995 
L 301.654213 91.162344 
L 301.670446 91.526994 
L 301.832782 96.185582 
L 301.946417 97.641762 
L 302.352255 103.115959 
L 302.676926 105.597499 
L 302.693159 105.568206 
L 302.709393 105.699247 
L 302.920429 106.865162 
L 302.96913 106.909549 
L 303.163932 107.255257 
L 303.261333 107.498713 
L 303.277567 107.187401 
L 303.342501 107.77126 
L 303.374968 107.666759 
L 303.52107 108.528787 
L 303.537303 108.133993 
L 303.618471 108.660981 
L 303.683405 108.782435 
L 303.845741 109.29593 
L 303.861974 109.237127 
L 303.926908 109.37836 
L 304.008076 109.513149 
L 304.316513 109.87421 
L 305.809999 110.301728 
L 306.150903 110.794723 
L 306.654143 111.137332 
L 306.816478 111.330043 
L 308.163862 111.694881 
L 308.29373 111.759176 
L 308.991772 111.897454 
L 313.667032 112.024112 
L 313.813134 112.071555 
L 314.365074 112.079642 
L 317.384512 112.085552 
L 317.400746 111.897036 
L 317.449446 112.197535 
L 317.481913 112.190789 
L 317.774117 112.19693 
L 325.955821 112.202206 
L 332.822608 112.31243 
L 333.358314 112.468785 
L 333.471949 109.191198 
L 333.488183 109.20893 
L 333.504416 108.302991 
L 333.536883 109.365559 
L 333.553117 108.892688 
L 333.56935 66.975589 
L 333.666752 80.910786 
L 333.699219 80.496834 
L 333.877788 86.553275 
L 333.958955 89.648169 
L 334.02389 89.095837 
L 334.932968 99.218488 
L 334.981668 99.382815 
L 335.176471 100.292387 
L 335.192704 100.011507 
L 335.208938 99.939773 
L 335.225171 100.236092 
L 335.241405 99.954708 
L 335.371273 100.678358 
L 335.387507 100.407988 
L 335.468675 100.847226 
L 335.533609 100.936691 
L 335.695944 101.227792 
L 336.036848 101.285282 
L 336.41022 101.43231 
L 336.540088 101.446236 
L 336.767358 101.50981 
L 337.286831 101.56645 
L 338.504346 101.687198 
L 338.893951 101.810223 
L 339.07252 101.909621 
L 340.111467 101.981585 
L 340.143934 101.894153 
L 340.208868 102.030109 
L 340.225101 101.956502 
L 340.371203 102.140622 
L 340.841976 102.389628 
L 342.790001 102.550005 
L 343.049737 102.890595 
L 343.536743 103.163921 
L 343.56921 103.210066 
L 343.601678 103.178019 
L 343.634145 103.195059 
L 343.731546 102.121045 
L 343.747779 103.026566 
L 343.79648 101.960149 
L 343.845181 102.495008 
L 343.975049 103.039857 
L 343.893881 102.451948 
L 343.991282 102.996552 
L 344.02375 102.739905 
L 344.039983 103.278931 
L 344.056217 102.436479 
L 344.153618 102.957874 
L 344.186085 103.285966 
L 344.202318 102.893738 
L 344.34842 103.689352 
L 344.478289 103.848878 
L 344.640624 104.026021 
L 344.689325 103.92188 
L 344.738025 104.029654 
L 344.900361 104.272518 
L 345.160097 104.536632 
L 345.728271 104.80053 
L 349.039913 104.934324 
L 360.094953 105.062611 
L 360.419624 105.112144 
L 363.049457 105.136666 
L 363.163092 104.269967 
L 363.228026 104.498401 
L 363.29296 102.278654 
L 363.309194 102.179674 
L 363.439062 103.172902 
L 363.471529 102.719622 
L 363.487763 103.371351 
L 363.503996 103.359371 
L 363.650098 104.324661 
L 363.828667 105.155277 
L 363.893601 105.074057 
L 363.926068 104.933906 
L 364.02347 105.833113 
L 364.088404 105.957724 
L 364.137104 105.411966 
L 364.218272 106.070197 
L 364.234506 105.313405 
L 364.250739 105.930824 
L 364.266973 105.462955 
L 364.29944 106.131551 
L 364.34814 105.927897 
L 364.364374 105.927566 
L 364.380607 105.761581 
L 364.429308 106.334239 
L 364.510476 106.22808 
L 364.542943 106.146457 
L 364.640344 106.591606 
L 364.689045 106.286522 
L 364.672811 106.711099 
L 364.721512 106.413468 
L 364.85138 106.870222 
L 365.841626 107.082641 
L 365.955261 107.117023 
L 366.020195 107.118003 
L 366.036428 71.639612 
L 366.13383 71.641371 
L 366.166297 71.663052 
L 366.214997 74.248935 
L 366.361099 82.846367 
L 366.490967 85.680853 
L 366.523435 85.665139 
L 366.831872 91.414348 
L 366.848105 91.346305 
L 366.864339 91.583245 
L 367.18901 94.988456 
L 367.221477 95.041781 
L 367.367579 95.912718 
L 367.562381 96.566551 
L 368.033154 97.237453 
L 368.79613 98.071702 
L 369.57534 98.243842 
L 369.770142 98.506053 
L 370.175981 99.394996 
L 370.192214 99.202457 
L 370.240915 99.088341 
L 370.257148 99.486609 
L 370.273382 99.141507 
L 370.305849 98.814439 
L 370.370783 99.758248 
L 370.387017 98.984359 
L 370.451951 99.764433 
L 370.468185 99.71895 
L 370.598053 100.149611 
L 370.516885 99.709667 
L 370.614286 100.010296 
L 370.646753 100.218765 
L 370.662987 99.903402 
L 370.792855 100.41446 
L 370.825322 100.324217 
L 370.874023 100.500235 
L 370.987658 100.680751 
L 371.003891 100.573727 
L 371.068825 100.763066 
L 371.085059 100.72397 
L 371.247394 100.95128 
L 372.172706 101.379433 
L 372.935682 101.403623 
L 373.065551 101.445184 
L 381.052452 101.967097 
L 381.13362 101.495351 
L 381.166087 101.926156 
L 381.588159 102.037634 
L 382.46477 102.160415 
L 384.234226 102.277501 
L 384.883567 102.337788 
L 387.026394 102.364299 
L 387.091328 102.104149 
L 387.140029 102.2379 
L 387.156263 102.385058 
L 387.204963 102.002114 
L 387.221197 102.258356 
L 387.286131 101.668587 
L 387.302364 102.458464 
L 387.318598 101.745986 
L 387.334831 102.469218 
L 387.415999 101.806345 
L 387.448466 101.059861 
L 387.480933 102.031781 
L 387.5134 101.556662 
L 387.675736 102.619893 
L 387.691969 102.622228 
L 387.756903 103.191513 
L 387.821838 103.168 
L 387.838071 103.137698 
L 387.854305 103.308382 
L 388.162742 104.000735 
L 388.325077 104.331667 
L 388.617281 104.491626 
L 388.747149 104.571461 
L 388.893251 104.677937 
L 389.266623 104.694141 
L 390.711408 104.692367 
L 390.808809 104.744654 
L 390.825042 104.144029 
L 390.841276 104.731406 
L 390.889976 104.020788 
L 390.938677 104.549895 
L 390.954911 104.222466 
L 391.019845 104.749296 
L 391.036078 104.604387 
L 391.165947 104.893671 
L 391.18218 104.824835 
L 391.214647 104.796854 
L 391.344516 105.063433 
L 391.45815 105.122524 
L 392.058791 105.352458 
L 392.075025 105.269797 
L 392.253594 104.404669 
L 392.123725 105.304712 
L 392.269827 104.462376 
L 392.286061 104.872941 
L 392.367229 104.115817 
L 392.383462 104.78104 
L 392.399696 104.564369 
L 392.46463 105.094672 
L 392.578265 105.418857 
L 392.529564 105.003131 
L 392.594498 105.40522 
L 392.610732 105.327691 
L 392.643199 105.521801 
L 392.691899 105.441894 
L 392.854235 105.564977 
L 393.536043 105.583357 
L 393.812014 105.688954 
L 394.039283 105.807049 
L 394.250319 105.916523 
L 394.542523 106.036002 
L 394.672391 106.040241 
L 395.029529 106.053619 
L 398.487273 106.058188 
L 398.487273 106.058188 
" style="fill:none;stroke:#1f77b4;stroke-linecap:round;stroke-width:1.5;"/>
   </g>
   <g id="line2d_32">
    <path clip-path="url(#p8196457485)" d="M 73.832727 53.825569 
L 74.433368 54.703974 
L 74.920374 55.851523 
L 75.407381 57.500559 
L 75.748285 59.455645 
L 76.008021 62.44131 
L 76.949567 78.393826 
L 77.809944 93.805054 
L 79.352131 110.562713 
L 79.839137 114.931628 
L 80.991718 121.68675 
L 81.900796 127.328316 
L 82.517671 133.329832 
L 83.069611 139.373458 
L 84.124791 147.688699 
L 85.179971 153.254177 
L 85.780612 158.666184 
L 86.300085 161.634189 
L 87.046828 165.376127 
L 87.598768 168.51819 
L 87.631235 168.692651 
L 87.842271 169.727771 
L 88.442912 172.152123 
L 92.19286 185.749707 
L 93.134405 187.988938 
L 93.767513 188.963122 
L 95.196065 190.58432 
L 98.0207 193.535978 
L 99.02718 194.361693 
L 99.497952 194.835745 
L 101.283642 195.815393 
L 103.150499 196.432149 
L 104.092044 196.894121 
L 104.725152 197.454705 
L 105.08229 197.840792 
L 105.195925 198.070474 
L 105.228392 197.877603 
L 105.260859 196.442413 
L 105.342026 197.480387 
L 105.471895 198.26178 
L 105.488128 198.238772 
L 105.504362 198.219787 
L 105.63423 198.537809 
L 106.040069 199.034307 
L 106.283572 199.147573 
L 106.299805 114.667096 
L 106.397206 129.389416 
L 106.608242 143.321658 
L 106.96538 156.239726 
L 107.338752 161.951872 
L 107.728357 165.148355 
L 107.74459 164.941833 
L 107.793291 165.562294 
L 108.053027 166.695673 
L 108.069261 166.536247 
L 108.134195 166.967412 
L 108.215363 167.184617 
L 108.426399 167.710437 
L 109.091974 169.148554 
L 110.114687 170.907064 
L 112.825688 173.293921 
L 113.832167 173.927472 
L 114.546443 174.541359 
L 115.212018 174.731029 
L 116.18603 175.036898 
L 119.724942 175.784522 
L 125.828753 176.118474 
L 132.370869 176.300792 
L 132.614372 176.33366 
L 133.929288 176.297635 
L 133.945522 175.795262 
L 133.961756 171.728815 
L 134.059157 174.398324 
L 134.07539 174.349699 
L 134.091624 174.63463 
L 134.107857 174.551536 
L 134.464995 176.66191 
L 134.481229 176.451106 
L 134.546163 176.785325 
L 134.562396 176.775832 
L 134.838367 177.110231 
L 135.292906 177.276547 
L 136.104583 177.791058 
L 137.159763 177.848426 
L 138.75065 177.866439 
L 138.766883 125.521829 
L 138.864284 129.445725 
L 139.091554 135.417761 
L 139.107787 135.369395 
L 139.124021 135.644148 
L 139.416225 140.201219 
L 139.432458 140.133897 
L 139.448692 140.49206 
L 139.464925 140.500955 
L 139.643494 142.224002 
L 139.659728 142.063928 
L 139.675961 141.551471 
L 139.740895 142.543992 
L 139.919464 143.988855 
L 139.935698 142.903409 
L 140.016866 144.101545 
L 140.049333 144.372405 
L 140.065566 144.030186 
L 140.179201 144.821547 
L 140.195434 144.813417 
L 140.341536 145.420485 
L 140.390237 145.518383 
L 140.649974 145.88831 
L 140.942177 146.25975 
L 142.938903 148.734789 
L 142.97137 148.557733 
L 142.987603 147.58747 
L 143.068771 148.757581 
L 143.166172 148.694655 
L 143.182406 149.015582 
L 143.198639 148.859372 
L 143.231106 149.111419 
L 143.263573 148.989706 
L 143.377208 149.35427 
L 143.393442 149.319426 
L 143.409675 149.525343 
L 143.425909 149.391333 
L 143.555777 149.88417 
L 143.572011 149.888249 
L 143.734346 150.323062 
L 143.75058 150.302361 
L 143.783047 150.39605 
L 143.831747 150.543078 
L 143.896681 150.399351 
L 144.140184 151.02898 
L 144.205119 151.115678 
L 144.416155 151.359883 
L 144.838227 151.585867 
L 146.737551 152.205722 
L 147.808964 152.674211 
L 148.003767 152.805309 
L 148.198569 152.905658 
L 149.708288 153.26509 
L 154.367314 153.583811 
L 162.419149 153.800526 
L 162.678886 153.844321 
L 165.828193 153.864878 
L 169.513206 153.978476 
L 170.097613 154.195118 
L 170.113847 154.070997 
L 170.178781 149.120126 
L 170.259949 150.813982 
L 170.454751 153.513274 
L 170.535919 152.462037 
L 170.552152 152.287979 
L 170.568386 153.134712 
L 170.828122 154.994163 
L 170.617086 153.109196 
L 170.86059 154.944817 
L 170.876823 154.705571 
L 170.925524 155.183285 
L 170.957991 155.138509 
L 170.990458 155.240372 
L 171.006691 154.950627 
L 171.120326 155.633018 
L 171.13656 155.495044 
L 171.18526 155.804986 
L 171.201494 155.701379 
L 171.217727 155.822674 
L 171.233961 129.222321 
L 171.331362 132.60686 
L 171.785901 140.269147 
L 172.548878 143.951605 
L 173.863794 146.205244 
L 174.139764 146.713607 
L 174.3021 147.000887 
L 174.318333 146.958922 
L 174.367034 147.118477 
L 174.399501 146.588563 
L 174.480669 147.198918 
L 174.513136 147.144282 
L 174.545603 147.129318 
L 174.740405 147.780514 
L 174.756639 147.7316 
L 174.821573 147.82343 
L 175.000142 147.977752 
L 176.883233 148.612932 
L 178.928658 148.919443 
L 179.675401 149.16594 
L 180.065006 149.757339 
L 180.162407 149.810259 
L 180.487078 150.067756 
L 180.519545 149.977888 
L 180.584479 150.07557 
L 180.63318 150.018166 
L 180.698114 150.17256 
L 180.779282 150.21353 
L 180.925384 150.265442 
L 181.314989 150.337622 
L 181.607192 150.4522 
L 181.834462 150.573423 
L 182.094199 150.633379 
L 184.30196 150.922923 
L 184.675331 150.954364 
L 190.292136 151.093045 
L 198.619941 151.03071 
L 198.684875 150.221747 
L 198.717342 145.982215 
L 198.814744 147.239499 
L 198.960845 150.048252 
L 198.977079 149.660651 
L 199.042013 150.553443 
L 199.058247 150.215837 
L 199.317983 152.118506 
L 199.35045 152.354898 
L 199.366684 152.036999 
L 199.447852 152.651044 
L 199.464085 151.756724 
L 199.480319 152.454627 
L 199.545253 151.925549 
L 199.529019 152.745786 
L 199.593954 152.19713 
L 199.723822 153.058438 
L 199.772522 152.915937 
L 199.80499 153.147514 
L 199.983558 153.534956 
L 200.048493 153.267915 
L 200.032259 153.573461 
L 200.08096 153.460916 
L 200.194594 153.68762 
L 200.210828 153.68566 
L 200.827702 153.807532 
L 202.499757 153.974526 
L 202.629625 154.039873 
L 202.889362 154.042742 
L 203.684805 154.051521 
L 203.701039 128.780964 
L 203.79844 130.798817 
L 204.058177 134.410492 
L 204.512716 138.957198 
L 204.528949 138.90915 
L 204.610117 139.748531 
L 204.658818 139.64341 
L 204.869854 140.918699 
L 204.886087 140.697155 
L 204.951021 141.064329 
L 205.12959 141.828516 
L 205.194524 142.184056 
L 205.210758 141.420762 
L 205.308159 142.207481 
L 205.324393 142.145017 
L 205.535429 143.180743 
L 205.551662 143.030471 
L 205.567896 143.298737 
L 205.616596 143.264398 
L 205.665297 143.543476 
L 205.730231 143.28817 
L 205.973734 143.97196 
L 206.201004 144.16421 
L 207.045148 144.712361 
L 207.710723 144.920815 
L 208.24643 145.033721 
L 210.681461 145.257946 
L 210.90873 145.375522 
L 211.41197 145.405997 
L 212.077545 145.516596 
L 212.46715 145.739682 
L 212.74312 145.810334 
L 214.950881 145.840305 
L 215.145684 145.883365 
L 218.424859 145.921957 
L 218.668362 145.951769 
L 225.340346 146.084078 
L 236.13565 146.201092 
L 236.151883 146.207464 
L 236.168117 127.051502 
L 236.265518 130.097108 
L 236.379153 131.645247 
L 236.41162 131.588088 
L 236.427853 131.328226 
L 236.46032 131.942085 
L 236.638889 136.247079 
L 236.655123 136.22387 
L 236.68759 135.799941 
L 236.801225 137.453157 
L 236.817458 137.028566 
L 236.849925 137.855823 
L 236.866159 137.529346 
L 236.96356 140.121182 
L 236.996027 139.591599 
L 237.028494 139.383592 
L 237.174596 142.462585 
L 237.207063 141.765201 
L 237.255764 142.891069 
L 237.499267 144.619537 
L 237.531734 144.322396 
L 237.547968 144.129353 
L 237.564201 144.66316 
L 237.596668 144.29998 
L 237.645369 143.714276 
L 237.694069 144.94254 
L 237.726537 143.637338 
L 237.791471 144.956437 
L 237.823938 143.819151 
L 237.905105 145.653129 
L 237.937573 144.523397 
L 237.97004 145.788004 
L 238.002507 145.536951 
L 238.01874 146.188002 
L 238.051207 145.013149 
L 238.116141 145.988515 
L 238.164842 145.9173 
L 238.327177 147.548014 
L 238.343411 147.035398 
L 238.408345 147.978776 
L 238.424579 147.994936 
L 238.440812 147.73532 
L 238.473279 148.187201 
L 238.505746 148.124924 
L 238.733016 149.183297 
L 238.749249 148.971426 
L 238.79795 149.320104 
L 238.830417 149.007596 
L 238.911585 149.47754 
L 238.927818 149.106749 
L 238.976519 149.427488 
L 238.992753 148.817061 
L 239.090154 149.588254 
L 239.106387 149.062304 
L 239.155088 149.710645 
L 239.220022 149.637672 
L 239.236256 149.394937 
L 239.284956 149.890383 
L 239.30119 149.82936 
L 239.398591 150.268786 
L 239.431058 150.205371 
L 239.593393 150.702835 
L 239.609627 150.628535 
L 239.690795 150.744122 
L 240.031699 151.141324 
L 240.973244 151.556588 
L 243.765413 151.661493 
L 249.982858 151.82334 
L 250.161427 151.849476 
L 251.232841 151.86 
L 264.901481 151.831456 
L 265.177451 144.623646 
L 265.209918 145.947718 
L 265.518355 149.691847 
L 265.534589 149.842681 
L 265.567056 149.144994 
L 265.599523 149.740616 
L 265.761858 151.321003 
L 265.843026 151.46633 
L 265.875493 150.303831 
L 265.989128 151.848467 
L 265.924194 150.257124 
L 266.005361 151.502111 
L 266.13523 152.681909 
L 266.151463 152.442691 
L 266.200164 153.054603 
L 266.216397 152.939622 
L 266.265098 152.826356 
L 266.378733 153.409797 
L 266.427433 153.361273 
L 266.524835 153.912999 
L 266.541068 153.674963 
L 266.589769 154.065158 
L 266.606002 153.743886 
L 266.622236 154.149391 
L 266.703404 153.805168 
L 266.719637 153.662046 
L 266.752104 154.217434 
L 266.784571 154.137786 
L 267.450146 154.613006 
L 268.472859 154.751327 
L 268.618961 154.835934 
L 268.635195 123.60806 
L 268.732596 125.784113 
L 268.976099 128.741738 
L 268.992333 128.670322 
L 269.008566 128.388116 
L 269.0735 129.15892 
L 269.268303 130.378304 
L 269.284536 130.381548 
L 269.430638 131.461646 
L 269.446872 131.222097 
L 269.511806 131.609596 
L 269.528039 131.601581 
L 269.674141 132.579081 
L 269.690375 132.33623 
L 269.722842 132.85823 
L 269.787776 132.422466 
L 269.85271 132.970256 
L 269.868944 131.958 
L 269.885177 133.310702 
L 269.950111 132.885693 
L 270.047513 133.802948 
L 270.07998 133.732757 
L 270.242315 134.488972 
L 270.258549 134.478564 
L 270.274782 134.543176 
L 270.372183 134.791822 
L 270.40465 134.733682 
L 270.502052 134.400891 
L 270.469585 134.991871 
L 270.518285 134.583353 
L 270.63192 135.255106 
L 270.648153 135.23044 
L 270.713088 135.30931 
L 270.85919 135.426021 
L 271.378663 135.59512 
L 272.498777 135.778908 
L 275.242245 135.961385 
L 275.307179 135.874255 
L 275.323413 135.959568 
L 275.420814 135.678588 
L 275.35588 135.995868 
L 275.437047 135.850728 
L 275.501982 136.110647 
L 275.534449 135.935436 
L 275.583149 135.990289 
L 275.664317 135.456655 
L 275.777952 136.118778 
L 275.794185 136.004286 
L 275.826652 136.220669 
L 275.85912 136.049336 
L 275.940287 136.390171 
L 275.956521 136.304512 
L 275.972754 136.014767 
L 276.021455 136.52633 
L 276.037688 136.232173 
L 276.070156 136.207839 
L 276.13509 136.783322 
L 276.151323 136.066996 
L 276.216257 136.905857 
L 276.248724 136.533768 
L 276.313659 137.362092 
L 276.281192 136.486066 
L 276.362359 136.836993 
L 276.443527 137.832051 
L 276.540928 137.759481 
L 276.654563 137.139078 
L 276.719497 137.975085 
L 276.800665 137.950795 
L 276.816898 137.856817 
L 276.833132 138.268276 
L 276.849365 138.005244 
L 276.865599 138.423449 
L 276.963 138.188124 
L 277.060401 138.643191 
L 277.092868 138.555672 
L 277.109102 138.397227 
L 277.174036 138.673147 
L 277.19027 138.590731 
L 277.320138 138.795077 
L 277.872078 139.209895 
L 278.440252 139.24272 
L 282.255134 139.442423 
L 282.498637 139.495849 
L 282.936942 139.555949 
L 285.014835 139.703178 
L 285.469375 139.790741 
L 293.24524 140.080587 
L 293.29394 139.272316 
L 293.326407 139.52099 
L 293.407575 135.188101 
L 293.488743 135.864885 
L 293.504976 135.622755 
L 293.52121 136.313537 
L 293.553677 135.850858 
L 293.683545 137.643548 
L 293.716012 137.550623 
L 294.316653 141.119657 
L 294.446522 141.523086 
L 294.381587 141.00038 
L 294.462755 141.404039 
L 294.478989 141.120435 
L 294.495222 141.680955 
L 294.543923 141.573311 
L 294.657558 141.946006 
L 294.641324 141.504835 
L 294.673791 141.835061 
L 294.738725 142.014481 
L 294.771192 141.645837 
L 294.787426 142.199726 
L 294.884827 142.17346 
L 294.901061 141.961113 
L 294.933528 142.248826 
L 294.998462 142.076095 
L 295.160797 142.400121 
L 295.274432 142.457021 
L 295.501702 142.515766 
L 295.793905 142.588335 
L 296.053642 142.833161 
L 296.232211 142.887797 
L 297.660762 143.116693 
L 298.050367 143.230261 
L 298.24517 143.282851 
L 298.975679 143.474409 
L 299.251649 143.612816 
L 301.086039 143.765668 
L 301.102273 127.239543 
L 301.199674 129.697902 
L 301.215907 129.637629 
L 301.232141 129.843143 
L 301.556812 135.057176 
L 301.605512 134.712765 
L 301.637979 135.361942 
L 301.654213 135.283577 
L 301.670446 135.495635 
L 301.832782 137.054024 
L 301.897716 137.557918 
L 302.043818 138.508489 
L 302.060051 138.397054 
L 302.076285 138.529608 
L 302.092518 138.450897 
L 302.173686 138.414007 
L 302.23862 139.626889 
L 302.287321 139.15745 
L 302.336022 139.884127 
L 302.384722 139.309105 
L 302.400956 139.948869 
L 302.417189 139.774407 
L 302.547058 140.839873 
L 302.563291 140.803833 
L 302.579525 140.752368 
L 302.611992 140.961947 
L 302.758094 141.650753 
L 302.774327 141.641239 
L 302.790561 141.583849 
L 302.839261 141.814359 
L 302.855495 141.716821 
L 302.920429 141.999633 
L 302.904195 141.698975 
L 302.952896 141.70957 
L 303.01783 141.23164 
L 302.985363 141.979768 
L 303.050297 141.59394 
L 303.196399 142.239052 
L 303.261333 142.20813 
L 303.277567 142.32585 
L 303.2938 142.281147 
L 303.358734 142.204425 
L 303.488603 142.553088 
L 303.504836 142.231787 
L 303.586004 142.689232 
L 303.650938 142.803925 
L 303.829507 142.899272 
L 304.30028 143.152329 
L 305.728831 143.288545 
L 305.956101 143.370442 
L 306.18337 143.399245 
L 307.335952 143.548161 
L 307.51452 143.579011 
L 308.488533 143.70355 
L 315.420254 143.715717 
L 315.452721 143.746135 
L 315.468955 143.505793 
L 315.566356 141.024411 
L 315.615056 141.690873 
L 315.663757 139.982587 
L 315.696224 142.300478 
L 315.712458 140.647089 
L 315.777392 142.356542 
L 315.793625 140.223751 
L 315.826092 141.450199 
L 315.858559 141.358485 
L 316.069595 142.952178 
L 316.085829 142.822003 
L 316.102063 143.060975 
L 316.118296 142.832829 
L 316.150763 142.715931 
L 316.231931 143.402445 
L 316.248164 143.378111 
L 316.361799 144.093227 
L 316.378033 143.313456 
L 316.4592 143.832183 
L 316.572835 144.311411 
L 316.556602 143.693791 
L 316.589069 144.158761 
L 316.832572 144.828553 
L 316.848805 144.718733 
L 316.91374 144.951694 
L 317.076075 145.179783 
L 317.205943 145.271554 
L 318.196189 145.477111 
L 319.121501 145.597527 
L 322.059771 145.850151 
L 322.254574 145.895878 
L 323.001317 145.904816 
L 324.364934 146.016857 
L 324.57597 146.073915 
L 324.673371 146.059629 
L 324.770772 145.314571 
L 324.705838 146.109883 
L 324.803239 145.406891 
L 324.819473 145.923471 
L 324.916874 145.879041 
L 324.965575 146.117941 
L 325.046743 145.990706 
L 325.111677 145.168913 
L 325.192844 145.419807 
L 325.225311 145.024437 
L 325.241545 145.698323 
L 325.257779 145.688909 
L 325.35518 146.17967 
L 325.387647 146.020086 
L 325.420114 145.822069 
L 325.566216 146.382444 
L 325.598683 146.393818 
L 325.63115 146.379604 
L 325.728551 146.522999 
L 325.890887 146.629519 
L 326.166857 146.852028 
L 326.18309 146.776676 
L 326.231791 146.782356 
L 326.215557 146.866776 
L 326.264258 146.83803 
L 326.377893 146.915256 
L 326.394126 146.800808 
L 326.41036 146.692776 
L 326.426593 146.913598 
L 326.491527 146.847127 
L 326.556462 146.659994 
L 326.572695 146.937644 
L 326.670096 146.44449 
L 326.68633 146.489554 
L 326.816198 146.982809 
L 326.864899 146.778449 
L 326.897366 147.023102 
L 326.913599 146.91504 
L 327.027234 147.094417 
L 327.043468 147.078416 
L 327.173336 147.162705 
L 327.627875 147.251897 
L 333.553117 147.325389 
L 333.56935 120.342971 
L 333.666752 122.630012 
L 333.861554 127.058061 
L 333.926488 128.267887 
L 334.29986 132.063005 
L 334.316093 132.051905 
L 334.527129 133.520108 
L 334.543363 133.509411 
L 334.738165 134.706912 
L 334.770632 134.59392 
L 334.786866 134.544445 
L 334.803099 134.702962 
L 334.981668 136.002946 
L 335.111537 136.390128 
L 335.12777 136.249443 
L 335.192704 136.646847 
L 335.208938 136.564835 
L 335.257639 136.887578 
L 335.35504 136.765259 
L 335.371273 137.317749 
L 335.436207 136.433924 
L 335.484908 136.747513 
L 335.614776 137.582555 
L 335.695944 137.956748 
L 335.712178 137.860623 
L 335.744645 137.986762 
L 335.825812 137.5148 
L 335.842046 138.126337 
L 335.858279 137.146906 
L 335.923214 137.684259 
L 335.939447 137.594318 
L 335.971914 137.733518 
L 336.118016 138.708293 
L 336.166717 138.785361 
L 336.393986 139.761346 
L 336.637489 140.188994 
L 336.848525 140.44456 
L 337.027094 140.64102 
L 337.043328 140.626791 
L 337.140729 140.054263 
L 337.075795 140.705344 
L 337.156963 140.467625 
L 337.205663 140.36729 
L 337.270597 140.716328 
L 337.286831 140.379097 
L 337.303064 140.780724 
L 337.367999 140.682581 
L 337.497867 140.84476 
L 337.562801 140.642404 
L 337.546568 140.94645 
L 337.579035 140.879416 
L 337.627735 140.707016 
L 337.708903 141.028865 
L 337.725136 140.961673 
L 337.790071 141.074434 
L 337.806304 141.064487 
L 337.96864 141.127816 
L 338.374478 141.151228 
L 340.825742 141.29556 
L 340.955611 141.359768 
L 341.069245 141.298702 
L 341.199114 141.383151 
L 341.312749 141.386639 
L 344.867894 141.646299 
L 344.997762 141.701396 
L 345.289966 141.757691 
L 345.565936 141.89604 
L 345.858139 141.932455 
L 346.750984 142.023131 
L 346.897086 142.284073 
L 347.124355 142.448919 
L 347.140589 142.360549 
L 347.205523 141.40316 
L 347.173056 142.512306 
L 347.254224 142.022684 
L 347.384092 142.601814 
L 347.400326 142.353457 
L 347.481493 142.659939 
L 347.530194 142.404576 
L 347.546428 142.736978 
L 347.578895 142.706877 
L 347.74123 142.933236 
L 347.838631 142.974336 
L 347.984733 143.031985 
L 348.276937 143.053263 
L 349.900291 143.176101 
L 351.004171 143.448215 
L 351.052872 143.193731 
L 351.101573 143.265422 
L 351.117806 143.459763 
L 351.166507 142.750154 
L 351.198974 143.196961 
L 351.296375 142.666066 
L 351.312609 142.952092 
L 351.328842 143.146346 
L 351.345076 142.502892 
L 351.393776 143.008458 
L 351.442477 142.317302 
L 351.474944 143.122603 
L 351.491177 143.084805 
L 351.621046 143.354397 
L 351.556112 142.911266 
L 351.637279 143.316022 
L 351.653513 143.255374 
L 351.669746 143.515941 
L 351.702213 143.434045 
L 351.832082 143.649808 
L 352.270387 143.819411 
L 353.455436 143.960629 
L 353.634005 143.995242 
L 366.020195 144.081002 
L 366.036428 132.370727 
L 366.13383 134.782524 
L 366.555902 142.732278 
L 366.572135 142.542392 
L 366.620836 143.209113 
L 366.653303 143.182487 
L 366.766938 144.67289 
L 366.913039 146.053661 
L 367.075375 147.206126 
L 367.091608 147.057628 
L 367.140309 147.563035 
L 367.18901 147.307369 
L 367.221477 147.600834 
L 367.253944 146.739425 
L 367.270177 147.871031 
L 367.286411 145.851823 
L 367.367579 147.341679 
L 367.383812 147.119616 
L 367.448746 147.619012 
L 367.546147 148.46958 
L 367.578615 148.242255 
L 367.611082 147.954442 
L 367.643549 148.571673 
L 367.659782 148.264614 
L 367.692249 147.768505 
L 367.773417 149.024145 
L 367.789651 148.837387 
L 367.822118 149.38969 
L 367.838351 149.274449 
L 368.01692 149.849557 
L 368.049387 149.95586 
L 368.098088 149.754398 
L 368.227956 150.111999 
L 368.29289 150.245389 
L 368.341591 150.193924 
L 368.422759 150.19995 
L 368.455226 150.228494 
L 368.503926 150.298815 
L 368.536393 150.224616 
L 368.601328 149.829404 
L 368.650028 149.978796 
L 368.682495 149.727094 
L 368.731196 150.262025 
L 368.747429 149.677172 
L 368.79613 150.26511 
L 368.844831 150.154569 
L 368.877298 149.942569 
L 368.893531 150.293711 
L 368.909765 149.824272 
L 368.974699 150.446751 
L 368.990932 150.079231 
L 369.007166 150.465549 
L 369.104567 150.38864 
L 369.137034 150.386939 
L 369.266903 150.686228 
L 369.429238 150.707607 
L 369.591573 150.740287 
L 376.360959 150.755193 
L 378.097948 150.865317 
L 378.536253 150.981336 
L 381.604392 151.17954 
L 381.718027 151.283378 
L 381.782961 151.084669 
L 381.847895 151.174004 
L 381.864129 151.27333 
L 381.896596 150.904686 
L 381.912829 150.849906 
L 381.929063 150.007296 
L 382.026464 150.279526 
L 382.075165 150.975036 
L 382.172566 149.425513 
L 382.1888 150.548426 
L 382.221267 150.729216 
L 382.2375 150.638309 
L 382.253734 149.577817 
L 382.351135 149.904222 
L 382.448536 150.497379 
L 382.46477 150.091067 
L 382.497237 150.362288 
L 382.529704 148.895455 
L 382.643339 150.828051 
L 382.708273 149.531369 
L 382.773207 149.618009 
L 382.821908 149.397763 
L 382.903075 151.195037 
L 382.935542 150.749701 
L 383.000477 151.166854 
L 383.049177 152.007446 
L 383.081644 150.934585 
L 383.130345 151.601725 
L 383.179045 150.510152 
L 383.211513 151.691536 
L 383.227746 151.080099 
L 383.341381 152.313755 
L 383.357614 151.758094 
L 383.390082 152.485867 
L 383.438782 152.461143 
L 383.455016 152.391428 
L 383.487483 152.739918 
L 383.51995 152.583953 
L 383.633585 153.07454 
L 383.763453 153.44748 
L 383.79592 153.398264 
L 383.860854 153.451862 
L 384.088124 153.553927 
L 385.971214 153.637251 
L 397.886632 153.746264 
L 397.951566 153.802774 
L 397.967799 153.661326 
L 397.984033 153.59804 
L 398.000267 153.773366 
L 398.032734 153.713338 
L 398.081434 153.608866 
L 398.097668 153.825494 
L 398.195069 150.604187 
L 398.260003 152.159937 
L 398.29247 151.75263 
L 398.341171 152.678723 
L 398.357404 151.824349 
L 398.438572 151.932541 
L 398.454806 152.743897 
L 398.487273 151.988662 
" style="fill:none;stroke:#ff7f0e;stroke-linecap:round;stroke-width:1.5;"/>
   </g>
   <g id="line2d_33">
    <path clip-path="url(#p8196457485)" d="M 73.832727 53.842537 
L 74.563237 54.428111 
L 74.85544 55.02493 
L 75.115177 56.149313 
L 75.35868 58.365327 
L 75.602183 62.881543 
L 75.86192 72.623411 
L 76.170357 94.323594 
L 77.079435 161.978643 
L 77.712543 191.088092 
L 78.329418 210.277074 
L 79.498232 237.402461 
L 80.439778 254.049118 
L 81.235221 263.382919 
L 81.852096 268.501556 
L 82.420269 271.706582 
L 83.231946 274.976107 
L 84.124791 278.523628 
L 84.8553 281.517478 
L 85.748145 283.786333 
L 87.160463 287.269123 
L 87.566301 288.341046 
L 88.069541 289.072991 
L 89.205889 290.588312 
L 89.384458 290.809538 
L 90.277302 291.541087 
L 93.475309 292.795124 
L 94.368154 292.996119 
L 94.757759 293.091928 
L 98.312904 293.341276 
L 106.283572 293.523771 
L 106.348506 266.822036 
L 106.397206 281.348995 
L 106.445907 274.407089 
L 106.527075 278.149438 
L 106.673177 282.662631 
L 106.68941 282.581514 
L 106.705644 282.607854 
L 106.835512 284.823134 
L 106.867979 284.816875 
L 107.127716 286.710813 
L 107.354985 287.610306 
L 107.533554 288.062618 
L 107.647189 288.309973 
L 107.906926 288.665179 
L 107.97186 288.700857 
L 107.988093 288.73611 
L 108.410165 289.071252 
L 108.864704 289.542318 
L 109.059507 289.694265 
L 110.033519 290.555848 
L 110.520525 290.908984 
L 110.731561 291.106894 
L 111.315969 291.268111 
L 112.046478 291.479509 
L 113.052957 291.589516 
L 118.182756 292.238683 
L 122.19244 292.396752 
L 122.922949 292.472773 
L 123.961896 292.62007 
L 124.156698 292.66496 
L 125.520315 292.833556 
L 126.591729 292.92131 
L 131.607892 293.07815 
L 131.900096 293.130357 
L 135.276672 293.148322 
L 135.682511 293.20424 
L 138.75065 293.325461 
L 138.766883 268.768119 
L 138.864284 277.882329 
L 138.880518 277.80218 
L 139.091554 284.036004 
L 139.107787 283.28826 
L 139.156488 285.315547 
L 139.172722 285.008779 
L 139.318823 287.641245 
L 139.529859 289.13333 
L 139.627261 289.379961 
L 139.789596 289.85984 
L 140.260369 290.9127 
L 140.487638 291.213995 
L 140.63374 291.333148 
L 140.731141 291.453382 
L 141.023345 291.942538 
L 141.331782 292.104504 
L 142.711633 292.296977 
L 142.890202 292.333437 
L 144.821993 292.474343 
L 146.331712 292.567416 
L 146.510281 292.65035 
L 147.19209 292.844362 
L 147.354425 292.888873 
L 150.341396 292.900614 
L 151.41281 292.985076 
L 151.575145 293.027774 
L 152.435523 293.189033 
L 152.74396 293.256723 
L 153.52317 293.278159 
L 171.217727 293.3552 
L 171.233961 274.451554 
L 171.331362 284.064366 
L 171.720967 291.83244 
L 172.061871 292.664113 
L 172.19174 292.754621 
L 172.354075 292.944514 
L 172.646279 293.040496 
L 172.776147 293.079255 
L 174.464435 293.232073 
L 192.402496 293.310049 
L 192.532364 293.356993 
L 193.133005 293.426911 
L 193.262873 293.472609 
L 193.620011 293.56486 
L 193.766113 293.58901 
L 199.837457 293.65569 
L 203.684805 293.656128 
L 203.701039 284.685988 
L 203.79844 289.139747 
L 203.944542 293.194907 
L 204.204279 294.182532 
L 204.593884 294.26689 
L 204.80492 294.330382 
L 207.791891 294.535705 
L 211.639239 294.599713 
L 236.151883 294.601596 
L 236.168117 282.486865 
L 236.265518 289.901106 
L 236.281752 289.322613 
L 236.314219 291.223304 
L 236.46032 293.192664 
L 236.476554 293.127554 
L 236.68759 294.086361 
L 236.866159 294.361079 
L 237.19083 294.515922 
L 237.336932 294.581426 
L 240.307669 294.776066 
L 240.551172 294.833023 
L 268.618961 294.956155 
L 268.635195 287.225587 
L 268.732596 291.638545 
L 268.748829 290.479064 
L 268.813764 292.723559 
L 268.992333 294.521825 
L 268.846231 292.682454 
L 269.041033 294.498784 
L 269.284536 294.900406 
L 269.414405 294.955017 
L 269.57674 295.047758 
L 270.047513 295.049725 
L 270.599453 295.067656 
L 301.086039 295.192001 
L 301.13474 281.722631 
L 301.199674 290.877974 
L 301.215907 288.815405 
L 301.280841 292.525881 
L 301.491878 294.277721 
L 301.735381 294.518021 
L 301.897716 294.621104 
L 302.011351 294.836227 
L 302.157453 295.116222 
L 302.758094 295.120171 
L 305.777532 295.248132 
L 312.920289 295.250896 
L 333.553117 295.310705 
L 333.56935 287.525463 
L 333.666752 292.624433 
L 333.682985 289.862311 
L 333.731686 293.618284 
L 333.764153 293.353133 
L 333.780386 293.330496 
L 333.79662 292.373011 
L 333.845321 293.945125 
L 333.861554 293.940802 
L 334.007656 294.640585 
L 334.040123 294.648465 
L 334.056357 294.710161 
L 334.234926 294.876828 
L 338.179676 295.073908 
L 366.020195 295.133641 
L 366.036428 287.790771 
L 366.13383 292.738359 
L 366.150063 289.674027 
L 366.231231 293.877486 
L 366.4585 295.135225 
L 366.669536 295.397064 
L 366.880572 295.416616 
L 381.377123 295.487871 
L 398.487273 295.487933 
L 398.487273 295.487933 
" style="fill:none;stroke:#2ca02c;stroke-linecap:round;stroke-width:1.5;"/>
   </g>
   <g id="patch_3">
    <path d="M 57.6 307.584 
L 57.6 41.472 
" style="fill:none;stroke:#cccccc;stroke-linecap:square;stroke-linejoin:miter;"/>
   </g>
   <g id="patch_4">
    <path d="M 414.72 307.584 
L 414.72 41.472 
" style="fill:none;stroke:#cccccc;stroke-linecap:square;stroke-linejoin:miter;"/>
   </g>
   <g id="patch_5">
    <path d="M 57.6 307.584 
L 414.72 307.584 
" style="fill:none;stroke:#cccccc;stroke-linecap:square;stroke-linejoin:miter;"/>
   </g>
   <g id="patch_6">
    <path d="M 57.6 41.472 
L 414.72 41.472 
" style="fill:none;stroke:#cccccc;stroke-linecap:square;stroke-linejoin:miter;"/>
   </g>
   <g id="legend_1">
    <g id="line2d_34">
     <path d="M 212.707656 54.129813 
L 232.707656 54.129813 
" style="fill:none;stroke:#1f77b4;stroke-linecap:round;stroke-width:1.5;"/>
    </g>
    <g id="line2d_35"/>
    <g id="text_18">
     <!-- eve -->
     <defs>
      <path d="M 21 0 
L 1.265625 51.859375 
L 10.546875 51.859375 
L 21.6875 20.796875 
Q 23.484375 15.765625 25 10.359375 
Q 26.171875 14.453125 28.265625 20.21875 
L 39.796875 51.859375 
L 48.828125 51.859375 
L 29.203125 0 
z
" id="ArialMT-76"/>
     </defs>
     <g style="fill:#262626;" transform="translate(240.707656 57.629813)scale(0.1 -0.1)">
      <use xlink:href="#ArialMT-65"/>
      <use x="55.615234" xlink:href="#ArialMT-76"/>
      <use x="105.615234" xlink:href="#ArialMT-65"/>
     </g>
    </g>
    <g id="line2d_36">
     <path d="M 212.707656 68.275125 
L 232.707656 68.275125 
" style="fill:none;stroke:#ff7f0e;stroke-linecap:round;stroke-width:1.5;"/>
    </g>
    <g id="line2d_37"/>
    <g id="text_19">
     <!-- alan -->
     <defs>
      <path d="M 6.390625 0 
L 6.390625 71.578125 
L 15.1875 71.578125 
L 15.1875 0 
z
" id="ArialMT-6c"/>
     </defs>
     <g style="fill:#262626;" transform="translate(240.707656 71.775125)scale(0.1 -0.1)">
      <use xlink:href="#ArialMT-61"/>
      <use x="55.615234" xlink:href="#ArialMT-6c"/>
      <use x="77.832031" xlink:href="#ArialMT-61"/>
      <use x="133.447266" xlink:href="#ArialMT-6e"/>
     </g>
    </g>
    <g id="line2d_38">
     <path d="M 212.707656 82.420437 
L 232.707656 82.420437 
" style="fill:none;stroke:#2ca02c;stroke-linecap:round;stroke-width:1.5;"/>
    </g>
    <g id="line2d_39"/>
    <g id="text_20">
     <!-- bob -->
     <defs>
      <path d="M 14.703125 0 
L 6.546875 0 
L 6.546875 71.578125 
L 15.328125 71.578125 
L 15.328125 46.046875 
Q 20.90625 53.03125 29.546875 53.03125 
Q 34.328125 53.03125 38.59375 51.09375 
Q 42.875 49.171875 45.625 45.671875 
Q 48.390625 42.1875 49.953125 37.25 
Q 51.515625 32.328125 51.515625 26.703125 
Q 51.515625 13.375 44.921875 6.09375 
Q 38.328125 -1.171875 29.109375 -1.171875 
Q 19.921875 -1.171875 14.703125 6.5 
z
M 14.59375 26.3125 
Q 14.59375 17 17.140625 12.84375 
Q 21.296875 6.0625 28.375 6.0625 
Q 34.125 6.0625 38.328125 11.0625 
Q 42.53125 16.0625 42.53125 25.984375 
Q 42.53125 36.140625 38.5 40.96875 
Q 34.46875 45.796875 28.765625 45.796875 
Q 23 45.796875 18.796875 40.796875 
Q 14.59375 35.796875 14.59375 26.3125 
z
" id="ArialMT-62"/>
     </defs>
     <g style="fill:#262626;" transform="translate(240.707656 85.920437)scale(0.1 -0.1)">
      <use xlink:href="#ArialMT-62"/>
      <use x="55.615234" xlink:href="#ArialMT-6f"/>
      <use x="111.230469" xlink:href="#ArialMT-62"/>
     </g>
    </g>
   </g>
  </g>
 </g>
 <defs>
  <clipPath id="p8196457485">
   <rect height="266.112" width="357.12" x="57.6" y="41.472"/>
  </clipPath>
 </defs>
</svg>
