<?xml version="1.0" encoding="utf-8" standalone="no"?>
<!DOCTYPE svg PUBLIC "-//W3C//DTD SVG 1.1//EN"
  "http://www.w3.org/Graphics/SVG/1.1/DTD/svg11.dtd">
<!-- Created with matplotlib (http://matplotlib.org/) -->
<svg height="345.6pt" version="1.1" viewBox="0 0 460.8 345.6" width="460.8pt" xmlns="http://www.w3.org/2000/svg" xmlns:xlink="http://www.w3.org/1999/xlink">
 <defs>
  <style type="text/css">
*{stroke-linecap:butt;stroke-linejoin:round;}
  </style>
 </defs>
 <g id="figure_1">
  <g id="patch_1">
   <path d="M 0 345.6 
L 460.8 345.6 
L 460.8 0 
L 0 0 
z
" style="fill:#ffffff;"/>
  </g>
  <g id="axes_1">
   <g id="patch_2">
    <path d="M 57.6 307.584 
L 414.72 307.584 
L 414.72 41.472 
L 57.6 41.472 
z
" style="fill:#ffffff;"/>
   </g>
   <g id="matplotlib.axis_1">
    <g id="xtick_1">
     <g id="line2d_1">
      <path clip-path="url(#pf4d4635ab1)" d="M 73.816494 307.584 
L 73.816494 41.472 
" style="fill:none;stroke:#cccccc;stroke-linecap:round;stroke-width:0.8;"/>
     </g>
     <g id="line2d_2"/>
     <g id="text_1">
      <!-- 0 -->
      <defs>
       <path d="M 4.15625 35.296875 
Q 4.15625 48 6.765625 55.734375 
Q 9.375 63.484375 14.515625 67.671875 
Q 19.671875 71.875 27.484375 71.875 
Q 33.25 71.875 37.59375 69.546875 
Q 41.9375 67.234375 44.765625 62.859375 
Q 47.609375 58.5 49.21875 52.21875 
Q 50.828125 45.953125 50.828125 35.296875 
Q 50.828125 22.703125 48.234375 14.96875 
Q 45.65625 7.234375 40.5 3 
Q 35.359375 -1.21875 27.484375 -1.21875 
Q 17.140625 -1.21875 11.234375 6.203125 
Q 4.15625 15.140625 4.15625 35.296875 
z
M 13.1875 35.296875 
Q 13.1875 17.671875 17.3125 11.828125 
Q 21.4375 6 27.484375 6 
Q 33.546875 6 37.671875 11.859375 
Q 41.796875 17.71875 41.796875 35.296875 
Q 41.796875 52.984375 37.671875 58.78125 
Q 33.546875 64.59375 27.390625 64.59375 
Q 21.34375 64.59375 17.71875 59.46875 
Q 13.1875 52.9375 13.1875 35.296875 
z
" id="ArialMT-30"/>
      </defs>
      <g style="fill:#262626;" transform="translate(71.036025 318.241812)scale(0.1 -0.1)">
       <use xlink:href="#ArialMT-30"/>
      </g>
     </g>
    </g>
    <g id="xtick_2">
     <g id="line2d_3">
      <path clip-path="url(#pf4d4635ab1)" d="M 114.400341 307.584 
L 114.400341 41.472 
" style="fill:none;stroke:#cccccc;stroke-linecap:round;stroke-width:0.8;"/>
     </g>
     <g id="line2d_4"/>
     <g id="text_2">
      <!-- 2500 -->
      <defs>
       <path d="M 50.34375 8.453125 
L 50.34375 0 
L 3.03125 0 
Q 2.9375 3.171875 4.046875 6.109375 
Q 5.859375 10.9375 9.828125 15.625 
Q 13.8125 20.3125 21.34375 26.46875 
Q 33.015625 36.03125 37.109375 41.625 
Q 41.21875 47.21875 41.21875 52.203125 
Q 41.21875 57.421875 37.46875 61 
Q 33.734375 64.59375 27.734375 64.59375 
Q 21.390625 64.59375 17.578125 60.78125 
Q 13.765625 56.984375 13.71875 50.25 
L 4.6875 51.171875 
Q 5.609375 61.28125 11.65625 66.578125 
Q 17.71875 71.875 27.9375 71.875 
Q 38.234375 71.875 44.234375 66.15625 
Q 50.25 60.453125 50.25 52 
Q 50.25 47.703125 48.484375 43.546875 
Q 46.734375 39.40625 42.65625 34.8125 
Q 38.578125 30.21875 29.109375 22.21875 
Q 21.1875 15.578125 18.9375 13.203125 
Q 16.703125 10.84375 15.234375 8.453125 
z
" id="ArialMT-32"/>
       <path d="M 4.15625 18.75 
L 13.375 19.53125 
Q 14.40625 12.796875 18.140625 9.390625 
Q 21.875 6 27.15625 6 
Q 33.5 6 37.890625 10.78125 
Q 42.28125 15.578125 42.28125 23.484375 
Q 42.28125 31 38.0625 35.34375 
Q 33.84375 39.703125 27 39.703125 
Q 22.75 39.703125 19.328125 37.765625 
Q 15.921875 35.84375 13.96875 32.765625 
L 5.71875 33.84375 
L 12.640625 70.609375 
L 48.25 70.609375 
L 48.25 62.203125 
L 19.671875 62.203125 
L 15.828125 42.96875 
Q 22.265625 47.46875 29.34375 47.46875 
Q 38.71875 47.46875 45.15625 40.96875 
Q 51.609375 34.46875 51.609375 24.265625 
Q 51.609375 14.546875 45.953125 7.46875 
Q 39.0625 -1.21875 27.15625 -1.21875 
Q 17.390625 -1.21875 11.203125 4.25 
Q 5.03125 9.71875 4.15625 18.75 
z
" id="ArialMT-35"/>
      </defs>
      <g style="fill:#262626;" transform="translate(103.278466 318.241812)scale(0.1 -0.1)">
       <use xlink:href="#ArialMT-32"/>
       <use x="55.615234" xlink:href="#ArialMT-35"/>
       <use x="111.230469" xlink:href="#ArialMT-30"/>
       <use x="166.845703" xlink:href="#ArialMT-30"/>
      </g>
     </g>
    </g>
    <g id="xtick_3">
     <g id="line2d_5">
      <path clip-path="url(#pf4d4635ab1)" d="M 154.984188 307.584 
L 154.984188 41.472 
" style="fill:none;stroke:#cccccc;stroke-linecap:round;stroke-width:0.8;"/>
     </g>
     <g id="line2d_6"/>
     <g id="text_3">
      <!-- 5000 -->
      <g style="fill:#262626;" transform="translate(143.862313 318.241812)scale(0.1 -0.1)">
       <use xlink:href="#ArialMT-35"/>
       <use x="55.615234" xlink:href="#ArialMT-30"/>
       <use x="111.230469" xlink:href="#ArialMT-30"/>
       <use x="166.845703" xlink:href="#ArialMT-30"/>
      </g>
     </g>
    </g>
    <g id="xtick_4">
     <g id="line2d_7">
      <path clip-path="url(#pf4d4635ab1)" d="M 195.568036 307.584 
L 195.568036 41.472 
" style="fill:none;stroke:#cccccc;stroke-linecap:round;stroke-width:0.8;"/>
     </g>
     <g id="line2d_8"/>
     <g id="text_4">
      <!-- 7500 -->
      <defs>
       <path d="M 4.734375 62.203125 
L 4.734375 70.65625 
L 51.078125 70.65625 
L 51.078125 63.8125 
Q 44.234375 56.546875 37.515625 44.484375 
Q 30.8125 32.421875 27.15625 19.671875 
Q 24.515625 10.6875 23.78125 0 
L 14.75 0 
Q 14.890625 8.453125 18.0625 20.40625 
Q 21.234375 32.375 27.171875 43.484375 
Q 33.109375 54.59375 39.796875 62.203125 
z
" id="ArialMT-37"/>
      </defs>
      <g style="fill:#262626;" transform="translate(184.446161 318.241812)scale(0.1 -0.1)">
       <use xlink:href="#ArialMT-37"/>
       <use x="55.615234" xlink:href="#ArialMT-35"/>
       <use x="111.230469" xlink:href="#ArialMT-30"/>
       <use x="166.845703" xlink:href="#ArialMT-30"/>
      </g>
     </g>
    </g>
    <g id="xtick_5">
     <g id="line2d_9">
      <path clip-path="url(#pf4d4635ab1)" d="M 236.151883 307.584 
L 236.151883 41.472 
" style="fill:none;stroke:#cccccc;stroke-linecap:round;stroke-width:0.8;"/>
     </g>
     <g id="line2d_10"/>
     <g id="text_5">
      <!-- 10000 -->
      <defs>
       <path d="M 37.25 0 
L 28.46875 0 
L 28.46875 56 
Q 25.296875 52.984375 20.140625 49.953125 
Q 14.984375 46.921875 10.890625 45.40625 
L 10.890625 53.90625 
Q 18.265625 57.375 23.78125 62.296875 
Q 29.296875 67.234375 31.59375 71.875 
L 37.25 71.875 
z
" id="ArialMT-31"/>
      </defs>
      <g style="fill:#262626;" transform="translate(222.249539 318.241812)scale(0.1 -0.1)">
       <use xlink:href="#ArialMT-31"/>
       <use x="55.615234" xlink:href="#ArialMT-30"/>
       <use x="111.230469" xlink:href="#ArialMT-30"/>
       <use x="166.845703" xlink:href="#ArialMT-30"/>
       <use x="222.460938" xlink:href="#ArialMT-30"/>
      </g>
     </g>
    </g>
    <g id="xtick_6">
     <g id="line2d_11">
      <path clip-path="url(#pf4d4635ab1)" d="M 276.735731 307.584 
L 276.735731 41.472 
" style="fill:none;stroke:#cccccc;stroke-linecap:round;stroke-width:0.8;"/>
     </g>
     <g id="line2d_12"/>
     <g id="text_6">
      <!-- 12500 -->
      <g style="fill:#262626;" transform="translate(262.833387 318.241812)scale(0.1 -0.1)">
       <use xlink:href="#ArialMT-31"/>
       <use x="55.615234" xlink:href="#ArialMT-32"/>
       <use x="111.230469" xlink:href="#ArialMT-35"/>
       <use x="166.845703" xlink:href="#ArialMT-30"/>
       <use x="222.460938" xlink:href="#ArialMT-30"/>
      </g>
     </g>
    </g>
    <g id="xtick_7">
     <g id="line2d_13">
      <path clip-path="url(#pf4d4635ab1)" d="M 317.319578 307.584 
L 317.319578 41.472 
" style="fill:none;stroke:#cccccc;stroke-linecap:round;stroke-width:0.8;"/>
     </g>
     <g id="line2d_14"/>
     <g id="text_7">
      <!-- 15000 -->
      <g style="fill:#262626;" transform="translate(303.417234 318.241812)scale(0.1 -0.1)">
       <use xlink:href="#ArialMT-31"/>
       <use x="55.615234" xlink:href="#ArialMT-35"/>
       <use x="111.230469" xlink:href="#ArialMT-30"/>
       <use x="166.845703" xlink:href="#ArialMT-30"/>
       <use x="222.460938" xlink:href="#ArialMT-30"/>
      </g>
     </g>
    </g>
    <g id="xtick_8">
     <g id="line2d_15">
      <path clip-path="url(#pf4d4635ab1)" d="M 357.903425 307.584 
L 357.903425 41.472 
" style="fill:none;stroke:#cccccc;stroke-linecap:round;stroke-width:0.8;"/>
     </g>
     <g id="line2d_16"/>
     <g id="text_8">
      <!-- 17500 -->
      <g style="fill:#262626;" transform="translate(344.001082 318.241812)scale(0.1 -0.1)">
       <use xlink:href="#ArialMT-31"/>
       <use x="55.615234" xlink:href="#ArialMT-37"/>
       <use x="111.230469" xlink:href="#ArialMT-35"/>
       <use x="166.845703" xlink:href="#ArialMT-30"/>
       <use x="222.460938" xlink:href="#ArialMT-30"/>
      </g>
     </g>
    </g>
    <g id="xtick_9">
     <g id="line2d_17">
      <path clip-path="url(#pf4d4635ab1)" d="M 398.487273 307.584 
L 398.487273 41.472 
" style="fill:none;stroke:#cccccc;stroke-linecap:round;stroke-width:0.8;"/>
     </g>
     <g id="line2d_18"/>
     <g id="text_9">
      <!-- 20000 -->
      <g style="fill:#262626;" transform="translate(384.584929 318.241812)scale(0.1 -0.1)">
       <use xlink:href="#ArialMT-32"/>
       <use x="55.615234" xlink:href="#ArialMT-30"/>
       <use x="111.230469" xlink:href="#ArialMT-30"/>
       <use x="166.845703" xlink:href="#ArialMT-30"/>
       <use x="222.460938" xlink:href="#ArialMT-30"/>
      </g>
     </g>
    </g>
    <g id="text_10">
     <!-- 20000 iterations -->
     <defs>
      <path id="ArialMT-20"/>
      <path d="M 6.640625 61.46875 
L 6.640625 71.578125 
L 15.4375 71.578125 
L 15.4375 61.46875 
z
M 6.640625 0 
L 6.640625 51.859375 
L 15.4375 51.859375 
L 15.4375 0 
z
" id="ArialMT-69"/>
      <path d="M 25.78125 7.859375 
L 27.046875 0.09375 
Q 23.34375 -0.6875 20.40625 -0.6875 
Q 15.625 -0.6875 12.984375 0.828125 
Q 10.359375 2.34375 9.28125 4.8125 
Q 8.203125 7.28125 8.203125 15.1875 
L 8.203125 45.015625 
L 1.765625 45.015625 
L 1.765625 51.859375 
L 8.203125 51.859375 
L 8.203125 64.703125 
L 16.9375 69.96875 
L 16.9375 51.859375 
L 25.78125 51.859375 
L 25.78125 45.015625 
L 16.9375 45.015625 
L 16.9375 14.703125 
Q 16.9375 10.9375 17.40625 9.859375 
Q 17.875 8.796875 18.921875 8.15625 
Q 19.96875 7.515625 21.921875 7.515625 
Q 23.390625 7.515625 25.78125 7.859375 
z
" id="ArialMT-74"/>
      <path d="M 42.09375 16.703125 
L 51.171875 15.578125 
Q 49.03125 7.625 43.21875 3.21875 
Q 37.40625 -1.171875 28.375 -1.171875 
Q 17 -1.171875 10.328125 5.828125 
Q 3.65625 12.84375 3.65625 25.484375 
Q 3.65625 38.578125 10.390625 45.796875 
Q 17.140625 53.03125 27.875 53.03125 
Q 38.28125 53.03125 44.875 45.953125 
Q 51.46875 38.875 51.46875 26.03125 
Q 51.46875 25.25 51.421875 23.6875 
L 12.75 23.6875 
Q 13.234375 15.140625 17.578125 10.59375 
Q 21.921875 6.0625 28.421875 6.0625 
Q 33.25 6.0625 36.671875 8.59375 
Q 40.09375 11.140625 42.09375 16.703125 
z
M 13.234375 30.90625 
L 42.1875 30.90625 
Q 41.609375 37.453125 38.875 40.71875 
Q 34.671875 45.796875 27.984375 45.796875 
Q 21.921875 45.796875 17.796875 41.75 
Q 13.671875 37.703125 13.234375 30.90625 
z
" id="ArialMT-65"/>
      <path d="M 6.5 0 
L 6.5 51.859375 
L 14.40625 51.859375 
L 14.40625 44 
Q 17.4375 49.515625 20 51.265625 
Q 22.5625 53.03125 25.640625 53.03125 
Q 30.078125 53.03125 34.671875 50.203125 
L 31.640625 42.046875 
Q 28.421875 43.953125 25.203125 43.953125 
Q 22.3125 43.953125 20.015625 42.21875 
Q 17.71875 40.484375 16.75 37.40625 
Q 15.28125 32.71875 15.28125 27.15625 
L 15.28125 0 
z
" id="ArialMT-72"/>
      <path d="M 40.4375 6.390625 
Q 35.546875 2.25 31.03125 0.53125 
Q 26.515625 -1.171875 21.34375 -1.171875 
Q 12.796875 -1.171875 8.203125 3 
Q 3.609375 7.171875 3.609375 13.671875 
Q 3.609375 17.484375 5.34375 20.625 
Q 7.078125 23.78125 9.890625 25.6875 
Q 12.703125 27.59375 16.21875 28.5625 
Q 18.796875 29.25 24.03125 29.890625 
Q 34.671875 31.15625 39.703125 32.90625 
Q 39.75 34.71875 39.75 35.203125 
Q 39.75 40.578125 37.25 42.78125 
Q 33.890625 45.75 27.25 45.75 
Q 21.046875 45.75 18.09375 43.578125 
Q 15.140625 41.40625 13.71875 35.890625 
L 5.125 37.0625 
Q 6.296875 42.578125 8.984375 45.96875 
Q 11.671875 49.359375 16.75 51.1875 
Q 21.828125 53.03125 28.515625 53.03125 
Q 35.15625 53.03125 39.296875 51.46875 
Q 43.453125 49.90625 45.40625 47.53125 
Q 47.359375 45.171875 48.140625 41.546875 
Q 48.578125 39.3125 48.578125 33.453125 
L 48.578125 21.734375 
Q 48.578125 9.46875 49.140625 6.21875 
Q 49.703125 2.984375 51.375 0 
L 42.1875 0 
Q 40.828125 2.734375 40.4375 6.390625 
z
M 39.703125 26.03125 
Q 34.90625 24.078125 25.34375 22.703125 
Q 19.921875 21.921875 17.671875 20.9375 
Q 15.4375 19.96875 14.203125 18.09375 
Q 12.984375 16.21875 12.984375 13.921875 
Q 12.984375 10.40625 15.640625 8.0625 
Q 18.3125 5.71875 23.4375 5.71875 
Q 28.515625 5.71875 32.46875 7.9375 
Q 36.421875 10.15625 38.28125 14.015625 
Q 39.703125 17 39.703125 22.796875 
z
" id="ArialMT-61"/>
      <path d="M 3.328125 25.921875 
Q 3.328125 40.328125 11.328125 47.265625 
Q 18.015625 53.03125 27.640625 53.03125 
Q 38.328125 53.03125 45.109375 46.015625 
Q 51.90625 39.015625 51.90625 26.65625 
Q 51.90625 16.65625 48.90625 10.90625 
Q 45.90625 5.171875 40.15625 2 
Q 34.421875 -1.171875 27.640625 -1.171875 
Q 16.75 -1.171875 10.03125 5.8125 
Q 3.328125 12.796875 3.328125 25.921875 
z
M 12.359375 25.921875 
Q 12.359375 15.96875 16.703125 11.015625 
Q 21.046875 6.0625 27.640625 6.0625 
Q 34.1875 6.0625 38.53125 11.03125 
Q 42.875 16.015625 42.875 26.21875 
Q 42.875 35.84375 38.5 40.796875 
Q 34.125 45.75 27.640625 45.75 
Q 21.046875 45.75 16.703125 40.8125 
Q 12.359375 35.890625 12.359375 25.921875 
z
" id="ArialMT-6f"/>
      <path d="M 6.59375 0 
L 6.59375 51.859375 
L 14.5 51.859375 
L 14.5 44.484375 
Q 20.21875 53.03125 31 53.03125 
Q 35.6875 53.03125 39.625 51.34375 
Q 43.5625 49.65625 45.515625 46.921875 
Q 47.46875 44.1875 48.25 40.4375 
Q 48.734375 37.984375 48.734375 31.890625 
L 48.734375 0 
L 39.9375 0 
L 39.9375 31.546875 
Q 39.9375 36.921875 38.90625 39.578125 
Q 37.890625 42.234375 35.28125 43.8125 
Q 32.671875 45.40625 29.15625 45.40625 
Q 23.53125 45.40625 19.453125 41.84375 
Q 15.375 38.28125 15.375 28.328125 
L 15.375 0 
z
" id="ArialMT-6e"/>
      <path d="M 3.078125 15.484375 
L 11.765625 16.84375 
Q 12.5 11.625 15.84375 8.84375 
Q 19.1875 6.0625 25.203125 6.0625 
Q 31.25 6.0625 34.171875 8.515625 
Q 37.109375 10.984375 37.109375 14.3125 
Q 37.109375 17.28125 34.515625 19 
Q 32.71875 20.171875 25.53125 21.96875 
Q 15.875 24.421875 12.140625 26.203125 
Q 8.40625 27.984375 6.46875 31.125 
Q 4.546875 34.28125 4.546875 38.09375 
Q 4.546875 41.546875 6.125 44.5 
Q 7.71875 47.46875 10.453125 49.421875 
Q 12.5 50.921875 16.03125 51.96875 
Q 19.578125 53.03125 23.640625 53.03125 
Q 29.734375 53.03125 34.34375 51.265625 
Q 38.96875 49.515625 41.15625 46.5 
Q 43.359375 43.5 44.1875 38.484375 
L 35.59375 37.3125 
Q 35.015625 41.3125 32.203125 43.546875 
Q 29.390625 45.796875 24.265625 45.796875 
Q 18.21875 45.796875 15.625 43.796875 
Q 13.03125 41.796875 13.03125 39.109375 
Q 13.03125 37.40625 14.109375 36.03125 
Q 15.1875 34.625 17.484375 33.6875 
Q 18.796875 33.203125 25.25 31.453125 
Q 34.578125 28.953125 38.25 27.359375 
Q 41.9375 25.78125 44.03125 22.75 
Q 46.140625 19.734375 46.140625 15.234375 
Q 46.140625 10.84375 43.578125 6.953125 
Q 41.015625 3.078125 36.171875 0.953125 
Q 31.34375 -1.171875 25.25 -1.171875 
Q 15.140625 -1.171875 9.84375 3.03125 
Q 4.546875 7.234375 3.078125 15.484375 
z
" id="ArialMT-73"/>
     </defs>
     <g style="fill:#262626;" transform="translate(200.581875 331.387125)scale(0.1 -0.1)">
      <use xlink:href="#ArialMT-32"/>
      <use x="55.615234" xlink:href="#ArialMT-30"/>
      <use x="111.230469" xlink:href="#ArialMT-30"/>
      <use x="166.845703" xlink:href="#ArialMT-30"/>
      <use x="222.460938" xlink:href="#ArialMT-30"/>
      <use x="278.076172" xlink:href="#ArialMT-20"/>
      <use x="305.859375" xlink:href="#ArialMT-69"/>
      <use x="328.076172" xlink:href="#ArialMT-74"/>
      <use x="355.859375" xlink:href="#ArialMT-65"/>
      <use x="411.474609" xlink:href="#ArialMT-72"/>
      <use x="444.775391" xlink:href="#ArialMT-61"/>
      <use x="500.390625" xlink:href="#ArialMT-74"/>
      <use x="528.173828" xlink:href="#ArialMT-69"/>
      <use x="550.390625" xlink:href="#ArialMT-6f"/>
      <use x="606.005859" xlink:href="#ArialMT-6e"/>
      <use x="661.621094" xlink:href="#ArialMT-73"/>
     </g>
     <!-- Uptime: 0:12:12.572974 -->
     <defs>
      <path d="M 54.6875 71.578125 
L 64.15625 71.578125 
L 64.15625 30.21875 
Q 64.15625 19.4375 61.71875 13.078125 
Q 59.28125 6.734375 52.90625 2.75 
Q 46.53125 -1.21875 36.1875 -1.21875 
Q 26.125 -1.21875 19.71875 2.25 
Q 13.328125 5.71875 10.59375 12.28125 
Q 7.859375 18.84375 7.859375 30.21875 
L 7.859375 71.578125 
L 17.328125 71.578125 
L 17.328125 30.28125 
Q 17.328125 20.953125 19.0625 16.53125 
Q 20.796875 12.109375 25.015625 9.71875 
Q 29.25 7.328125 35.359375 7.328125 
Q 45.796875 7.328125 50.234375 12.0625 
Q 54.6875 16.796875 54.6875 30.28125 
z
" id="ArialMT-55"/>
      <path d="M 6.59375 -19.875 
L 6.59375 51.859375 
L 14.59375 51.859375 
L 14.59375 45.125 
Q 17.4375 49.078125 21 51.046875 
Q 24.5625 53.03125 29.640625 53.03125 
Q 36.28125 53.03125 41.359375 49.609375 
Q 46.4375 46.1875 49.015625 39.953125 
Q 51.609375 33.734375 51.609375 26.3125 
Q 51.609375 18.359375 48.75 11.984375 
Q 45.90625 5.609375 40.453125 2.21875 
Q 35.015625 -1.171875 29 -1.171875 
Q 24.609375 -1.171875 21.109375 0.6875 
Q 17.625 2.546875 15.375 5.375 
L 15.375 -19.875 
z
M 14.546875 25.640625 
Q 14.546875 15.625 18.59375 10.84375 
Q 22.65625 6.0625 28.421875 6.0625 
Q 34.28125 6.0625 38.453125 11.015625 
Q 42.625 15.96875 42.625 26.375 
Q 42.625 36.28125 38.546875 41.203125 
Q 34.46875 46.140625 28.8125 46.140625 
Q 23.1875 46.140625 18.859375 40.890625 
Q 14.546875 35.640625 14.546875 25.640625 
z
" id="ArialMT-70"/>
      <path d="M 6.59375 0 
L 6.59375 51.859375 
L 14.453125 51.859375 
L 14.453125 44.578125 
Q 16.890625 48.390625 20.9375 50.703125 
Q 25 53.03125 30.171875 53.03125 
Q 35.9375 53.03125 39.625 50.640625 
Q 43.3125 48.25 44.828125 43.953125 
Q 50.984375 53.03125 60.84375 53.03125 
Q 68.5625 53.03125 72.703125 48.75 
Q 76.859375 44.484375 76.859375 35.59375 
L 76.859375 0 
L 68.109375 0 
L 68.109375 32.671875 
Q 68.109375 37.9375 67.25 40.25 
Q 66.40625 42.578125 64.15625 43.984375 
Q 61.921875 45.40625 58.890625 45.40625 
Q 53.421875 45.40625 49.796875 41.765625 
Q 46.1875 38.140625 46.1875 30.125 
L 46.1875 0 
L 37.40625 0 
L 37.40625 33.6875 
Q 37.40625 39.546875 35.25 42.46875 
Q 33.109375 45.40625 28.21875 45.40625 
Q 24.515625 45.40625 21.359375 43.453125 
Q 18.21875 41.5 16.796875 37.734375 
Q 15.375 33.984375 15.375 26.90625 
L 15.375 0 
z
" id="ArialMT-6d"/>
      <path d="M 9.03125 41.84375 
L 9.03125 51.859375 
L 19.046875 51.859375 
L 19.046875 41.84375 
z
M 9.03125 0 
L 9.03125 10.015625 
L 19.046875 10.015625 
L 19.046875 0 
z
" id="ArialMT-3a"/>
      <path d="M 9.078125 0 
L 9.078125 10.015625 
L 19.09375 10.015625 
L 19.09375 0 
z
" id="ArialMT-2e"/>
      <path d="M 5.46875 16.546875 
L 13.921875 17.328125 
Q 14.984375 11.375 18.015625 8.6875 
Q 21.046875 6 25.78125 6 
Q 29.828125 6 32.875 7.859375 
Q 35.9375 9.71875 37.890625 12.8125 
Q 39.84375 15.921875 41.15625 21.1875 
Q 42.484375 26.46875 42.484375 31.9375 
Q 42.484375 32.515625 42.4375 33.6875 
Q 39.796875 29.5 35.234375 26.875 
Q 30.671875 24.265625 25.34375 24.265625 
Q 16.453125 24.265625 10.296875 30.703125 
Q 4.15625 37.15625 4.15625 47.703125 
Q 4.15625 58.59375 10.578125 65.234375 
Q 17 71.875 26.65625 71.875 
Q 33.640625 71.875 39.421875 68.109375 
Q 45.21875 64.359375 48.21875 57.390625 
Q 51.21875 50.4375 51.21875 37.25 
Q 51.21875 23.53125 48.234375 15.40625 
Q 45.265625 7.28125 39.375 3.03125 
Q 33.5 -1.21875 25.59375 -1.21875 
Q 17.1875 -1.21875 11.859375 3.4375 
Q 6.546875 8.109375 5.46875 16.546875 
z
M 41.453125 48.140625 
Q 41.453125 55.71875 37.421875 60.15625 
Q 33.40625 64.59375 27.734375 64.59375 
Q 21.875 64.59375 17.53125 59.8125 
Q 13.1875 55.03125 13.1875 47.40625 
Q 13.1875 40.578125 17.3125 36.296875 
Q 21.4375 32.03125 27.484375 32.03125 
Q 33.59375 32.03125 37.515625 36.296875 
Q 41.453125 40.578125 41.453125 48.140625 
z
" id="ArialMT-39"/>
      <path d="M 32.328125 0 
L 32.328125 17.140625 
L 1.265625 17.140625 
L 1.265625 25.203125 
L 33.9375 71.578125 
L 41.109375 71.578125 
L 41.109375 25.203125 
L 50.78125 25.203125 
L 50.78125 17.140625 
L 41.109375 17.140625 
L 41.109375 0 
z
M 32.328125 25.203125 
L 32.328125 57.46875 
L 9.90625 25.203125 
z
" id="ArialMT-34"/>
     </defs>
     <g style="fill:#262626;" transform="translate(182.792812 341.999625)scale(0.1 -0.1)">
      <use xlink:href="#ArialMT-55"/>
      <use x="72.216797" xlink:href="#ArialMT-70"/>
      <use x="127.832031" xlink:href="#ArialMT-74"/>
      <use x="155.615234" xlink:href="#ArialMT-69"/>
      <use x="177.832031" xlink:href="#ArialMT-6d"/>
      <use x="261.132812" xlink:href="#ArialMT-65"/>
      <use x="316.748047" xlink:href="#ArialMT-3a"/>
      <use x="344.53125" xlink:href="#ArialMT-20"/>
      <use x="372.314453" xlink:href="#ArialMT-30"/>
      <use x="427.929688" xlink:href="#ArialMT-3a"/>
      <use x="455.712891" xlink:href="#ArialMT-31"/>
      <use x="511.328125" xlink:href="#ArialMT-32"/>
      <use x="566.943359" xlink:href="#ArialMT-3a"/>
      <use x="594.726562" xlink:href="#ArialMT-31"/>
      <use x="650.341797" xlink:href="#ArialMT-32"/>
      <use x="705.957031" xlink:href="#ArialMT-2e"/>
      <use x="733.740234" xlink:href="#ArialMT-35"/>
      <use x="789.355469" xlink:href="#ArialMT-37"/>
      <use x="844.970703" xlink:href="#ArialMT-32"/>
      <use x="900.585938" xlink:href="#ArialMT-39"/>
      <use x="956.201172" xlink:href="#ArialMT-37"/>
      <use x="1011.816406" xlink:href="#ArialMT-34"/>
     </g>
    </g>
   </g>
   <g id="matplotlib.axis_2">
    <g id="ytick_1">
     <g id="line2d_19">
      <path clip-path="url(#pf4d4635ab1)" d="M 57.6 295.488023 
L 414.72 295.488023 
" style="fill:none;stroke:#cccccc;stroke-linecap:round;stroke-width:0.8;"/>
     </g>
     <g id="line2d_20"/>
     <g id="text_11">
      <!-- 0.0 -->
      <g style="fill:#262626;" transform="translate(40.2 299.06693)scale(0.1 -0.1)">
       <use xlink:href="#ArialMT-30"/>
       <use x="55.615234" xlink:href="#ArialMT-2e"/>
       <use x="83.398438" xlink:href="#ArialMT-30"/>
      </g>
     </g>
    </g>
    <g id="ytick_2">
     <g id="line2d_21">
      <path clip-path="url(#pf4d4635ab1)" d="M 57.6 247.871007 
L 414.72 247.871007 
" style="fill:none;stroke:#cccccc;stroke-linecap:round;stroke-width:0.8;"/>
     </g>
     <g id="line2d_22"/>
     <g id="text_12">
      <!-- 0.2 -->
      <g style="fill:#262626;" transform="translate(40.2 251.449913)scale(0.1 -0.1)">
       <use xlink:href="#ArialMT-30"/>
       <use x="55.615234" xlink:href="#ArialMT-2e"/>
       <use x="83.398438" xlink:href="#ArialMT-32"/>
      </g>
     </g>
    </g>
    <g id="ytick_3">
     <g id="line2d_23">
      <path clip-path="url(#pf4d4635ab1)" d="M 57.6 200.253991 
L 414.72 200.253991 
" style="fill:none;stroke:#cccccc;stroke-linecap:round;stroke-width:0.8;"/>
     </g>
     <g id="line2d_24"/>
     <g id="text_13">
      <!-- 0.4 -->
      <g style="fill:#262626;" transform="translate(40.2 203.832897)scale(0.1 -0.1)">
       <use xlink:href="#ArialMT-30"/>
       <use x="55.615234" xlink:href="#ArialMT-2e"/>
       <use x="83.398438" xlink:href="#ArialMT-34"/>
      </g>
     </g>
    </g>
    <g id="ytick_4">
     <g id="line2d_25">
      <path clip-path="url(#pf4d4635ab1)" d="M 57.6 152.636974 
L 414.72 152.636974 
" style="fill:none;stroke:#cccccc;stroke-linecap:round;stroke-width:0.8;"/>
     </g>
     <g id="line2d_26"/>
     <g id="text_14">
      <!-- 0.6 -->
      <defs>
       <path d="M 49.75 54.046875 
L 41.015625 53.375 
Q 39.84375 58.546875 37.703125 60.890625 
Q 34.125 64.65625 28.90625 64.65625 
Q 24.703125 64.65625 21.53125 62.3125 
Q 17.390625 59.28125 14.984375 53.46875 
Q 12.59375 47.65625 12.5 36.921875 
Q 15.671875 41.75 20.265625 44.09375 
Q 24.859375 46.4375 29.890625 46.4375 
Q 38.671875 46.4375 44.84375 39.96875 
Q 51.03125 33.5 51.03125 23.25 
Q 51.03125 16.5 48.125 10.71875 
Q 45.21875 4.9375 40.140625 1.859375 
Q 35.0625 -1.21875 28.609375 -1.21875 
Q 17.625 -1.21875 10.6875 6.859375 
Q 3.765625 14.9375 3.765625 33.5 
Q 3.765625 54.25 11.421875 63.671875 
Q 18.109375 71.875 29.4375 71.875 
Q 37.890625 71.875 43.28125 67.140625 
Q 48.6875 62.40625 49.75 54.046875 
z
M 13.875 23.1875 
Q 13.875 18.65625 15.796875 14.5 
Q 17.71875 10.359375 21.1875 8.171875 
Q 24.65625 6 28.46875 6 
Q 34.03125 6 38.03125 10.484375 
Q 42.046875 14.984375 42.046875 22.703125 
Q 42.046875 30.125 38.078125 34.390625 
Q 34.125 38.671875 28.125 38.671875 
Q 22.171875 38.671875 18.015625 34.390625 
Q 13.875 30.125 13.875 23.1875 
z
" id="ArialMT-36"/>
      </defs>
      <g style="fill:#262626;" transform="translate(40.2 156.21588)scale(0.1 -0.1)">
       <use xlink:href="#ArialMT-30"/>
       <use x="55.615234" xlink:href="#ArialMT-2e"/>
       <use x="83.398438" xlink:href="#ArialMT-36"/>
      </g>
     </g>
    </g>
    <g id="ytick_5">
     <g id="line2d_27">
      <path clip-path="url(#pf4d4635ab1)" d="M 57.6 105.019958 
L 414.72 105.019958 
" style="fill:none;stroke:#cccccc;stroke-linecap:round;stroke-width:0.8;"/>
     </g>
     <g id="line2d_28"/>
     <g id="text_15">
      <!-- 0.8 -->
      <defs>
       <path d="M 17.671875 38.8125 
Q 12.203125 40.828125 9.5625 44.53125 
Q 6.9375 48.25 6.9375 53.421875 
Q 6.9375 61.234375 12.546875 66.546875 
Q 18.171875 71.875 27.484375 71.875 
Q 36.859375 71.875 42.578125 66.421875 
Q 48.296875 60.984375 48.296875 53.171875 
Q 48.296875 48.1875 45.671875 44.5 
Q 43.0625 40.828125 37.75 38.8125 
Q 44.34375 36.671875 47.78125 31.875 
Q 51.21875 27.09375 51.21875 20.453125 
Q 51.21875 11.28125 44.71875 5.03125 
Q 38.234375 -1.21875 27.640625 -1.21875 
Q 17.046875 -1.21875 10.546875 5.046875 
Q 4.046875 11.328125 4.046875 20.703125 
Q 4.046875 27.6875 7.59375 32.390625 
Q 11.140625 37.109375 17.671875 38.8125 
z
M 15.921875 53.71875 
Q 15.921875 48.640625 19.1875 45.40625 
Q 22.46875 42.1875 27.6875 42.1875 
Q 32.765625 42.1875 36.015625 45.375 
Q 39.265625 48.578125 39.265625 53.21875 
Q 39.265625 58.0625 35.90625 61.359375 
Q 32.5625 64.65625 27.59375 64.65625 
Q 22.5625 64.65625 19.234375 61.421875 
Q 15.921875 58.203125 15.921875 53.71875 
z
M 13.09375 20.65625 
Q 13.09375 16.890625 14.875 13.375 
Q 16.65625 9.859375 20.171875 7.921875 
Q 23.6875 6 27.734375 6 
Q 34.03125 6 38.125 10.046875 
Q 42.234375 14.109375 42.234375 20.359375 
Q 42.234375 26.703125 38.015625 30.859375 
Q 33.796875 35.015625 27.4375 35.015625 
Q 21.234375 35.015625 17.15625 30.90625 
Q 13.09375 26.8125 13.09375 20.65625 
z
" id="ArialMT-38"/>
      </defs>
      <g style="fill:#262626;" transform="translate(40.2 108.598864)scale(0.1 -0.1)">
       <use xlink:href="#ArialMT-30"/>
       <use x="55.615234" xlink:href="#ArialMT-2e"/>
       <use x="83.398438" xlink:href="#ArialMT-38"/>
      </g>
     </g>
    </g>
    <g id="ytick_6">
     <g id="line2d_29">
      <path clip-path="url(#pf4d4635ab1)" d="M 57.6 57.402941 
L 414.72 57.402941 
" style="fill:none;stroke:#cccccc;stroke-linecap:round;stroke-width:0.8;"/>
     </g>
     <g id="line2d_30"/>
     <g id="text_16">
      <!-- 1.0 -->
      <g style="fill:#262626;" transform="translate(40.2 60.981847)scale(0.1 -0.1)">
       <use xlink:href="#ArialMT-31"/>
       <use x="55.615234" xlink:href="#ArialMT-2e"/>
       <use x="83.398438" xlink:href="#ArialMT-30"/>
      </g>
     </g>
    </g>
    <g id="text_17">
     <!-- decryption errors -->
     <defs>
      <path d="M 40.234375 0 
L 40.234375 6.546875 
Q 35.296875 -1.171875 25.734375 -1.171875 
Q 19.53125 -1.171875 14.328125 2.25 
Q 9.125 5.671875 6.265625 11.796875 
Q 3.421875 17.921875 3.421875 25.875 
Q 3.421875 33.640625 6 39.96875 
Q 8.59375 46.296875 13.765625 49.65625 
Q 18.953125 53.03125 25.34375 53.03125 
Q 30.03125 53.03125 33.6875 51.046875 
Q 37.359375 49.078125 39.65625 45.90625 
L 39.65625 71.578125 
L 48.390625 71.578125 
L 48.390625 0 
z
M 12.453125 25.875 
Q 12.453125 15.921875 16.640625 10.984375 
Q 20.84375 6.0625 26.5625 6.0625 
Q 32.328125 6.0625 36.34375 10.765625 
Q 40.375 15.484375 40.375 25.140625 
Q 40.375 35.796875 36.265625 40.765625 
Q 32.171875 45.75 26.171875 45.75 
Q 20.3125 45.75 16.375 40.96875 
Q 12.453125 36.1875 12.453125 25.875 
z
" id="ArialMT-64"/>
      <path d="M 40.4375 19 
L 49.078125 17.875 
Q 47.65625 8.9375 41.8125 3.875 
Q 35.984375 -1.171875 27.484375 -1.171875 
Q 16.84375 -1.171875 10.375 5.78125 
Q 3.90625 12.75 3.90625 25.734375 
Q 3.90625 34.125 6.6875 40.421875 
Q 9.46875 46.734375 15.15625 49.875 
Q 20.84375 53.03125 27.546875 53.03125 
Q 35.984375 53.03125 41.359375 48.75 
Q 46.734375 44.484375 48.25 36.625 
L 39.703125 35.296875 
Q 38.484375 40.53125 35.375 43.15625 
Q 32.28125 45.796875 27.875 45.796875 
Q 21.234375 45.796875 17.078125 41.03125 
Q 12.9375 36.28125 12.9375 25.984375 
Q 12.9375 15.53125 16.9375 10.796875 
Q 20.953125 6.0625 27.390625 6.0625 
Q 32.5625 6.0625 36.03125 9.234375 
Q 39.5 12.40625 40.4375 19 
z
" id="ArialMT-63"/>
      <path d="M 6.203125 -19.96875 
L 5.21875 -11.71875 
Q 8.109375 -12.5 10.25 -12.5 
Q 13.1875 -12.5 14.9375 -11.515625 
Q 16.703125 -10.546875 17.828125 -8.796875 
Q 18.65625 -7.46875 20.515625 -2.25 
Q 20.75 -1.515625 21.296875 -0.09375 
L 1.609375 51.859375 
L 11.078125 51.859375 
L 21.875 21.828125 
Q 23.96875 16.109375 25.640625 9.8125 
Q 27.15625 15.875 29.25 21.625 
L 40.328125 51.859375 
L 49.125 51.859375 
L 29.390625 -0.875 
Q 26.21875 -9.421875 24.46875 -12.640625 
Q 22.125 -17 19.09375 -19.015625 
Q 16.0625 -21.046875 11.859375 -21.046875 
Q 9.328125 -21.046875 6.203125 -19.96875 
z
" id="ArialMT-79"/>
     </defs>
     <g style="fill:#262626;" transform="translate(34.095312 212.039719)rotate(-90)scale(0.1 -0.1)">
      <use xlink:href="#ArialMT-64"/>
      <use x="55.615234" xlink:href="#ArialMT-65"/>
      <use x="111.230469" xlink:href="#ArialMT-63"/>
      <use x="161.230469" xlink:href="#ArialMT-72"/>
      <use x="194.53125" xlink:href="#ArialMT-79"/>
      <use x="244.53125" xlink:href="#ArialMT-70"/>
      <use x="300.146484" xlink:href="#ArialMT-74"/>
      <use x="327.929688" xlink:href="#ArialMT-69"/>
      <use x="350.146484" xlink:href="#ArialMT-6f"/>
      <use x="405.761719" xlink:href="#ArialMT-6e"/>
      <use x="461.376953" xlink:href="#ArialMT-20"/>
      <use x="489.160156" xlink:href="#ArialMT-65"/>
      <use x="544.775391" xlink:href="#ArialMT-72"/>
      <use x="578.076172" xlink:href="#ArialMT-72"/>
      <use x="611.376953" xlink:href="#ArialMT-6f"/>
      <use x="666.992188" xlink:href="#ArialMT-72"/>
      <use x="700.292969" xlink:href="#ArialMT-73"/>
     </g>
    </g>
   </g>
   <g id="line2d_31">
    <path clip-path="url(#pf4d4635ab1)" d="M 73.832727 57.358353 
L 74.774273 57.739807 
L 75.196345 58.212593 
L 75.553482 59.025197 
L 76.835932 62.289632 
L 77.517741 63.19022 
L 78.053447 63.66698 
L 78.946292 63.910072 
L 81.13782 64.155774 
L 88.361745 64.196332 
L 106.283572 64.202675 
L 106.397206 53.568028 
L 108.166662 53.638189 
L 108.215363 53.991544 
L 108.507566 58.097845 
L 108.637435 58.217234 
L 114.692545 58.369829 
L 114.80618 58.920311 
L 114.919814 61.055628 
L 115.098383 70.60116 
L 115.276952 75.227816 
L 115.617857 76.680106 
L 115.650324 76.756198 
L 115.812659 77.319949 
L 116.299665 77.844419 
L 117.289911 78.181171 
L 119.935978 78.20487 
L 122.257374 78.291378 
L 122.403476 78.663919 
L 122.565811 80.031319 
L 122.825548 80.162742 
L 122.955416 80.317466 
L 123.198919 80.958018 
L 123.328788 81.340792 
L 123.491123 81.6734 
L 123.815794 82.060345 
L 124.3028 82.198381 
L 125.585249 82.316521 
L 129.254029 82.37889 
L 138.75065 82.393563 
L 138.79935 68.218424 
L 138.864284 68.219587 
L 138.896751 68.247515 
L 139.042853 71.760492 
L 139.059087 71.730804 
L 139.07532 71.823968 
L 139.253889 73.054595 
L 139.286356 72.756925 
L 139.318823 73.386125 
L 139.35129 73.189778 
L 139.367524 73.126643 
L 139.383758 73.36657 
L 139.546093 73.91041 
L 139.562326 73.726651 
L 139.627261 74.130697 
L 139.643494 74.104727 
L 139.692195 74.179627 
L 139.724662 74.132826 
L 139.80583 74.385255 
L 139.822063 74.310156 
L 139.870764 74.44866 
L 139.886997 74.402142 
L 140.016866 74.590712 
L 140.033099 74.537609 
L 140.065566 74.630333 
L 140.098033 74.599595 
L 140.211668 74.689325 
L 140.227902 74.523489 
L 140.292836 74.708809 
L 140.309069 74.55803 
L 140.438938 74.719282 
L 140.455171 74.664774 
L 140.471405 74.730081 
L 140.552572 74.722546 
L 140.714908 74.742356 
L 141.039579 74.749863 
L 171.217727 74.781836 
L 171.331362 62.634842 
L 171.444997 62.685844 
L 171.6885 71.875211 
L 171.818368 72.95628 
L 171.834602 72.922534 
L 171.850835 72.89709 
L 171.867069 72.942855 
L 171.980704 74.074245 
L 171.996937 74.032183 
L 172.013171 74.00742 
L 172.143039 74.577145 
L 172.159273 74.498683 
L 172.207973 74.675176 
L 172.224207 74.667428 
L 172.386542 75.156804 
L 172.419009 75.055892 
L 172.483943 75.179722 
L 172.500177 75.084033 
L 172.630045 75.257432 
L 172.662512 74.965055 
L 172.711213 75.321377 
L 172.74368 75.219854 
L 172.906015 75.553115 
L 172.938483 75.429356 
L 172.97095 75.655361 
L 173.01965 75.460448 
L 173.035884 75.675356 
L 173.100818 75.272971 
L 173.133285 75.494776 
L 173.181986 74.970292 
L 173.24692 75.15327 
L 173.360555 75.501857 
L 173.393022 75.486702 
L 173.717692 75.62424 
L 173.733926 75.509379 
L 173.766393 75.485538 
L 173.782627 75.559728 
L 173.831327 75.752527 
L 173.880028 75.639737 
L 173.944962 75.44068 
L 173.993663 75.597803 
L 174.02613 75.738336 
L 174.107297 75.86719 
L 174.091064 75.65407 
L 174.139764 75.773217 
L 174.155998 75.611894 
L 174.204699 75.870965 
L 174.253399 75.716808 
L 174.285866 75.602415 
L 174.334567 75.774551 
L 174.383268 75.968173 
L 174.464435 75.949384 
L 174.480669 75.929687 
L 174.545603 76.024511 
L 174.707938 76.047217 
L 175.925454 76.210526 
L 176.331292 76.276713 
L 176.41246 75.066563 
L 176.509861 75.360303 
L 176.68843 75.830435 
L 177.629975 76.554743 
L 178.149449 76.601885 
L 181.331222 76.823463 
L 182.646139 76.852058 
L 203.684805 76.873642 
L 203.749739 58.391541 
L 203.79844 58.391655 
L 203.879608 58.405193 
L 204.009476 62.694501 
L 204.188045 72.475717 
L 204.236746 72.00425 
L 204.269213 71.995111 
L 204.399081 72.53109 
L 204.415315 72.502964 
L 204.431548 72.474227 
L 204.464015 72.605167 
L 204.918554 74.378415 
L 204.934788 74.346428 
L 204.983488 74.490736 
L 204.999722 74.43796 
L 205.194524 74.604817 
L 205.892567 74.954597 
L 206.931513 75.098451 
L 207.061381 75.185697 
L 208.132795 75.189486 
L 218.051487 75.299324 
L 218.554727 75.305823 
L 219.106667 75.41647 
L 219.496272 75.422076 
L 220.243015 75.530239 
L 220.259249 75.253161 
L 220.35665 75.456177 
L 220.502752 75.643129 
L 220.518985 75.407644 
L 220.600153 75.655943 
L 221.087159 75.711799 
L 226.898766 75.712664 
L 230.453911 75.648734 
L 230.518845 75.459909 
L 230.486378 75.707769 
L 230.551312 75.71177 
L 230.681181 75.374678 
L 230.697414 75.533489 
L 230.713648 75.638744 
L 230.746115 75.332815 
L 230.778582 75.508839 
L 230.811049 75.285048 
L 230.843516 75.651629 
L 230.875983 75.510259 
L 230.973384 75.732248 
L 231.005851 75.601932 
L 231.13572 75.775715 
L 231.18442 75.725195 
L 231.249354 75.585953 
L 231.281822 75.756273 
L 231.298055 75.65038 
L 231.395456 75.765497 
L 231.427923 75.711742 
L 231.622726 75.769613 
L 231.898696 75.820289 
L 232.304534 75.828818 
L 233.067511 75.885539 
L 233.099978 76.287513 
L 233.181146 76.119733 
L 234.642164 76.181293 
L 234.950601 76.409456 
L 235.015536 76.42982 
L 234.983068 76.448452 
L 235.031769 76.470278 
L 235.194104 76.546086 
L 235.778512 76.716009 
L 236.151883 76.779925 
L 236.168117 58.386035 
L 236.265518 59.596668 
L 236.346686 62.162907 
L 236.395386 61.88519 
L 236.41162 61.608934 
L 236.444087 62.215967 
L 236.720057 69.864563 
L 236.752524 69.399879 
L 236.784991 70.237502 
L 236.801225 70.197668 
L 236.833692 70.080025 
L 237.044728 71.813523 
L 237.304464 73.135668 
L 237.515501 73.988475 
L 237.580435 74.105068 
L 237.807704 74.464469 
L 238.099908 74.647759 
L 238.505746 74.710554 
L 240.713508 74.757697 
L 243.749179 74.868912 
L 243.765413 74.894143 
L 243.781647 74.845894 
L 243.814114 74.258302 
L 243.895281 74.573427 
L 244.02515 75.009658 
L 243.943982 74.326731 
L 244.057617 74.971456 
L 244.106317 74.832327 
L 244.187485 74.952723 
L 244.414755 75.406962 
L 244.447222 75.337498 
L 244.463455 75.55645 
L 244.479689 75.032491 
L 244.560856 75.415009 
L 244.771892 76.04286 
L 245.064096 76.329844 
L 245.096563 76.24782 
L 245.12903 76.376206 
L 245.161497 76.360312 
L 245.3563 76.339224 
L 245.469935 76.451149 
L 245.486168 76.440974 
L 245.778372 76.538054 
L 245.924474 76.100788 
L 245.827072 76.620305 
L 245.940707 76.116213 
L 246.054342 76.534563 
L 246.070576 76.469441 
L 246.13551 76.647807 
L 246.265378 76.879007 
L 246.297845 76.861211 
L 246.703684 77.077723 
L 246.784851 77.048106 
L 246.817318 77.096639 
L 246.947187 77.095277 
L 247.434193 77.121729 
L 254.138644 77.156568 
L 268.618961 77.163607 
L 268.635195 57.403182 
L 268.732596 62.394362 
L 268.927398 68.175255 
L 269.0735 70.74561 
L 269.138434 70.587182 
L 269.170901 70.410532 
L 269.219602 70.752209 
L 269.398171 71.890197 
L 269.414405 71.749962 
L 269.430638 71.70719 
L 269.463105 71.796253 
L 269.479339 71.779465 
L 269.609207 71.951616 
L 269.641674 71.795714 
L 269.674141 72.11792 
L 269.917644 72.499586 
L 270.015045 72.320751 
L 270.031279 72.559898 
L 270.12868 72.453792 
L 270.307249 73.138237 
L 270.323483 73.118596 
L 270.372183 73.221595 
L 270.388417 73.212796 
L 270.469585 73.243108 
L 270.615686 73.469383 
L 270.648153 73.419516 
L 270.680621 73.077045 
L 270.745555 73.27447 
L 270.842956 73.667872 
L 270.85919 73.575376 
L 270.891657 73.390169 
L 270.956591 73.633956 
L 271.005291 73.591411 
L 271.102693 73.777214 
L 271.378663 74.139751 
L 271.540998 74.204036 
L 271.6871 74.284357 
L 271.703334 74.14757 
L 271.752034 74.334181 
L 271.784501 74.243884 
L 271.849435 74.331173 
L 271.865669 74.166487 
L 271.881902 74.19958 
L 271.898136 73.999587 
L 271.96307 74.303969 
L 271.979304 74.192115 
L 271.995537 74.304224 
L 272.011771 74.140375 
L 272.044238 74.282995 
L 272.076705 73.501412 
L 272.109172 74.365458 
L 272.174106 73.619027 
L 272.287741 74.274409 
L 272.303974 74.236704 
L 272.320208 73.984984 
L 272.352675 74.518522 
L 272.401376 74.412785 
L 272.417609 74.567041 
L 272.450076 73.989043 
L 272.498777 74.331074 
L 272.709813 74.605101 
L 272.726046 74.577741 
L 272.758514 74.733501 
L 272.839681 74.702792 
L 272.888382 74.759939 
L 272.985783 74.925534 
L 273.002017 74.787058 
L 273.01825 74.60828 
L 273.099418 74.888921 
L 273.342921 75.063413 
L 273.472789 74.964332 
L 273.489023 75.083947 
L 273.505256 74.941967 
L 273.586424 75.009062 
L 273.635125 75.082174 
L 273.651358 74.955037 
L 273.667592 75.046767 
L 273.79746 74.783851 
L 273.813694 74.967865 
L 273.878628 74.668876 
L 273.911095 74.946735 
L 273.943562 74.626501 
L 274.02473 74.859177 
L 274.057197 74.736964 
L 274.138364 74.559548 
L 274.089664 74.893533 
L 274.170831 74.661113 
L 274.219532 74.70756 
L 274.235766 74.851826 
L 274.333167 74.829035 
L 274.398101 74.625593 
L 274.414335 74.872204 
L 274.446802 74.810161 
L 274.511736 74.927889 
L 274.560436 74.868301 
L 274.690305 74.86894 
L 274.950041 74.938575 
L 275.112377 74.941073 
L 275.485748 74.950056 
L 276.492228 75.06645 
L 276.719497 75.168086 
L 278.196749 75.183355 
L 279.966205 75.300289 
L 280.07984 75.279896 
L 280.096073 74.91069 
L 280.193474 75.213923 
L 280.225941 75.29342 
L 280.274642 74.960784 
L 280.290876 75.303212 
L 280.307109 74.821471 
L 280.388277 75.207168 
L 280.420744 75.120759 
L 280.534379 75.319929 
L 281.329822 75.431357 
L 281.427223 74.59653 
L 281.378523 75.438623 
L 281.492158 74.816518 
L 281.622026 75.271169 
L 281.897996 75.322029 
L 282.060331 75.387918 
L 284.57653 75.508612 
L 301.086039 75.534213 
L 301.199674 60.018679 
L 301.995117 60.087306 
L 302.108752 62.486717 
L 302.157453 62.084402 
L 302.482123 63.971306 
L 302.774327 71.675757 
L 302.790561 65.802424 
L 302.806794 71.948394 
L 302.871728 71.570645 
L 302.904195 71.724163 
L 303.050297 72.415008 
L 303.066531 72.322667 
L 303.131465 72.53468 
L 303.439902 72.877761 
L 303.634705 73.1267 
L 303.861974 73.373126 
L 304.008076 73.452936 
L 304.202879 73.570636 
L 304.397681 73.655186 
L 304.527549 73.711581 
L 304.689885 73.754068 
L 304.803519 73.76044 
L 304.835987 73.788936 
L 304.868454 73.698553 
L 304.884687 73.580229 
L 304.900921 73.742999 
L 304.965855 73.675195 
L 305.030789 73.77334 
L 305.063256 73.710899 
L 305.095723 73.479359 
L 305.111957 73.720351 
L 305.176891 73.61863 
L 305.339226 73.744475 
L 305.35546 73.671009 
L 305.420394 73.765577 
L 305.436627 73.726396 
L 305.598963 73.786282 
L 305.826232 73.807724 
L 306.621676 73.819872 
L 314.283906 73.974185 
L 314.478709 73.949138 
L 314.624811 73.910765 
L 314.641044 73.939431 
L 314.770912 73.985183 
L 314.965715 73.975178 
L 316.037128 73.999941 
L 321.929903 74.133393 
L 322.076005 77.144335 
L 322.140939 76.755034 
L 322.18964 76.844636 
L 322.205873 76.994237 
L 322.222107 76.733322 
L 322.287041 76.862077 
L 322.303274 76.775242 
L 322.368209 76.962223 
L 322.481843 77.164345 
L 322.498077 77.152637 
L 322.546778 77.046148 
L 322.611712 77.120367 
L 322.936382 77.230758 
L 322.96885 77.25626 
L 323.066251 77.239174 
L 323.261053 77.260347 
L 324.283766 77.268478 
L 333.553117 77.387923 
L 333.666752 59.030987 
L 333.845321 59.131984 
L 334.088824 59.204855 
L 360.241055 59.212475 
L 360.40339 60.287484 
L 360.468325 60.161639 
L 360.484558 60.147561 
L 360.500792 60.225526 
L 360.711828 60.934167 
L 360.809229 60.957752 
L 361.020265 61.216511 
L 361.101433 61.262915 
L 361.280001 61.327626 
L 364.088404 61.464285 
L 366.020195 61.470274 
L 366.052662 58.333174 
L 366.13383 58.345591 
L 366.588369 60.137684 
L 366.620836 60.089009 
L 366.734471 59.910018 
L 366.669536 60.169217 
L 366.750704 59.95936 
L 366.913039 60.014535 
L 367.221477 60.14864 
L 367.351345 60.265616 
L 367.367579 60.251113 
L 367.497447 60.25703 
L 367.951986 60.305989 
L 398.487273 60.309225 
L 398.487273 60.309225 
" style="fill:none;stroke:#1f77b4;stroke-linecap:round;stroke-width:1.5;"/>
   </g>
   <g id="line2d_32">
    <path clip-path="url(#pf4d4635ab1)" d="M 73.832727 57.301589 
L 74.904141 58.512789 
L 75.35868 59.668985 
L 76.251525 62.054034 
L 76.884633 63.107033 
L 77.501507 63.651824 
L 78.313184 64.028325 
L 79.270963 64.230759 
L 81.056652 64.350758 
L 89.627961 64.539342 
L 106.283572 64.550383 
L 106.316039 56.358826 
L 106.397206 56.359394 
L 106.673177 56.451465 
L 106.721877 56.994865 
L 106.900446 59.911438 
L 106.949147 59.886916 
L 107.452386 60.641322 
L 109.091974 60.655456 
L 138.75065 60.657727 
L 138.864284 53.8569 
L 148.360905 53.94091 
L 148.393372 54.446223 
L 148.539474 56.487056 
L 149.010246 61.570079 
L 149.188815 63.484073 
L 150.000492 63.509673 
L 150.503732 63.620235 
L 150.552432 64.067152 
L 150.714768 65.319136 
L 150.942037 66.383445 
L 151.071906 66.824586 
L 151.266708 67.605998 
L 152.24072 67.676953 
L 166.461301 67.690179 
L 171.217727 67.690491 
L 171.331362 57.05424 
L 176.233891 57.14072 
L 176.282592 57.589638 
L 176.347526 58.980098 
L 176.428693 58.957846 
L 176.996867 59.478088 
L 178.79879 59.493159 
L 203.684805 59.495259 
L 203.79844 54.49609 
L 208.652268 54.546127 
L 208.700969 55.131079 
L 208.830837 55.772824 
L 209.80485 55.846134 
L 210.097053 56.475078 
L 210.275622 56.552987 
L 210.324323 57.267105 
L 210.389257 59.068607 
L 210.454191 58.971172 
L 210.551592 59.282678 
L 210.730161 59.698843 
L 211.087299 59.726032 
L 236.151883 59.727962 
L 236.265518 61.762069 
L 268.618961 61.762381 
L 268.732596 54.206055 
L 275.810419 54.31348 
L 276.021455 57.576369 
L 276.18379 60.148044 
L 276.329892 60.250843 
L 292.254994 60.251127 
L 301.086039 60.251127 
L 301.199674 58.449214 
L 333.553117 58.449214 
L 333.666752 59.611738 
L 361.750774 59.675215 
L 361.815708 60.463878 
L 361.864409 60.64619 
L 361.929343 60.599501 
L 364.656578 60.65784 
L 366.020195 60.657869 
L 366.13383 57.926106 
L 374.818773 58.002737 
L 374.883707 58.921177 
L 375.046042 59.386144 
L 375.12721 59.453949 
L 375.175911 59.702036 
L 375.322013 60.462573 
L 375.597983 60.483235 
L 398.487273 60.483589 
L 398.487273 60.483589 
" style="fill:none;stroke:#ff7f0e;stroke-linecap:round;stroke-width:1.5;"/>
   </g>
   <g id="line2d_33">
    <path clip-path="url(#pf4d4635ab1)" d="M 73.832727 57.423774 
L 74.384668 58.048177 
L 74.547003 58.646213 
L 74.790506 60.568877 
L 75.001542 63.980133 
L 75.293746 73.635347 
L 77.111902 154.273954 
L 77.97228 196.040979 
L 79.30343 248.337513 
L 79.741735 257.83067 
L 80.228742 264.056156 
L 80.943017 270.105347 
L 82.712473 281.908245 
L 83.572851 286.137401 
L 84.660498 290.097024 
L 85.326073 291.853346 
L 85.845546 292.551837 
L 86.949427 293.472865 
L 87.566301 293.911697 
L 87.97214 294.079789 
L 89.205889 294.323144 
L 92.679866 294.708214 
L 97.907066 294.847147 
L 106.283572 294.914562 
L 106.299805 273.770665 
L 106.397206 283.96134 
L 106.656943 291.342064 
L 106.867979 293.227275 
L 107.19265 293.993857 
L 107.582255 294.185921 
L 112.143879 295.266912 
L 120.000912 295.394336 
L 138.75065 295.478537 
L 138.766883 289.251471 
L 138.864284 292.978904 
L 139.059087 294.613558 
L 139.270123 294.935698 
L 140.958411 295.173306 
L 148.831677 295.247343 
L 171.217727 295.253036 
L 171.233961 292.761237 
L 171.331362 294.463515 
L 171.347596 294.439129 
L 171.477464 295.163877 
L 171.656033 295.3168 
L 171.932003 295.410389 
L 172.061871 295.418491 
L 172.321608 295.472308 
L 174.383268 295.483649 
L 203.684805 295.487269 
L 203.717272 293.812051 
L 203.79844 294.987472 
L 203.928308 295.346436 
L 203.944542 295.308574 
L 203.993243 295.379138 
L 204.02571 295.383548 
L 236.151883 295.487656 
L 236.18435 293.210548 
L 236.265518 294.689547 
L 236.46032 295.239196 
L 236.509021 295.083895 
L 236.573955 295.197918 
L 236.703824 295.388706 
L 237.921339 295.426476 
L 268.618961 295.429606 
L 268.651428 293.851365 
L 268.732596 294.37833 
L 268.862464 295.377171 
L 268.878698 295.368992 
L 269.105967 295.421862 
L 291.102413 295.487888 
L 301.086039 295.487929 
L 301.13474 293.899469 
L 301.215907 295.067828 
L 301.280841 295.242964 
L 301.297075 295.096992 
L 301.313309 294.895813 
L 301.378243 295.342456 
L 301.394476 295.04268 
L 301.426943 295.34057 
L 301.508111 295.297017 
L 301.524345 295.163359 
L 301.589279 295.403145 
L 301.605512 295.389823 
L 301.621746 295.318715 
L 301.654213 295.402744 
L 301.702914 295.40818 
L 302.076285 295.423489 
L 305.063256 295.429459 
L 333.553117 295.487946 
L 333.56935 294.724584 
L 333.666752 295.024676 
L 333.764153 295.363683 
L 333.780386 295.226274 
L 333.975189 295.464545 
L 334.169991 295.483498 
L 338.29331 295.487806 
L 366.020195 295.487964 
L 366.036428 295.082882 
L 366.13383 295.355129 
L 366.426033 295.426358 
L 368.974699 295.487858 
L 398.487273 295.488 
L 398.487273 295.488 
" style="fill:none;stroke:#2ca02c;stroke-linecap:round;stroke-width:1.5;"/>
   </g>
   <g id="patch_3">
    <path d="M 57.6 307.584 
L 57.6 41.472 
" style="fill:none;stroke:#cccccc;stroke-linecap:square;stroke-linejoin:miter;"/>
   </g>
   <g id="patch_4">
    <path d="M 414.72 307.584 
L 414.72 41.472 
" style="fill:none;stroke:#cccccc;stroke-linecap:square;stroke-linejoin:miter;"/>
   </g>
   <g id="patch_5">
    <path d="M 57.6 307.584 
L 414.72 307.584 
" style="fill:none;stroke:#cccccc;stroke-linecap:square;stroke-linejoin:miter;"/>
   </g>
   <g id="patch_6">
    <path d="M 57.6 41.472 
L 414.72 41.472 
" style="fill:none;stroke:#cccccc;stroke-linecap:square;stroke-linejoin:miter;"/>
   </g>
   <g id="legend_1">
    <g id="line2d_34">
     <path d="M 358.815313 159.467844 
L 378.815313 159.467844 
" style="fill:none;stroke:#1f77b4;stroke-linecap:round;stroke-width:1.5;"/>
    </g>
    <g id="line2d_35"/>
    <g id="text_18">
     <!-- eve -->
     <defs>
      <path d="M 21 0 
L 1.265625 51.859375 
L 10.546875 51.859375 
L 21.6875 20.796875 
Q 23.484375 15.765625 25 10.359375 
Q 26.171875 14.453125 28.265625 20.21875 
L 39.796875 51.859375 
L 48.828125 51.859375 
L 29.203125 0 
z
" id="ArialMT-76"/>
     </defs>
     <g style="fill:#262626;" transform="translate(386.815313 162.967844)scale(0.1 -0.1)">
      <use xlink:href="#ArialMT-65"/>
      <use x="55.615234" xlink:href="#ArialMT-76"/>
      <use x="105.615234" xlink:href="#ArialMT-65"/>
     </g>
    </g>
    <g id="line2d_36">
     <path d="M 358.815313 173.613156 
L 378.815313 173.613156 
" style="fill:none;stroke:#ff7f0e;stroke-linecap:round;stroke-width:1.5;"/>
    </g>
    <g id="line2d_37"/>
    <g id="text_19">
     <!-- alan -->
     <defs>
      <path d="M 6.390625 0 
L 6.390625 71.578125 
L 15.1875 71.578125 
L 15.1875 0 
z
" id="ArialMT-6c"/>
     </defs>
     <g style="fill:#262626;" transform="translate(386.815313 177.113156)scale(0.1 -0.1)">
      <use xlink:href="#ArialMT-61"/>
      <use x="55.615234" xlink:href="#ArialMT-6c"/>
      <use x="77.832031" xlink:href="#ArialMT-61"/>
      <use x="133.447266" xlink:href="#ArialMT-6e"/>
     </g>
    </g>
    <g id="line2d_38">
     <path d="M 358.815313 187.758469 
L 378.815313 187.758469 
" style="fill:none;stroke:#2ca02c;stroke-linecap:round;stroke-width:1.5;"/>
    </g>
    <g id="line2d_39"/>
    <g id="text_20">
     <!-- bob -->
     <defs>
      <path d="M 14.703125 0 
L 6.546875 0 
L 6.546875 71.578125 
L 15.328125 71.578125 
L 15.328125 46.046875 
Q 20.90625 53.03125 29.546875 53.03125 
Q 34.328125 53.03125 38.59375 51.09375 
Q 42.875 49.171875 45.625 45.671875 
Q 48.390625 42.1875 49.953125 37.25 
Q 51.515625 32.328125 51.515625 26.703125 
Q 51.515625 13.375 44.921875 6.09375 
Q 38.328125 -1.171875 29.109375 -1.171875 
Q 19.921875 -1.171875 14.703125 6.5 
z
M 14.59375 26.3125 
Q 14.59375 17 17.140625 12.84375 
Q 21.296875 6.0625 28.375 6.0625 
Q 34.125 6.0625 38.328125 11.0625 
Q 42.53125 16.0625 42.53125 25.984375 
Q 42.53125 36.140625 38.5 40.96875 
Q 34.46875 45.796875 28.765625 45.796875 
Q 23 45.796875 18.796875 40.796875 
Q 14.59375 35.796875 14.59375 26.3125 
z
" id="ArialMT-62"/>
     </defs>
     <g style="fill:#262626;" transform="translate(386.815313 191.258469)scale(0.1 -0.1)">
      <use xlink:href="#ArialMT-62"/>
      <use x="55.615234" xlink:href="#ArialMT-6f"/>
      <use x="111.230469" xlink:href="#ArialMT-62"/>
     </g>
    </g>
   </g>
  </g>
 </g>
 <defs>
  <clipPath id="pf4d4635ab1">
   <rect height="266.112" width="357.12" x="57.6" y="41.472"/>
  </clipPath>
 </defs>
</svg>
